<?xml version="1.0" standalone="no"?>
  <!DOCTYPE svg PUBLIC "-//W3C//DTD SVG 1.1//EN" "http://www.w3.org/Graphics/SVG/1.1/DTD/svg11.dtd" >
  <svg>
  <metadata>
  Created by font-carrier
  </metadata>
  <defs>
  <font id="KohSantepheap-Bold" horiz-adv-x="4450" vert-adv-y="4450" >
    <font-face
      
      font-family="Koh Santepheap"
      
      font-weight="400"
      
      font-stretch="normal"
      
      units-per-em="2048"
      
      ascent="2050"
      
      descent="-550"
      
    />
      <missing-glyph />

      

      
      <glyph glyph-name="uni41" unicode="&#x41;" d="M1016 276L944 481L446 481L387 305Q379 280 370.50 246.50Q362 213 362 188Q362 150 390 129.50Q418 109 455 109L541 109L541 0L8 0L8 109L33 109Q95 109 130 142Q165 175 197 258L641 1462L922 1462L1350 256Q1377 179 1413 144Q1449 109 1505 109L1542 109L1542 0L866 0L866 109L946 109Q980 109 1007 128.50Q1034 148 1034 188Q1034 213 1028 236Q1022 259 1016 276M489 606L903 606L795 942Q783 981 766 1037.50Q749 1094 733.50 1151.50Q718 1209 709 1249Q699 1213 680.50 1158Q662 1103 642.50 1047Q623 991 610 952L489 606Z"  horiz-adv-x="1542" vert-adv-y="2048"  />

      
      <glyph glyph-name="uni42" unicode="&#x42;" d="M1241 1090Q1241 1022 1222.50 971.50Q1204 921 1170 885Q1136 848 1088.50 822Q1041 796 983 778L983 768Q1129 731 1214 642Q1256 596 1279.50 536Q1303 476 1303 401Q1303 0 717 0L57 0L57 109L141 109Q194 109 221 136Q248 163 248 242L248 1223Q248 1296 220 1325Q192 1354 141 1354L57 1354L57 1462L655 1462Q947 1462 1094 1372Q1241 1282 1241 1090M645 1337L571 1337L571 827L649 827Q789 827 845 889Q874 921 885.50 970.50Q897 1020 897 1090Q897 1229 840 1283Q783 1337 645 1337M711 702L571 702L571 125L707 125Q844 125 901 189Q958 252 958 408Q958 483 946 538.50Q934 594 905 630Q876 666 829 684Q782 702 711 702Z"  horiz-adv-x="1376" vert-adv-y="2048"  />

      
      <glyph glyph-name="uni43" unicode="&#x43;" d="M870 143Q945 143 1003.50 160.50Q1062 178 1108 206Q1154 234 1188.50 269Q1223 304 1249 338Q1265 326 1274.50 301Q1284 276 1284 250Q1284 207 1261 159.50Q1238 112 1184 72Q1130 32 1041 6Q952-20 821-20Q643-20 510 34Q377 88 289 187Q201 286 157 425Q113 564 113 733Q113 899 158.50 1037Q204 1175 292 1274Q381 1373 513 1428Q645 1483 819 1483Q937 1483 1024.50 1464.50Q1112 1446 1170 1414Q1286 1349 1286 1245Q1286 1162 1215.50 1114.50Q1145 1067 1030 1067Q1030 1140 1007.50 1205Q985 1270 936 1311Q887 1352 805 1352Q617 1352 534 1191Q494 1112 475.50 996.50Q457 881 457 733Q457 585 479 474.50Q501 364 550 290Q648 143 870 143Z"  horiz-adv-x="1368" vert-adv-y="2048"  />

      
      <glyph glyph-name="uni44" unicode="&#x44;" d="M1458 758Q1458 590 1412.50 450.50Q1367 311 1275 211Q1184 111 1048 55.50Q912 0 733 0L57 0L57 109L143 109Q196 109 222 136.50Q248 164 248 242L248 1229Q248 1302 221.50 1328Q195 1354 143 1354L57 1354L57 1462L733 1462Q1079 1462 1266 1285Q1359 1197 1408.50 1064.50Q1458 932 1458 758M1112 758Q1112 1051 1004.50 1194Q897 1337 688 1337L571 1337L571 127L686 127Q791 127 871 170.50Q951 214 1005 296Q1112 460 1112 758Z"  horiz-adv-x="1571" vert-adv-y="2048"  />

      
      <glyph glyph-name="uni45" unicode="&#x45;" d="M1059 702L573 702L573 125L983 125Q1045 125 1074.50 169.50Q1104 214 1114 281L1130 377L1272 377L1257 0L57 0L57 109L143 109Q196 109 222 133.50Q248 158 248 231L248 1221Q248 1299 222 1326.50Q196 1354 143 1354L57 1354L57 1462L1194 1462L1202 1085L1059 1085L1049 1182Q1041 1257 1011 1297Q981 1337 918 1337L573 1337L573 825L1059 825L1059 702Z"  horiz-adv-x="1337" vert-adv-y="2048"  />

      
      <glyph glyph-name="uni46" unicode="&#x46;" d="M1192 1462L1202 1085L1059 1085L1049 1184Q1039 1265 999.50 1301Q960 1337 897 1337L571 1337L571 778L1057 778L1057 657L571 657L571 242Q571 163 598.50 136Q626 109 678 109L805 109L805 0L57 0L57 109L143 109Q196 109 222 133.50Q248 158 248 231L248 1229Q248 1302 221.50 1328Q195 1354 143 1354L57 1354L57 1462L1192 1462Z"  horiz-adv-x="1272" vert-adv-y="2048"  />

      
      <glyph glyph-name="uni47" unicode="&#x47;" d="M866-20Q676-20 534.50 34Q393 88 299 187Q205 286 159 425Q113 564 113 733Q113 899 162 1037Q211 1175 307 1274Q403 1373 546 1428Q689 1483 877 1483Q1005 1483 1101 1464.50Q1197 1446 1261 1414Q1389 1350 1389 1245Q1389 1166 1315.50 1118.50Q1242 1071 1124 1071Q1124 1198 1061.50 1275Q999 1352 870 1352Q758 1352 680 1311Q602 1270 552 1191Q503 1112 480 996.50Q457 881 457 733Q457 585 481 470.50Q505 356 557 278Q610 200 693 159.50Q776 119 897 119Q935 119 973 122Q1011 125 1047 133L1047 434Q1047 516 1010 548Q973 580 901 580L874 580L874 688L1518 688L1518 580L1491 580Q1424 580 1397 544.50Q1370 509 1370 426L1370 90Q1250 35 1128 7.50Q1006-20 866-20Z"  horiz-adv-x="1575" vert-adv-y="2048"  />

      
      <glyph glyph-name="uni48" unicode="&#x48;" d="M1620 109L1620 0L913 0L913 109L1001 109Q1054 109 1080 136.50Q1106 164 1106 242L1106 700L571 700L571 242Q571 164 598 136.50Q625 109 676 109L764 109L764 0L57 0L57 109L143 109Q196 109 222 136.50Q248 164 248 242L248 1228Q248 1301 220.50 1327Q193 1353 143 1353L57 1353L57 1462L764 1462L764 1353L676 1353Q625 1353 598 1325.50Q571 1298 571 1220L571 825L1106 825L1106 1220Q1106 1298 1080 1325.50Q1054 1353 1001 1353L913 1353L913 1462L1620 1462L1620 1353L1534 1353Q1482 1353 1456 1325.50Q1430 1298 1430 1220L1430 231Q1430 159 1457.50 134Q1485 109 1534 109L1620 109Z"  horiz-adv-x="1677" vert-adv-y="2048"  />

      
      <glyph glyph-name="uni49" unicode="&#x49;" d="M764 109L764 0L57 0L57 109L143 109Q196 109 222 136.50Q248 164 248 242L248 1220Q248 1298 222 1325.50Q196 1353 143 1353L57 1353L57 1462L764 1462L764 1353L678 1353Q626 1353 599.50 1326Q573 1299 573 1220L573 242Q573 163 599.50 136Q626 109 678 109L764 109Z"  horiz-adv-x="821" vert-adv-y="2048"  />

      
      <glyph glyph-name="uni4a" unicode="&#x4a;" d="M25 1462L731 1462L731 1354L645 1354Q593 1354 566 1327Q539 1300 539 1221L539-4Q539-97 518-169Q477-311 372-388Q319-426 260-448Q199-471 131.50-481.50Q64-492-6-492L-80-492L-80-373L-43-373Q6-373 52.50-354.50Q99-336 135-293Q171-250 193-179.50Q215-109 215-6L215 1229Q215 1302 188.50 1328Q162 1354 111 1354L25 1354L25 1462Z"  horiz-adv-x="754" vert-adv-y="2048"  />

      
      <glyph glyph-name="uni4b" unicode="&#x4b;" d="M571 1221L571 743L889 1090Q946 1150 976 1199Q1006 1248 1006 1296Q1006 1330 980 1343Q954 1356 891 1356L891 1462L1446 1462L1446 1356Q1361 1356 1290 1304.50Q1219 1253 1151 1176L881 879L1262 274Q1316 187 1369 148Q1422 109 1495 109L1503 109L1503 0L1393 0Q1354 0 1319.50 1.50Q1285 3 1256 5Q1139 15 1076 46Q1029 69 997.50 105.50Q966 142 938 188L662 659L571 588L571 242Q571 163 598.50 136Q626 109 678 109L764 109L764 0L57 0L57 109L143 109Q196 109 222 133.50Q248 158 248 231L248 1229Q248 1302 221.50 1328Q195 1354 143 1354L57 1354L57 1462L764 1462L764 1354L678 1354Q626 1354 598.50 1327Q571 1300 571 1221Z"  horiz-adv-x="1503" vert-adv-y="2048"  />

      
      <glyph glyph-name="uni4c" unicode="&#x4c;" d="M1272 457L1257 0L57 0L57 109L143 109Q196 109 222 136.50Q248 164 248 242L248 1221Q248 1299 222 1326.50Q196 1354 143 1354L57 1354L57 1462L764 1462L764 1354L678 1354Q628 1354 600.50 1328.50Q573 1303 573 1229L573 125L954 125Q1026 125 1066 170.50Q1106 216 1124 303L1157 457L1272 457Z"  horiz-adv-x="1339" vert-adv-y="2048"  />

      
      <glyph glyph-name="uni4d" unicode="&#x4d;" d="M1892 109L1892 0L1237 0L1237 109L1257 109Q1325 109 1355.50 130Q1386 151 1386 223L1386 1260L973 0L834 0L401 1260L401 242Q401 158 439 133.50Q477 109 553 109L565 109L565 0L57 0L57 109L143 109Q196 109 222 133.50Q248 158 248 231L248 1229Q248 1302 221.50 1328Q195 1354 143 1354L57 1354L57 1462L647 1462L987 473L1313 1462L1892 1462L1892 1354L1806 1354Q1754 1354 1728 1326.50Q1702 1299 1702 1221L1702 242Q1702 164 1728 136.50Q1754 109 1806 109L1892 109Z"  horiz-adv-x="1950" vert-adv-y="2048"  />

      
      <glyph glyph-name="uni4e" unicode="&#x4e;" d="M1389 1221L1389 0L1200 0L401 1128L401 242Q401 164 428 136.50Q455 109 506 109L592 109L592 0L57 0L57 109L143 109Q196 109 222 136.50Q248 164 248 242L248 1229Q248 1302 220.50 1328Q193 1354 143 1354L57 1354L57 1462L512 1462L1235 440L1235 1229Q1235 1302 1207.50 1328Q1180 1354 1130 1354L1044 1354L1044 1462L1579 1462L1579 1354L1493 1354Q1441 1354 1415 1326.50Q1389 1299 1389 1221Z"  horiz-adv-x="1614" vert-adv-y="2048"  />

      
      <glyph glyph-name="uni4f" unicode="&#x4f;" d="M1499 733Q1499 564 1454 425Q1409 286 1320 187Q1232 88 1103 34Q974-20 807-20Q632-20 501.50 34Q371 88 285 187Q199 286 156 425.50Q113 565 113 735Q113 905 156 1043.50Q199 1182 286 1280Q372 1378 502.50 1431.50Q633 1485 809 1485Q975 1485 1103.50 1431.50Q1232 1378 1320 1280Q1499 1078 1499 733M457 733Q457 586 476 471.50Q495 357 537 277Q579 198 645.50 155.50Q712 113 807 113Q903 113 969.50 155.50Q1036 198 1077 277Q1118 357 1136.50 471.50Q1155 586 1155 733Q1155 880 1136.50 995.50Q1118 1111 1077 1190Q1036 1270 970 1311Q904 1352 809 1352Q623 1352 537 1190Q495 1111 476 995.50Q457 880 457 733Z"  horiz-adv-x="1612" vert-adv-y="2048"  />

      
      <glyph glyph-name="uni50" unicode="&#x50;" d="M1245 1028Q1245 936 1213 851Q1181 766 1109 701Q1037 636 922 597.50Q807 559 641 559L571 559L571 231Q571 158 599.50 133.50Q628 109 680 109L805 109L805 0L57 0L57 109L143 109Q196 109 222 136.50Q248 164 248 242L248 1229Q248 1302 221.50 1328Q195 1354 143 1354L57 1354L57 1462L686 1462Q828 1462 933 1432Q1038 1402 1108 1346Q1245 1233 1245 1028M651 1341L571 1341L571 678L621 678Q772 678 837 757Q901 837 901 1020Q901 1187 845 1263Q785 1341 651 1341Z"  horiz-adv-x="1307" vert-adv-y="2048"  />

      
      <glyph glyph-name="uni51" unicode="&#x51;" d="M1499 733Q1499 442 1371 252Q1308 158 1215 93.50Q1122 29 1001 0Q1010-113 1038.50-185.50Q1067-258 1107-300Q1148-341 1196.50-357Q1245-373 1296-373L1329-373L1329-492L1182-492Q1090-492 1000.50-465Q911-438 839-380Q766-321 717.50-229.50Q669-138 659-8Q521 13 418.50 75.50Q316 138 248 234Q180 330 146.50 457Q113 584 113 735Q113 905 156 1043.50Q199 1182 286 1280Q372 1378 502.50 1431.50Q633 1485 809 1485Q975 1485 1103.50 1431.50Q1232 1378 1320 1280Q1499 1078 1499 733M457 733Q457 586 476 471.50Q495 357 537 277Q579 198 645.50 155.50Q712 113 807 113Q903 113 969.50 155.50Q1036 198 1077 277Q1118 357 1136.50 471.50Q1155 586 1155 733Q1155 880 1136.50 995.50Q1118 1111 1077 1190Q1036 1270 970 1311Q904 1352 809 1352Q623 1352 537 1190Q495 1111 476 995.50Q457 880 457 733Z"  horiz-adv-x="1612" vert-adv-y="2048"  />

      
      <glyph glyph-name="uni52" unicode="&#x52;" d="M764 0L57 0L57 109L143 109Q193 109 220.50 134Q248 159 248 231L248 1229Q248 1302 220.50 1328Q193 1354 143 1354L57 1354L57 1462L717 1462Q1007 1462 1142.50 1365Q1278 1268 1278 1083Q1278 1002 1254 939Q1230 876 1191 829Q1151 782 1101 749.50Q1051 717 999 696L1243 276Q1290 197 1338 153Q1386 109 1448 109L1456 109L1456 0L1389 0Q1297 0 1228.50 7Q1160 14 1109 35Q1057 55 1019.50 91Q982 127 950 184L707 635L571 635L571 231Q571 159 598.50 134Q626 109 676 109L764 109L764 0M682 1341L571 1341L571 754L686 754Q823 754 881 830Q910 868 922 924Q934 980 934 1055Q934 1209 876 1276Q819 1341 682 1341Z"  horiz-adv-x="1448" vert-adv-y="2048"  />

      
      <glyph glyph-name="uni53" unicode="&#x53;" d="M541-20Q403-20 311.50 6Q220 32 164 73Q109 114 85 165Q61 216 61 266Q61 367 130 412Q199 457 293 457Q293 369 314 302.50Q335 236 372 192Q446 102 573 102Q688 102 757.50 164Q827 226 827 324Q827 423 743 492Q700 527 635.50 558Q571 589 485 625Q272 713 186 816Q141 870 121.50 933Q102 996 102 1071Q102 1165 140 1241Q178 1317 245 1371Q383 1483 604 1483Q717 1483 799 1464.50Q881 1446 935 1414Q1040 1350 1040 1245Q1040 1166 972 1120.50Q904 1075 788 1075Q788 1139 765 1204.50Q742 1270 694 1314Q646 1358 571 1358Q486 1358 427.50 1309Q369 1260 369 1169Q369 1126 383.50 1088Q398 1050 435 1014Q473 977 538 940.50Q603 904 707 862Q914 778 1008 678Q1055 626 1076.50 564.50Q1098 503 1098 428Q1098 228 947 105Q874 46 771.50 13Q669-20 541-20Z"  horiz-adv-x="1200" vert-adv-y="2048"  />

      
      <glyph glyph-name="uni54" unicode="&#x54;" d="M995 1337L831 1337L831 242Q831 164 857.50 136.50Q884 109 936 109L1022 109L1022 0L315 0L315 109L401 109Q454 109 480 136.50Q506 164 506 242L506 1337L342 1337Q254 1337 217 1301Q180 1265 172 1192L158 1065L20 1065L31 1462L1307 1462L1317 1065L1180 1065L1165 1192Q1157 1265 1120.50 1301Q1084 1337 995 1337Z"  horiz-adv-x="1337" vert-adv-y="2048"  />

      
      <glyph glyph-name="uni55" unicode="&#x55;" d="M961 1462L1497 1462L1497 1354L1409 1354Q1357 1354 1331 1326.50Q1305 1299 1305 1221L1305 422Q1305 319 1275.50 237Q1246 155 1184 98Q1121 41 1024 10.50Q927-20 793-20Q659-20 553.50 5.50Q448 31 375 87Q302 143 263.50 231.50Q225 320 225 446L225 1229Q225 1301 198 1327.50Q171 1354 121 1354L33 1354L33 1462L739 1462L739 1354L653 1354Q601 1354 575 1326.50Q549 1299 549 1221L549 430Q549 344 570.50 285.50Q592 227 632 192Q672 156 728 140.50Q784 125 854 125Q995 125 1071 197Q1151 274 1151 426L1151 1229Q1151 1302 1124.50 1328Q1098 1354 1047 1354L961 1354L961 1462Z"  horiz-adv-x="1530" vert-adv-y="2048"  />

      
      <glyph glyph-name="uni56" unicode="&#x56;" d="M901 1462L1430 1462L1430 1354L1331 1354Q1298 1354 1278.50 1317Q1259 1280 1233 1204L815 0L610 0L174 1255Q156 1308 120 1331Q84 1354 47 1354L0 1354L0 1462L676 1462L676 1354L582 1354Q551 1354 526.50 1338Q502 1322 502 1286Q502 1266 508 1240.50Q514 1215 520 1198L729 567Q739 540 750.50 493.50Q762 447 772.50 399.50Q783 352 786 319Q790 343 802.50 388Q815 433 829.50 480.50Q844 528 854 561L1065 1184Q1072 1203 1081 1235.50Q1090 1268 1090 1284Q1090 1318 1067.50 1336Q1045 1354 1008 1354L901 1354L901 1462Z"  horiz-adv-x="1430" vert-adv-y="2048"  />

      
      <glyph glyph-name="uni57" unicode="&#x57;" d="M817 571L1087 1448L1237 1448L1520 666Q1539 615 1560 547.50Q1581 480 1597.50 419Q1614 358 1620 326Q1627 357 1637.50 410Q1648 463 1657 503Q1668 553 1679 604.50Q1690 656 1702 705L1810 1147Q1815 1170 1822 1205.50Q1829 1241 1829 1257Q1829 1310 1797.50 1332Q1766 1354 1698 1354L1651 1354L1651 1462L2185 1462L2185 1354L2146 1354Q2079 1354 2048 1320Q2017 1286 1991 1194L1673 0L1440 0L1096 961L801 0L547 0L172 1245Q155 1307 120.50 1330.50Q86 1354 27 1354L0 1354L0 1462L684 1462L684 1354L637 1354Q514 1354 514 1255Q514 1238 520.50 1205.50Q527 1173 535 1145L672 672Q685 626 702 562Q719 498 733 435Q747 372 752 330Q766 396 782.50 453.50Q799 511 817 571Z"  horiz-adv-x="2185" vert-adv-y="2048"  />

      
      <glyph glyph-name="uni58" unicode="&#x58;" d="M1071 1294Q1071 1332 1037 1343Q1003 1354 956 1354L950 1354L950 1462L1430 1462L1430 1354L1411 1354Q1347 1354 1304 1317.50Q1261 1281 1208 1206L911 801L1288 217Q1328 154 1371 131.50Q1414 109 1452 109L1479 109L1479 0L803 0L803 109L813 109Q936 109 936 176Q936 203 921 233Q906 263 868 317L680 602L459 303Q440 277 423 243.50Q406 210 406 178Q406 144 434 126.50Q462 109 530 109L537 109L537 0L20 0L20 109L33 109Q105 109 151 148.50Q197 188 246 252L604 719L266 1245Q232 1300 195 1327Q158 1354 90 1354L63 1354L63 1462L741 1462L741 1354L735 1354Q614 1354 614 1294Q614 1273 629.50 1241Q645 1209 668 1174L838 920L1016 1169Q1034 1197 1052.50 1231.50Q1071 1266 1071 1294Z"  horiz-adv-x="1499" vert-adv-y="2048"  />

      
      <glyph glyph-name="uni59" unicode="&#x59;" d="M1092 109L1092 0L336 0L336 109L432 109Q490 109 520.50 131.50Q551 154 551 233L551 518L172 1245Q143 1303 115 1328.50Q87 1354 27 1354L0 1354L0 1462L686 1462L686 1354L651 1354Q589 1354 558.50 1329Q528 1304 528 1262Q528 1236 537.50 1205.50Q547 1175 559 1149L711 848Q743 783 763.50 733Q784 683 801 635Q822 689 849.50 752.50Q877 816 911 885L1030 1130Q1052 1175 1058.50 1205.50Q1065 1236 1065 1253Q1065 1354 930 1354L883 1354L883 1462L1419 1462L1419 1354L1380 1354Q1323 1354 1295 1316Q1267 1278 1225 1194L877 516L877 236Q877 155 906.50 132Q936 109 991 109L1092 109Z"  horiz-adv-x="1419" vert-adv-y="2048"  />

      
      <glyph glyph-name="uni5a" unicode="&#x5a;" d="M135 1462L1229 1462L1229 1358L459 125L901 125Q1017 125 1062 183Q1107 241 1116 330L1126 422L1274 422L1264 0L86 0L86 102L854 1337L451 1337Q357 1337 324 1288.50Q291 1240 283 1151L272 1040L125 1040L135 1462Z"  horiz-adv-x="1364" vert-adv-y="2048"  />

      
      <glyph glyph-name="uni61" unicode="&#x61;" d="M592 999Q512 999 483.50 935.50Q455 872 455 778Q317 778 247.50 809Q178 840 178 915Q178 971 211.50 1011Q245 1051 303 1076Q360 1101 436.50 1112.50Q513 1124 600 1124Q708 1124 788.50 1105.50Q869 1087 923 1046Q1030 963 1030 776L1030 254Q1030 173 1056.50 141Q1083 109 1153 109L1161 109L1161 0L780 0L737 141L719 141Q672 85 631.50 49Q591 13 541-3.50Q491-20 414-20Q346-20 288 0Q230 20 186 62Q143 103 117.50 165.50Q92 228 92 313Q92 480 206.50 560Q321 640 551 647L719 653L719 766Q719 868 698 933.50Q677 999 592 999M410 305Q410 129 526 129Q618 129 668.50 203Q719 277 719 391L719 545L627 539Q508 533 459 475.50Q410 418 410 305Z"  horiz-adv-x="1227" vert-adv-y="2048"  />

      
      <glyph glyph-name="uni62" unicode="&#x62;" d="M1233 553Q1233 404 1205.50 296.50Q1178 189 1125 118Q1021-20 813-20Q701-20 624 28Q547 76 500 160L481 160L424 0L35 0L35 109L49 109Q116 109 160.50 137.50Q205 166 205 252L205 1311Q205 1394 159.50 1421Q114 1448 43 1448L35 1448L35 1556L516 1556L516 1206Q516 1174 513.50 1131Q511 1088 508 1050Q506 1028 504 1004.50Q502 981 500 958L514 958Q558 1034 631.50 1078Q705 1122 821 1122Q1024 1122 1127 986Q1233 845 1233 553M725 971Q608 971 560 868Q536 816 526 737.50Q516 659 516 553Q516 452 526 373.50Q536 295 560 242Q608 133 727 133Q828 133 873 242Q918 352 918 555Q918 765 873 868Q828 971 725 971Z"  horiz-adv-x="1329" vert-adv-y="2048"  />

      
      <glyph glyph-name="uni63" unicode="&#x63;" d="M604-20Q491-20 397.50 9Q304 38 237 105Q170 172 133 280Q96 388 96 545Q96 711 135 822Q174 933 241 1000Q309 1067 400.50 1095.50Q492 1124 598 1124Q697 1124 773 1107.50Q849 1091 900 1062Q1004 1002 1004 909Q1004 876 992.50 844.50Q981 813 952 789Q922 765 870.50 750Q819 735 739 735Q739 803 727.50 863.50Q716 924 687.50 961.50Q659 999 606 999Q561 999 526 977.50Q491 956 465 904Q440 852 426 765Q412 678 412 547Q412 339 469 236Q526 133 655 133Q757 133 835.50 178.50Q914 224 952 299Q977 284 989 258.50Q1001 233 1001 205Q1001 166 978 126Q955 86 907 54Q858 21 783 0.50Q708-20 604-20Z"  horiz-adv-x="1079" vert-adv-y="2048"  />

      
      <glyph glyph-name="uni64" unicode="&#x64;" d="M629 1556L1122 1556L1122 252Q1122 164 1169.50 136.50Q1217 109 1292 109L1300 109L1300 0L903 0L846 160L827 160Q780 73 703.50 26.50Q627-20 512-20Q308-20 203 117Q94 256 94 547Q94 840 202 983Q307 1122 508 1122Q615 1122 692 1078Q769 1034 813 958L827 958Q825 987 823 1013.50Q821 1040 819 1065Q818 1100 814.50 1145Q811 1190 811 1208L811 1321Q811 1402 765 1425Q719 1448 645 1448L629 1448L629 1556M600 133Q718 133 767 236Q791 288 801 366.50Q811 445 811 551Q811 652 801 730.50Q791 809 767 863Q717 971 600 971Q499 971 454 862Q410 756 410 549Q410 342 454 237Q498 133 600 133Z"  horiz-adv-x="1329" vert-adv-y="2048"  />

      
      <glyph glyph-name="uni65" unicode="&#x65;" d="M627-20Q368-20 231 128Q96 274 96 543Q96 830 229 978Q360 1124 604 1124Q830 1124 955 999Q1017 937 1050 845Q1083 753 1083 631L1083 526L412 526Q415 423 435 349Q455 275 489 227Q557 133 686 133Q787 133 862 178.50Q937 224 975 299Q1030 269 1030 199Q1030 155 1006 115.50Q982 76 932 46Q882 16 806.50-2Q731-20 627-20M608 991Q522 991 471.50 906Q421 821 416 657L770 657Q770 735 761.50 797Q753 859 733 902Q692 991 608 991Z"  horiz-adv-x="1169" vert-adv-y="2048"  />

      
      <glyph glyph-name="uni66" unicode="&#x66;" d="M782 109L782 0L39 0L39 109L84 109Q139 109 184 136Q229 163 229 242L229 958L47 958L47 1098L229 1098L229 1174Q229 1369 330 1470Q435 1575 647 1575Q746 1575 812 1563.50Q878 1552 917 1532Q956 1511 972.50 1484Q989 1457 989 1425Q989 1292 737 1292Q737 1328 727 1366.50Q717 1405 694.50 1431.50Q672 1458 635 1458Q577 1458 559 1391.50Q541 1325 541 1210L541 1098L823 1098L823 958L541 958L541 242Q541 163 586 136Q631 109 686 109L782 109Z"  horiz-adv-x="834" vert-adv-y="2048"  />

      
      <glyph glyph-name="uni67" unicode="&#x67;" d="M1137 1059Q1137 1005 1102.50 973.50Q1068 942 991 942Q991 982 968 1005Q945 1028 913 1028Q896 1028 876.50 1021Q857 1014 846 1006Q888 960 917 888Q946 816 946 745Q946 668 921.50 602.50Q897 537 846 489Q795 441 717 414Q639 387 532 387Q507 387 467.50 389.50Q428 392 414 393Q386 378 363 351Q340 324 340 289Q340 255 366.50 239Q393 223 436 223L684 223Q786 223 860 201.50Q934 180 983 140Q1031 100 1054 41.50Q1077-17 1077-90Q1077-284 932-386Q859-437 747-464.50Q635-492 483-492Q4-492 4-207Q4-97 75-38.50Q146 20 281 31Q222 54 176.50 98.50Q131 143 131 213Q131 283 184.50 334Q238 385 313 428Q219 462 161.50 544.50Q104 627 104 745Q104 925 208.50 1024.50Q313 1124 532 1124Q605 1124 667.50 1105.50Q730 1087 776 1061Q816 1104 864.50 1140Q913 1176 989 1176Q1057 1176 1097 1143Q1137 1110 1137 1059M383 745Q383 643 413.50 575.50Q444 508 526 508Q610 508 638 575Q666 642 666 748Q666 855 637 928Q608 1001 524 1001Q442 1001 412.50 926.50Q383 852 383 745M246-203Q246-369 487-369Q667-369 749-317Q831-265 831-164Q831-99 790-73Q749-47 666-47L428-47Q356-47 301-78.50Q246-110 246-203Z"  horiz-adv-x="1147" vert-adv-y="2048"  />

      
      <glyph glyph-name="uni68" unicode="&#x68;" d="M1313 109L1313 0L858 0L858 674Q858 798 823.50 874Q789 950 694 950Q626 950 587 905Q548 860 532 787.50Q516 715 516 633L516 242Q516 160 554 134.50Q592 109 664 109L670 109L670 0L41 0L41 109L45 109Q121 109 163 135.50Q205 162 205 250L205 1323Q205 1398 159 1423Q113 1448 59 1448L35 1448L35 1556L516 1556L516 1219Q516 1179 513.50 1133Q511 1087 508 1048Q506 1025 504 1002.50Q502 980 500 958L518 958Q577 1068 651.50 1096Q726 1124 831 1124Q910 1124 973.50 1101Q1037 1078 1080 1030Q1124 982 1146.50 907.50Q1169 833 1169 729L1169 254Q1169 165 1200.50 137Q1232 109 1307 109L1313 109Z"  horiz-adv-x="1366" vert-adv-y="2048"  />

      
      <glyph glyph-name="uni69" unicode="&#x69;" d="M176 1430Q176 1506 225.50 1541.50Q275 1577 350 1577Q423 1577 474.50 1541.50Q526 1506 526 1430Q526 1356 474 1319Q422 1282 350 1282Q275 1282 225.50 1319Q176 1356 176 1430M35 0L35 109L59 109Q115 109 160 136Q205 163 205 242L205 864Q205 939 159 964Q113 989 59 989L35 989L35 1098L516 1098L516 242Q516 163 561.50 136Q607 109 662 109L686 109L686 0L35 0Z"  horiz-adv-x="721" vert-adv-y="2048"  />

      
      <glyph glyph-name="uni6a" unicode="&#x6a;" d="M178 1430Q178 1506 227.50 1541.50Q277 1577 352 1577Q425 1577 476.50 1541.50Q528 1506 528 1430Q528 1356 476 1319Q424 1282 352 1282Q277 1282 227.50 1319Q178 1356 178 1430M35 989L35 1098L516 1098L516-16Q516-154 477.50-245.50Q439-337 371-392Q302-446 207.50-469Q113-492 0-492L-41-492L-41-365L-27-365Q29-365 72.50-347Q116-329 146-287Q175-245 190-175Q205-105 205 0L205 854Q205 938 159.50 963.50Q114 989 41 989L35 989Z"  horiz-adv-x="707" vert-adv-y="2048"  />

      
      <glyph glyph-name="uni6b" unicode="&#x6b;" d="M1296 109L1303 109L1303 0L1274 0Q1162 0 1086 5Q1010 10 955 28Q900 46 860 82.50Q820 119 780 182L598 469L516 408L516 242Q516 163 561.50 136Q607 109 662 109L686 109L686 0L35 0L35 109L59 109Q115 109 160 136Q205 163 205 242L205 1323Q205 1398 159 1423Q113 1448 59 1448L35 1448L35 1556L516 1556L516 766Q516 705 511 632Q510 613 508.50 593Q507 573 506 553L764 842Q798 878 809 903Q819 924 819 940Q819 995 713 995L713 1098L1229 1098L1229 995Q1158 995 1089.50 953.50Q1021 912 940 821L811 674L1083 268Q1137 187 1192 148Q1247 109 1296 109Z"  horiz-adv-x="1303" vert-adv-y="2048"  />

      
      <glyph glyph-name="uni6c" unicode="&#x6c;" d="M35 0L35 109L59 109Q115 109 160 136Q205 163 205 242L205 1323Q205 1398 159 1423Q113 1448 59 1448L35 1448L35 1556L516 1556L516 242Q516 163 561.50 136Q607 109 662 109L686 109L686 0L35 0Z"  horiz-adv-x="721" vert-adv-y="2048"  />

      
      <glyph glyph-name="uni6d" unicode="&#x6d;" d="M1313 109L1313 0L858 0L858 674Q858 798 823.50 874Q789 950 694 950Q626 950 587 905Q548 860 532 787.50Q516 715 516 633L516 242Q516 160 554 134.50Q592 109 664 109L670 109L670 0L41 0L41 109L45 109Q121 109 163 135.50Q205 162 205 250L205 862Q205 945 167 970Q129 995 57 995L51 995L51 1098L481 1098L508 952L518 952Q577 1062 651.50 1093Q726 1124 831 1124Q944 1124 1024 1083.50Q1104 1043 1141 952L1159 952Q1218 1063 1298.50 1093.50Q1379 1124 1485 1124Q1564 1124 1627.50 1101Q1691 1078 1734 1030Q1778 982 1800.50 907.50Q1823 833 1823 729L1823 254Q1823 165 1854.50 137Q1886 109 1960 109L1966 109L1966 0L1511 0L1511 674Q1511 806 1474.50 878Q1438 950 1348 950Q1283 950 1243.50 909Q1204 868 1186.50 801.50Q1169 735 1169 657L1169 254Q1169 165 1200.50 137Q1232 109 1307 109L1313 109Z"  horiz-adv-x="2019" vert-adv-y="2048"  />

      
      <glyph glyph-name="uni6e" unicode="&#x6e;" d="M1313 109L1313 0L858 0L858 674Q858 798 823.50 874Q789 950 694 950Q626 950 587 905Q548 860 532 787.50Q516 715 516 633L516 242Q516 160 554 134.50Q592 109 664 109L670 109L670 0L41 0L41 109L45 109Q121 109 163 135.50Q205 162 205 250L205 856Q205 939 167 964Q129 989 57 989L51 989L51 1098L481 1098L508 952L518 952Q577 1062 651.50 1093Q726 1124 831 1124Q910 1124 973.50 1101Q1037 1078 1080 1030Q1124 982 1146.50 907.50Q1169 833 1169 729L1169 254Q1169 165 1200.50 137Q1232 109 1307 109L1313 109Z"  horiz-adv-x="1366" vert-adv-y="2048"  />

      
      <glyph glyph-name="uni6f" unicode="&#x6f;" d="M1159 553Q1159 264 1023.50 122Q888-20 625-20Q374-20 238 122Q169 193 132.50 301Q96 409 96 553Q96 842 231.50 983Q367 1124 631 1124Q881 1124 1018 983Q1086 912 1122.50 804.50Q1159 697 1159 553M414 553Q414 444 426 361Q438 278 463 222Q514 109 629 109Q744 109 795 222Q821 278 831.50 361Q842 444 842 553Q842 663 831 745.50Q820 828 794 883Q743 993 627 993Q511 993 461 883Q436 828 425 745.50Q414 663 414 553Z"  horiz-adv-x="1255" vert-adv-y="2048"  />

      
      <glyph glyph-name="uni70" unicode="&#x70;" d="M27-492L27-383L51-383Q107-383 152-356Q197-329 197-250L197 846Q197 932 161.50 960.50Q126 989 59 989L45 989L45 1098L446 1098L483 938L492 938Q539 1022 616 1070Q693 1118 805 1118Q907 1118 985.50 1085Q1064 1052 1117 981Q1225 838 1225 545Q1225 253 1119 112Q1016-25 813-25Q696-25 623 19.50Q550 64 506 139L492 139Q494 116 496 93Q498 70 500 47Q503 9 505.50-34Q508-77 508-109L508-250Q508-329 553-356Q598-383 653-383L698-383L698-492L27-492M717 127Q820 127 865 231Q909 336 909 543Q909 745 865 856Q820 965 719 965Q601 965 552 857Q528 803 518 724.50Q508 646 508 545Q508 439 518 360.50Q528 282 552 230Q600 127 717 127Z"  horiz-adv-x="1321" vert-adv-y="2048"  />

      
      <glyph glyph-name="uni71" unicode="&#x71;" d="M1325-383L1325-492L608-492L608-383L645-383Q719-383 765-360Q811-337 811-256L811-106Q811-87 814.50-43Q818 1 819 36Q821 61 823 87.50Q825 114 827 143L813 143Q768 69 692 24.50Q616-20 508-20Q307-20 202 117Q94 258 94 551Q94 841 203 982Q308 1118 512 1118Q627 1118 703.50 1071.50Q780 1025 827 938L846 938L887 1098L1300 1098L1300 989L1292 989Q1217 989 1169.50 961.50Q1122 934 1122 846L1122-256Q1122-337 1168.50-360Q1215-383 1288-383L1325-383M600 965Q497 965 454 862Q410 757 410 549Q410 346 454 238Q498 131 600 131Q717 131 767 238Q791 291 801 368Q811 445 811 547Q811 653 801 731.50Q791 810 767 862Q718 965 600 965Z"  horiz-adv-x="1327" vert-adv-y="2048"  />

      
      <glyph glyph-name="uni72" unicode="&#x72;" d="M659 109L725 109L725 0L41 0L41 109L47 109Q124 109 164.50 137.50Q205 166 205 256L205 850Q205 936 167.50 962.50Q130 989 57 989L51 989L51 1098L465 1098L506 938L516 938Q558 1035 621 1078.50Q684 1122 805 1122Q1040 1122 1040 956Q1040 862 972 810Q904 758 780 758Q780 837 761 882.50Q742 928 680 928Q628 928 595 889.50Q562 851 545 799Q533 763 527 727Q520 690 518 657Q516 624 516 600L516 246Q516 161 553 135Q590 109 659 109Z"  horiz-adv-x="1071" vert-adv-y="2048"  />

      
      <glyph glyph-name="uni73" unicode="&#x73;" d="M473-20Q362-20 284-2Q206 16 156 48Q107 80 84 124Q61 168 61 219Q61 280 90 314Q119 348 163 361.50Q207 375 252 375Q252 253 311 176.50Q370 100 473 100Q568 100 622 138Q676 176 676 240Q676 307 622 351Q567 395 424 444Q341 473 278 505.50Q215 538 171 580Q82 664 82 797Q82 879 113.50 940.50Q145 1002 203 1042Q261 1083 342 1102.50Q423 1122 522 1122Q619 1122 687 1105.50Q755 1089 798 1062Q841 1035 861 1001Q881 967 881 932Q881 863 832.50 827Q784 791 672 791Q672 893 626.50 949.50Q581 1006 492 1006Q425 1006 375.50 974Q326 942 326 879Q326 846 339 820Q352 794 383 771Q415 747 468.50 723Q522 699 606 670Q674 646 731.50 615.50Q789 585 831 546Q872 506 895 455.50Q918 405 918 340Q918 168 802 75Q684-20 473-20Z"  horiz-adv-x="999" vert-adv-y="2048"  />

      
      <glyph glyph-name="uni74" unicode="&#x74;" d="M643 145Q683 145 719.50 150.50Q756 156 788 164L788 31Q748 12 668.50-4Q589-20 498-20Q429-20 373-3.50Q317 13 278 52Q239 90 218 151.50Q197 213 197 303L197 958L43 958L43 1063Q109 1063 161 1089Q213 1115 244 1149Q306 1214 338 1352L508 1352L508 1098L770 1098L770 958L508 958L508 324Q508 231 539.50 188Q571 145 643 145Z"  horiz-adv-x="829" vert-adv-y="2048"  />

      
      <glyph glyph-name="uni75" unicode="&#x75;" d="M1315 109L1315 0L907 0L862 145L852 145Q793 43 712.50 11.50Q632-20 528-20Q368-20 282.50 79Q197 178 197 385L197 844Q197 930 165.50 959.50Q134 989 57 989L53 989L53 1098L508 1098L508 442Q508 318 539.50 236Q571 154 664 154Q760 154 807 238Q830 279 840 336Q850 393 850 465L850 858Q850 943 810 966Q770 989 702 989L696 989L696 1098L1161 1098L1161 238Q1161 155 1196 132Q1231 109 1298 109L1315 109Z"  horiz-adv-x="1366" vert-adv-y="2048"  />

      
      <glyph glyph-name="uni76" unicode="&#x76;" d="M791 1098L1241 1098L1241 989L1200 989Q1150 989 1124 956.50Q1098 924 1067 840L770 0L500 0L164 891Q142 950 104 969.50Q66 989 0 989L0 1098L635 1098L635 989L549 989Q481 989 481 924Q481 899 487.50 875Q494 851 500 834L637 446Q662 381 680.50 315Q699 249 709 197Q714 219 726 262.50Q738 306 750.50 347.50Q763 389 768 406L907 817Q917 845 923.50 873.50Q930 902 930 930Q930 964 907.50 976.50Q885 989 850 989L791 989L791 1098Z"  horiz-adv-x="1241" vert-adv-y="2048"  />

      
      <glyph glyph-name="uni77" unicode="&#x77;" d="M670 504L879 1087L1012 1087L1212 483Q1237 409 1248 357.50Q1259 306 1266 268L1272 268Q1281 315 1294 369.50Q1307 424 1327 487L1417 786Q1436 846 1436 889Q1436 989 1300 989L1286 989L1286 1098L1755 1098L1755 989L1729 989Q1663 989 1633.50 955Q1604 921 1575 829L1311 0L1090 0L866 680L631 0L408 0L145 881Q124 943 92.50 966Q61 989 0 989L-6 989L-6 1098L594 1098L594 989L567 989Q505 989 474.50 971.50Q444 954 444 903Q444 886 449.50 862Q455 838 461 815L537 549Q548 509 560.50 454.50Q573 400 583.50 349.50Q594 299 598 268L604 268Q620 361 670 504Z"  horiz-adv-x="1753" vert-adv-y="2048"  />

      
      <glyph glyph-name="uni78" unicode="&#x78;" d="M891 928Q891 965 862.50 977Q834 989 786 989L780 989L780 1098L1253 1098L1253 989L1235 989Q1170 989 1128.50 959.50Q1087 930 1028 858L817 600L1118 217Q1165 158 1204.50 133.50Q1244 109 1282 109L1309 109L1309 0L657 0L657 109L668 109Q791 109 791 176Q791 204 772.50 236Q754 268 713 317L596 459L453 281Q434 256 422 230Q410 204 410 178Q410 144 439 126.50Q468 109 537 109L543 109L543 0L23 0L23 109L41 109Q117 109 161.50 139.50Q206 170 264 240L522 551L264 881Q179 989 88 989L61 989L61 1098L705 1098L705 989L698 989Q582 989 582 930Q582 894 629 836L743 696L840 813Q864 844 877.50 872Q891 900 891 928Z"  horiz-adv-x="1323" vert-adv-y="2048"  />

      
      <glyph glyph-name="uni79" unicode="&#x79;" d="M725 989L725 1098L1186 1098L1186 989Q1120 989 1086 954.50Q1052 920 1022 840Q986 738 947 632.50Q908 527 869 420Q848 363 819 286Q790 209 761.50 132.50Q733 56 713 0Q695-49 678-92.50Q661-136 645-174Q613-249 577.50-304Q542-359 499-395Q456-430 399-453Q342-474 266.50-483Q191-492 90-492L55-492L55-373Q162-373 237-347Q312-321 364-273Q416-225 449.50-158Q483-91 508-10L139 891Q117 946 83 961.50Q49 977 0 977L0 1098L584 1098L584 989Q524 989 489.50 973.50Q455 958 455 913Q455 896 462 872.50Q469 849 475 834Q495 786 522.50 714Q550 642 575.50 571.50Q601 501 616 459Q641 395 655.50 338Q670 281 674 242Q678 280 693 328.50Q708 377 719 406L854 807Q862 825 868 857.50Q874 890 874 907Q874 954 835 971.50Q796 989 725 989Z"  horiz-adv-x="1186" vert-adv-y="2048"  />

      
      <glyph glyph-name="uni7a" unicode="&#x7a;" d="M999 1010L393 139L754 139Q819 139 846 180Q873 221 889 305L901 371L1022 371L1012 0L37 0L37 84L641 958L342 958Q291 958 268 924.50Q245 891 225 815L213 766L90 766L115 1098L999 1098L999 1010Z"  horiz-adv-x="1083" vert-adv-y="2048"  />

      
      <glyph glyph-name="uni1780" unicode="&#x1780;" d="M290 923Q251 923 207 946.50Q163 970 131.50 1009.50Q100 1049 100 1095Q154 1186 228 1243Q302 1300 365 1300Q509 1300 649 1199Q765 1300 835 1300Q900 1300 981 1231Q1060 1161 1090 1161Q1133 1161 1150 1178Q1150 1106 1120.50 1051.50Q1091 997 1042 997Q912 997 763 1126Q702 1126 631 1012Q355 1137 319 1137Q282 1137 265 1090Q307 1013 352 1013Q373 1013 390 1017Q348 923 290 923M430 650L430 0L180 0L180 650Q180 950 625 950Q1070 950 1070 650L1070 0L820 0L820 650Q820 790 625 790Q430 790 430 650Z"  horiz-adv-x="1250" vert-adv-y="2048"  />

      
      <glyph glyph-name="uni1781" unicode="&#x1781;" d="M180 347L180 481Q820 806 820 953Q820 1140 625 1140Q430 1140 430 953Q430 918 459 918Q488 918 502 965Q545 947 545 894Q545 760 393 760Q180 760 180 953Q180 1300 625 1300Q1070 1300 1070 953Q1070 736 430 411L430 347Q430 160 625 160Q820 160 820 347L820 520L1070 520L1070 347Q1070 0 625 0Q180 0 180 347Z"  horiz-adv-x="1250" vert-adv-y="2048"  />

      
      <glyph glyph-name="uni1782" unicode="&#x1782;" d="M290 923Q251 923 207 946.50Q163 970 131.50 1009.50Q100 1049 100 1095Q154 1186 228 1243Q302 1300 365 1300Q509 1300 649 1199Q765 1300 835 1300Q900 1300 981 1231Q1060 1161 1090 1161Q1133 1161 1150 1178Q1150 1106 1120.50 1051.50Q1091 997 1042 997Q912 997 763 1126Q702 1126 631 1012Q355 1137 319 1137Q282 1137 265 1090Q307 1013 352 1013Q373 1013 390 1017Q348 923 290 923M430 650L430 371Q492 460 580 460Q720 460 720 305Q720 160 590 160Q590 260 510 260Q467 260 430 184L430 0L180 0L180 650Q180 950 625 950Q1070 950 1070 650L1070 0L820 0L820 650Q820 790 625 790Q430 790 430 650Z"  horiz-adv-x="1250" vert-adv-y="2048"  />

      
      <glyph glyph-name="uni1783" unicode="&#x1783;" d="M1050 806L1050 300Q1050 160 1235 160Q1420 160 1420 300L1420 756Q1420 863 1330 882L1290 1004Q1306 1072 1339.50 1140.50Q1373 1209 1415 1254.50Q1457 1300 1498 1300Q1560 1300 1632 1255Q1704 1210 1734 1210Q1774 1210 1800 1223Q1781 1016 1665 1016Q1590 1016 1511 1074Q1479 1074 1456 991Q1670 933 1670 806L1670 300Q1670 0 1235 0Q1034 0 925 65Q816 0 615 0Q180 0 180 300L180 700Q180 813 245 923Q310 1033 310 1106Q310 1150 266 1150Q220 1150 220 1073Q220 1005 248 965Q235 941 211 941Q171 941 142 959Q80 997 80 1097Q80 1300 286 1300Q520 1300 520 1106Q520 993 475 886Q430 780 430 700L430 300Q430 160 615 160Q800 160 800 300L800 756Q800 863 710 882L670 1004Q686 1072 719.50 1140.50Q753 1209 795 1254.50Q837 1300 878 1300Q940 1300 1012 1255Q1084 1210 1114 1210Q1154 1210 1180 1223Q1161 1016 1045 1016Q970 1016 891 1074Q859 1074 836 991Q1050 933 1050 806Z"  horiz-adv-x="1850" vert-adv-y="2048"  />

      
      <glyph glyph-name="uni1784" unicode="&#x1784;" d="M625 190L400 0L180 0L180 517Q180 562 151 562Q122 562 108 505Q65 523 65 586Q65 740 232 740Q430 740 430 567L430 237L556 332Q590 357 623 357Q660 357 694 329L820 231L820 780Q820 862 758 894Q646 806 510 806Q180 806 180 1086Q180 1180 230 1244Q280 1306 280 1376Q280 1461 130 1461Q130 1560 290 1560Q530 1560 530 1376Q530 1302 480 1234Q430 1166 430 1086Q430 973 510 973Q595 973 665 1022Q590 1078 590 1144Q590 1300 780 1300Q980 1300 980 1144Q980 1057 912 995Q931 988 955 977Q1070 919 1070 780L1070 0L850 0L625 190M797 1144Q797 1186 767 1186Q730 1186 730 1144Q730 1115 777 1086Q797 1114 797 1144Z"  horiz-adv-x="1250" vert-adv-y="2048"  />

      
      <glyph glyph-name="uni1785" unicode="&#x1785;" d="M180 300L180 964Q144 984 122 1019.50Q100 1055 100 1095Q154 1186 228 1243Q302 1300 365 1300Q509 1300 649 1199Q765 1300 835 1300Q900 1300 981 1231Q1060 1161 1090 1161Q1133 1161 1150 1178Q1150 1106 1120.50 1051.50Q1091 997 1042 997Q912 997 763 1126Q702 1126 631 1012Q355 1137 319 1137Q282 1137 265 1090Q307 1013 430 950L430 300Q430 160 625 160Q820 160 820 300L820 687Q820 732 791 732Q772 732 772 699Q772 652 808 625L772 575Q665 625 665 726Q665 900 868 900Q1070 900 1070 687L1070 300Q1070 0 625 0Q180 0 180 300Z"  horiz-adv-x="1250" vert-adv-y="2048"  />

      
      <glyph glyph-name="uni1786" unicode="&#x1786;" d="M430 950L430 453Q680 453 680 217Q680 160 750 160Q820 160 820 217L820 680Q820 740 785 740Q750 740 750 692Q750 617 795 587L755 517Q731 517 696.50 540Q662 563 636 602.50Q610 642 610 692Q610 910 840 910Q1070 910 1070 680L1070 217Q1070 0 750 0Q500 0 500 217Q500 293 430 293L430 173Q430 0 255 0Q80 0 80 286Q80 411 180 445L180 964Q144 984 122 1019.50Q100 1055 100 1095Q154 1186 228 1243Q302 1300 365 1300Q509 1300 649 1199Q765 1300 835 1300Q900 1300 981 1231Q1060 1161 1090 1161Q1133 1161 1150 1178Q1150 1106 1120.50 1051.50Q1091 997 1042 997Q912 997 763 1126Q702 1126 631 1012Q355 1137 319 1137Q282 1137 265 1090Q307 1013 430 950Z"  horiz-adv-x="1250" vert-adv-y="2048"  />

      
      <glyph glyph-name="uni1787" unicode="&#x1787;" d="M694 329L820 231L820 910L1070 910L1070 0L850 0L625 190L400 0L180 0L180 909Q100 965 100 1095Q134 1176 208 1238Q282 1300 385 1300Q498 1300 589 1235Q679 1169 740 1169Q820 1169 820 1260Q820 1424 660 1424Q660 1519 820 1519Q1070 1519 1070 1260Q1070 1009 740 1009Q630 1009 539 1058Q447 1107 385 1107Q301 1096 265 1060Q297 1012 430 963L430 237L556 332Q590 357 623 357Q660 357 694 329Z"  horiz-adv-x="1250" vert-adv-y="2048"  />

      
      <glyph glyph-name="uni1788" unicode="&#x1788;" d="M1420 300L1420 756Q1420 863 1330 882L1290 1004Q1306 1072 1339.50 1140.50Q1373 1209 1415 1254.50Q1457 1300 1498 1300Q1560 1300 1632 1255Q1704 1210 1734 1210Q1774 1210 1800 1223Q1781 1016 1665 1016Q1590 1016 1511 1074Q1479 1074 1456 991Q1670 933 1670 806L1670 300Q1670 160 1840 160Q2010 160 2010 300L2010 756Q2010 863 1920 882L1880 1004Q1896 1072 1929.50 1140.50Q1963 1209 2005 1254.50Q2047 1300 2088 1300Q2150 1300 2222 1255Q2294 1210 2324 1210Q2364 1210 2390 1223Q2371 1016 2255 1016Q2180 1016 2101 1074Q2069 1074 2046 991Q2260 933 2260 806L2260 300Q2260 0 1840 0Q1649 0 1545 62Q1441 0 1250 0Q830 0 830 300L830 1000Q830 1140 630 1140Q430 1140 430 1000L430 230Q430 170 475 170Q530 170 530 268Q530 384 455 433L475 503Q562 503 626 438Q690 373 690 268Q690 0 435 0Q180 0 180 230L180 1000Q180 1300 630 1300Q1080 1300 1080 1000L1080 300Q1080 160 1250 160Q1420 160 1420 300Z"  horiz-adv-x="2440" vert-adv-y="2048"  />

      
      <glyph glyph-name="uni1789" unicode="&#x1789;" d="M1001 1214Q1095 1300 1295 1300Q1710 1300 1710 1000L1710 0L1460 0L1460 1000Q1460 1140 1295 1140Q1070 1140 1070 1000L1070 0L820 0L820 1000Q820 1098 768 1098Q716 1098 667 1004Q650 972 625 972Q600 972 583 1004Q535 1098 483 1098Q430 1098 430 1000L430 230Q430 170 475 170Q530 170 530 268Q530 384 455 433L475 503Q562 503 626 438Q690 373 690 268Q690 0 435 0Q180 0 180 230L180 1000Q180 1082 211 1150Q242 1218 297 1259Q352 1300 424 1300Q532 1300 625 1176Q719 1300 828 1300Q933 1300 1001 1214M1481-50Q1710-50 1710-270Q1710-550 1359-550Q1079-550 768-383Q458-215 327-215Q240-215 200-237Q240-50 372-50Q503-50 814-235Q1125-420 1319-420Q1460-420 1460-320Q1460-250 1415-250Q1370-250 1370-279Q1370-307 1417-312Q1409-365 1376-365Q1252-365 1252-238Q1252-50 1481-50Z"  horiz-adv-x="1890" vert-adv-y="2048"  />

      
      <glyph glyph-name="uni178A" unicode="&#x178A;" d="M430 1127Q430 1050 625 1050Q815 1050 815 1190Q815 1341 669 1341Q662 1341 655 1341Q648 1341 641 1340Q641 1460 783 1460Q1070 1460 1070 1190Q1070 890 625 890Q180 890 180 1127Q180 1300 373 1300Q565 1300 565 1166Q565 1134 502 1105Q489 1162 459 1162Q430 1162 430 1127M694 329L820 231L820 820L1070 820L1070 0L850 0L625 190L400 0L180 0L180 820L430 820L430 237L556 332Q590 357 623 357Q660 357 694 329Z"  horiz-adv-x="1250" vert-adv-y="2048"  />

      
      <glyph glyph-name="uni178B" unicode="&#x178B;" d="M1070 786L1070 300Q1070 0 625 0Q180 0 180 300L180 700Q180 813 245 923Q310 1033 310 1106Q310 1150 266 1150Q220 1150 220 1073Q220 1005 248 965Q235 941 211 941Q171 941 142 959Q80 997 80 1097Q80 1300 286 1300Q520 1300 520 1106Q520 993 475 886Q430 780 430 700L430 300Q430 160 625 160Q820 160 820 300L820 756Q741 862 650 882L610 1004Q626 1072 664 1140.50Q702 1209 753 1254.50Q804 1300 858 1300Q911 1300 986 1267Q1000 1290 1000 1320Q1000 1391 951 1416Q904 1440 761 1442Q823 1580 915 1580Q1037 1580 1118.50 1514.50Q1200 1449 1200 1320Q1200 1016 1065 1016Q950 1016 871 1074Q799 1074 776 991Q1070 912 1070 786Z"  horiz-adv-x="1250" vert-adv-y="2048"  />

      
      <glyph glyph-name="uni178C" unicode="&#x178C;" d="M820 520L1070 520L1070 60Q1070-100 895-100Q780-100 760-20Q820-12 820 60L820 122Q671 0 535 0Q180 0 180 347L180 481Q820 806 820 953L820 1000Q820 1098 768 1098Q716 1098 667 1004Q650 972 625 972Q600 972 583 1004Q535 1098 483 1098Q430 1098 430 1000L430 953Q430 918 459 918Q488 918 502 965Q545 947 545 894Q545 760 393 760Q180 760 180 953L180 1000Q180 1082 211 1150Q242 1218 297 1259Q352 1300 424 1300Q532 1300 625 1176Q719 1300 828 1300Q900 1300 954.50 1259Q1009 1218 1039.50 1150Q1070 1082 1070 1000L1070 953Q1070 736 430 411L430 347Q430 160 535 160Q681 160 820 397L820 520Z"  horiz-adv-x="1250" vert-adv-y="2048"  />

      
      <glyph glyph-name="uni178D" unicode="&#x178D;" d="M1710 806L1710 217Q1710 0 1390 0Q1140 0 1140 217Q1140 293 1070 293L1070 0L820 0L820 1000Q820 1098 768 1098Q716 1098 667 1004Q650 972 625 972Q600 972 583 1004Q535 1098 483 1098Q430 1098 430 1000L430 230Q430 170 475 170Q530 170 530 268Q530 384 455 433L475 503Q562 503 626 438Q690 373 690 268Q690 0 435 0Q180 0 180 230L180 1000Q180 1082 211 1150Q242 1218 297 1259Q352 1300 424 1300Q532 1300 625 1176Q719 1300 828 1300Q900 1300 954.50 1259Q1009 1218 1039.50 1150Q1070 1082 1070 1000L1070 453Q1320 453 1320 217Q1320 160 1390 160Q1460 160 1460 217L1460 756Q1460 863 1370 882L1330 1004Q1346 1072 1379.50 1140.50Q1413 1209 1455 1254.50Q1497 1300 1538 1300Q1600 1300 1672 1255Q1744 1210 1774 1210Q1814 1210 1840 1223Q1821 1016 1705 1016Q1630 1016 1551 1074Q1519 1074 1496 991Q1710 933 1710 806Z"  horiz-adv-x="1890" vert-adv-y="2048"  />

      
      <glyph glyph-name="uni178E" unicode="&#x178E;" d="M1344 329L1470 231L1470 1000Q1470 1300 1920 1300Q2370 1300 2370 1000L2370 0L2120 0L2120 1000Q2120 1140 1920 1140Q1720 1140 1720 1000L1720 0L1500 0L1275 190L1050 0L830 0L830 1000Q830 1140 630 1140Q430 1140 430 1000L430 230Q430 170 475 170Q530 170 530 268Q530 384 455 433L475 503Q562 503 626 438Q690 373 690 268Q690 0 435 0Q180 0 180 230L180 1000Q180 1300 630 1300Q1080 1300 1080 1000L1080 237L1206 332Q1240 357 1273 357Q1310 357 1344 329Z"  horiz-adv-x="2550" vert-adv-y="2048"  />

      
      <glyph glyph-name="uni178F" unicode="&#x178F;" d="M100 1095Q154 1186 228 1243Q302 1300 365 1300Q509 1300 649 1199Q765 1300 835 1300Q900 1300 981 1231Q1060 1161 1090 1161Q1133 1161 1150 1178Q1150 1106 1120.50 1051.50Q1091 997 1042 997Q912 997 763 1126Q702 1126 631 1012Q355 1137 319 1137Q282 1137 265 1090Q307 1013 352 1013Q373 1013 390 1017Q348 923 290 923Q251 923 207 946.50Q163 970 131.50 1009.50Q100 1049 100 1095M180 230L180 650Q180 950 625 950Q1070 950 1070 650L1070 0L820 0L820 650Q820 790 625 790Q430 790 430 650L430 230Q430 170 475 170Q530 170 530 268Q530 384 455 433L475 503Q562 503 626 438Q690 373 690 268Q690 0 435 0Q180 0 180 230Z"  horiz-adv-x="1250" vert-adv-y="2048"  />

      
      <glyph glyph-name="uni1790" unicode="&#x1790;" d="M430 963L430 300Q430 160 625 160Q820 160 820 300L820 687Q820 732 791 732Q772 732 772 699Q772 652 808 625L772 575Q665 625 665 726Q665 900 868 900Q1070 900 1070 687L1070 300Q1070 0 625 0Q180 0 180 300L180 909Q100 965 100 1095Q134 1176 208 1238Q282 1300 385 1300Q498 1300 589 1235Q679 1169 740 1169Q820 1169 820 1260Q820 1424 660 1424Q660 1519 820 1519Q1070 1519 1070 1260Q1070 1009 740 1009Q630 1009 539 1058Q447 1107 385 1107Q301 1096 265 1060Q297 1012 430 963Z"  horiz-adv-x="1250" vert-adv-y="2048"  />

      
      <glyph glyph-name="uni1791" unicode="&#x1791;" d="M430 953L430 880Q430 780 457 727.50Q484 675 543.50 656Q603 637 700 637Q819 637 875 717Q1050 717 1050 597Q1050 496 950 477L950 260Q950 0 590 0Q230 0 230 260L230 407L480 407L480 260Q480 160 590 160Q700 160 700 260L700 477Q546 477 429 522Q312 567 246 656.50Q180 746 180 880L180 953Q180 1300 625 1300Q1070 1300 1070 1003Q1070 810 857 810Q705 810 705 944Q705 997 748 1015Q762 968 791 968Q820 968 820 1003Q820 1140 625 1140Q430 1140 430 953Z"  horiz-adv-x="1250" vert-adv-y="2048"  />

      
      <glyph glyph-name="uni1792" unicode="&#x1792;" d="M694 329L820 231L820 687Q820 732 791 732Q772 732 772 699Q772 652 808 625L772 575Q665 625 665 726Q665 900 868 900Q1070 900 1070 687L1070 0L850 0L625 190L400 0L180 0L180 964Q144 984 122 1019.50Q100 1055 100 1095Q154 1186 228 1243Q302 1300 365 1300Q509 1300 649 1199Q765 1300 835 1300Q900 1300 981 1231Q1060 1161 1090 1161Q1133 1161 1150 1178Q1150 1106 1120.50 1051.50Q1091 997 1042 997Q912 997 763 1126Q702 1126 631 1012Q355 1137 319 1137Q282 1137 265 1090Q307 1013 430 950L430 237L556 332Q590 357 623 357Q660 357 694 329Z"  horiz-adv-x="1250" vert-adv-y="2048"  />

      
      <glyph glyph-name="uni1793" unicode="&#x1793;" d="M430 953Q430 781 1070 495L1070 260Q1070 0 777 0Q685 0 598 89Q510 177 430 177L430 0L180 0L180 520L430 520L430 337Q538 337 635 249Q733 160 777 160Q820 160 820 260L820 430Q180 718 180 953Q180 1300 625 1300Q1070 1300 1070 953Q1070 760 857 760Q705 760 705 894Q705 947 748 965Q762 918 791 918Q820 918 820 953Q820 1140 625 1140Q430 1140 430 953Z"  horiz-adv-x="1250" vert-adv-y="2048"  />

      
      <glyph glyph-name="uni1794" unicode="&#x1794;" d="M180 300L180 756Q180 863 90 882L50 1004Q66 1072 99.50 1140.50Q133 1209 175 1254.50Q217 1300 258 1300Q320 1300 392 1255Q464 1210 494 1210Q534 1210 560 1223Q541 1016 425 1016Q350 1016 271 1074Q239 1074 216 991Q430 933 430 806L430 300Q430 160 625 160Q820 160 820 300L820 756Q820 863 730 882L690 1004Q706 1072 739.50 1140.50Q773 1209 815 1254.50Q857 1300 898 1300Q960 1300 1032 1255Q1104 1210 1134 1210Q1174 1210 1200 1223Q1181 1016 1065 1016Q990 1016 911 1074Q879 1074 856 991Q1070 933 1070 806L1070 300Q1070 0 625 0Q180 0 180 300Z"  horiz-adv-x="1250" vert-adv-y="2048"  />

      
      <glyph glyph-name="uni1795" unicode="&#x1795;" d="M1070 680L1070 0L850 0L625 190L400 0L180 0L180 909Q100 965 100 1095Q134 1176 208 1238Q282 1300 385 1300Q498 1300 589 1235Q679 1169 740 1169Q820 1169 820 1260Q820 1424 660 1424Q660 1519 820 1519Q1070 1519 1070 1260Q1070 1009 740 1009Q630 1009 539 1058Q447 1107 385 1107Q301 1096 265 1060Q297 1012 430 963L430 237L556 332Q590 357 623 357Q660 357 694 329L820 231L820 680Q820 740 785 740Q750 740 750 692Q750 617 795 587L755 517Q731 517 696.50 540Q662 563 636 602.50Q610 642 610 692Q610 910 840 910Q1070 910 1070 680Z"  horiz-adv-x="1250" vert-adv-y="2048"  />

      
      <glyph glyph-name="uni1796" unicode="&#x1796;" d="M180 230L180 1000Q180 1082 211 1150Q242 1218 297 1259Q352 1300 424 1300Q532 1300 625 1176Q719 1300 828 1300Q900 1300 954.50 1259Q1009 1218 1039.50 1150Q1070 1082 1070 1000L1070 0L820 0L820 1000Q820 1098 768 1098Q716 1098 667 1004Q650 972 625 972Q600 972 583 1004Q535 1098 483 1098Q430 1098 430 1000L430 230Q430 170 475 170Q530 170 530 268Q530 384 455 433L475 503Q562 503 626 438Q690 373 690 268Q690 0 435 0Q180 0 180 230Z"  horiz-adv-x="1250" vert-adv-y="2048"  />

      
      <glyph glyph-name="uni1797" unicode="&#x1797;" d="M290 923Q251 923 207 946.50Q163 970 131.50 1009.50Q100 1049 100 1095Q154 1186 228 1243Q302 1300 365 1300Q509 1300 649 1199Q765 1300 835 1300Q900 1300 981 1231Q1060 1161 1090 1161Q1133 1161 1150 1178Q1150 1106 1120.50 1051.50Q1091 997 1042 997Q912 997 763 1126Q702 1126 631 1012Q355 1137 319 1137Q282 1137 265 1090Q307 1013 352 1013Q373 1013 390 1017Q348 923 290 923M430 650L430 600Q430 521 475 414Q520 308 520 214Q520 0 266 0Q60 0 60 223Q60 333 122 371Q151 389 171 389Q195 389 208 365Q190 325 190 247Q190 170 246 170Q290 170 290 214Q290 268 235 377Q180 486 180 600L180 650Q180 950 625 950Q1070 950 1070 650L1070 0L820 0L820 650Q820 790 625 790Q430 790 430 650Z"  horiz-adv-x="1250" vert-adv-y="2048"  />

      
      <glyph glyph-name="uni1798" unicode="&#x1798;" d="M430 806L430 682L820 682L820 756Q820 863 730 882L690 1004Q706 1072 739.50 1140.50Q773 1209 815 1254.50Q857 1300 898 1300Q960 1300 1032 1255Q1104 1210 1134 1210Q1174 1210 1200 1223Q1181 1016 1065 1016Q990 1016 911 1074Q879 1074 856 991Q1070 933 1070 806L1070 300Q1070 0 625 0Q180 0 180 300L180 756Q180 863 90 882L50 1004Q66 1072 99.50 1140.50Q133 1209 175 1254.50Q217 1300 258 1300Q320 1300 392 1255Q464 1210 494 1210Q534 1210 560 1223Q541 1016 425 1016Q350 1016 271 1074Q239 1074 216 991Q430 933 430 806M820 300L820 522L430 522L430 300Q430 160 625 160Q820 160 820 300Z"  horiz-adv-x="1250" vert-adv-y="2048"  />

      
      <glyph glyph-name="uni1799" unicode="&#x1799;" d="M180 300L180 1070Q180 1300 420 1300Q650 1300 650 1032Q650 927 601 867Q552 807 485 807L455 867Q500 917 500 1032Q500 1130 465 1130Q430 1130 430 1070L430 300Q430 160 645 160Q860 160 860 300L860 756Q860 863 770 882L730 1004Q746 1072 779.50 1140.50Q813 1209 855 1254.50Q897 1300 938 1300Q1000 1300 1072 1255Q1144 1210 1174 1210Q1214 1210 1240 1223Q1221 1016 1105 1016Q1030 1016 951 1074Q919 1074 896 991Q1110 933 1110 806L1110 300Q1110 160 1295 160Q1480 160 1480 300L1480 756Q1480 863 1390 882L1350 1004Q1366 1072 1399.50 1140.50Q1433 1209 1475 1254.50Q1517 1300 1558 1300Q1620 1300 1692 1255Q1764 1210 1794 1210Q1834 1210 1860 1223Q1841 1016 1725 1016Q1650 1016 1571 1074Q1539 1074 1516 991Q1730 933 1730 806L1730 300Q1730 0 1295 0Q1094 0 985 65Q876 0 645 0Q180 0 180 300Z"  horiz-adv-x="1910" vert-adv-y="2048"  />

      
      <glyph glyph-name="uni179A" unicode="&#x179A;" d="M510 786L510 210Q510 0 275 0Q50 0 50 218Q50 303 89 368Q128 433 225 433L245 383Q200 334 200 218Q200 170 225 170Q260 170 260 210L260 756Q181 862 90 882L50 1004Q66 1072 104 1140.50Q142 1209 193 1254.50Q244 1300 298 1300Q361 1300 452 1255Q544 1210 574 1210Q614 1210 640 1223Q621 1016 505 1016Q390 1016 311 1074Q239 1074 216 991Q510 912 510 786Z"  horiz-adv-x="690" vert-adv-y="2048"  />

      
      <glyph glyph-name="uni179B" unicode="&#x179B;" d="M1670 806L1670 300Q1670 0 1250 0Q830 0 830 300L830 1000Q830 1140 630 1140Q430 1140 430 1000L430 230Q430 170 475 170Q530 170 530 268Q530 384 455 433L475 503Q562 503 626 438Q690 373 690 268Q690 0 435 0Q180 0 180 230L180 1000Q180 1300 630 1300Q1080 1300 1080 1000L1080 300Q1080 160 1250 160Q1420 160 1420 300L1420 756Q1420 863 1330 882L1290 1004Q1306 1072 1339.50 1140.50Q1373 1209 1415 1254.50Q1457 1300 1498 1300Q1560 1300 1632 1255Q1704 1210 1734 1210Q1774 1210 1800 1223Q1781 1016 1665 1016Q1590 1016 1511 1074Q1479 1074 1456 991Q1670 933 1670 806Z"  horiz-adv-x="1850" vert-adv-y="2048"  />

      
      <glyph glyph-name="uni179C" unicode="&#x179C;" d="M426 1267Q440 1290 440 1320Q440 1391 391 1416Q344 1440 201 1442Q263 1580 355 1580Q477 1580 558.50 1514.50Q640 1449 640 1320Q640 1016 505 1016Q390 1016 311 1074Q239 1074 216 991Q510 912 510 786L510 210Q510 0 275 0Q50 0 50 218Q50 303 89 368Q128 433 225 433L245 383Q200 334 200 218Q200 170 225 170Q260 170 260 210L260 756Q181 862 90 882L50 1004Q66 1072 104 1140.50Q142 1209 193 1254.50Q244 1300 298 1300Q351 1300 426 1267Z"  horiz-adv-x="690" vert-adv-y="2048"  />

      
      <glyph glyph-name="uni179D" unicode="&#x179D;" d="M100 1095Q154 1186 228 1243Q302 1300 365 1300Q509 1300 649 1199Q765 1300 835 1300Q900 1300 981 1231Q1060 1161 1090 1161Q1133 1161 1150 1178Q1150 1106 1120.50 1051.50Q1091 997 1042 997Q912 997 763 1126Q702 1126 631 1012Q355 1137 319 1137Q282 1137 265 1090Q307 1013 352 1013Q373 1013 390 1017Q348 923 290 923Q251 923 207 946.50Q163 970 131.50 1009.50Q100 1049 100 1095M1070 650L1070 457L1200 457L1200 297L1070 297L1070 0L820 0L820 297L750 297L750 457L820 457L820 650Q820 790 625 790Q430 790 430 650L430 371Q492 460 580 460Q720 460 720 305Q720 160 590 160Q590 260 510 260Q467 260 430 184L430 0L180 0L180 650Q180 950 625 950Q1070 950 1070 650Z"  horiz-adv-x="1250" vert-adv-y="2048"  />

      
      <glyph glyph-name="uni179E" unicode="&#x179E;" d="M1070 806L1070 620L1200 620L1200 460L1070 460L1070 300Q1070 0 625 0Q180 0 180 300L180 756Q180 863 90 882L50 1004Q66 1072 99.50 1140.50Q133 1209 175 1254.50Q217 1300 258 1300Q320 1300 392 1255Q464 1210 494 1210Q534 1210 560 1223Q541 1016 425 1016Q350 1016 271 1074Q239 1074 216 991Q430 933 430 806L430 300Q430 160 625 160Q820 160 820 300L820 460L700 460L700 620L820 620L820 756Q820 863 730 882L690 1004Q706 1072 739.50 1140.50Q773 1209 815 1254.50Q857 1300 898 1300Q960 1300 1032 1255Q1104 1210 1134 1210Q1174 1210 1200 1223Q1181 1016 1065 1016Q990 1016 911 1074Q879 1074 856 991Q1070 933 1070 806Z"  horiz-adv-x="1250" vert-adv-y="2048"  />

      
      <glyph glyph-name="uni179F" unicode="&#x179F;" d="M582 929Q593 930 605 930Q617 930 630 930Q1080 930 1080 630L1080 300Q1080 160 1250 160Q1420 160 1420 300L1420 756Q1420 863 1330 882L1290 1004Q1306 1072 1339.50 1140.50Q1373 1209 1415 1254.50Q1457 1300 1498 1300Q1560 1300 1632 1255Q1704 1210 1734 1210Q1774 1210 1800 1223Q1781 1016 1665 1016Q1590 1016 1511 1074Q1479 1074 1456 991Q1670 933 1670 806L1670 300Q1670 0 1250 0Q830 0 830 300L830 630Q830 770 630 770Q430 770 430 630L430 230Q430 170 475 170Q530 170 530 268Q530 384 455 433L475 503Q562 503 626 438Q690 373 690 268Q690 0 435 0Q180 0 180 230L180 630Q180 816 352 886Q310 904 270 912L230 1034Q253 1089 297.50 1150.50Q342 1212 398 1256Q454 1300 508 1300Q571 1300 662 1255Q754 1210 794 1210Q854 1210 880 1223Q861 1016 715 1016Q619 1016 521 1074Q449 1074 396 1011Q513 971 582 929Z"  horiz-adv-x="1850" vert-adv-y="2048"  />

      
      <glyph glyph-name="uni17A0" unicode="&#x17A0;" d="M1050 1000L1050 300Q1050 0 615 0Q180 0 180 300L180 756Q180 863 90 882L50 1004Q66 1072 99.50 1140.50Q133 1209 175 1254.50Q217 1300 258 1300Q320 1300 392 1255Q464 1210 494 1210Q534 1210 560 1223Q541 1016 425 1016Q350 1016 271 1074Q239 1074 216 991Q430 933 430 806L430 300Q430 160 615 160Q800 160 800 300L800 1000Q800 1300 1235 1300Q1670 1300 1670 1000L1670 0L1420 0L1420 1000Q1420 1140 1235 1140Q1050 1140 1050 1000Z"  horiz-adv-x="1850" vert-adv-y="2048"  />

      
      <glyph glyph-name="uni17A1" unicode="&#x17A1;" d="M430 953L430 880Q430 780 457 727.50Q484 675 543.50 656Q603 637 700 637Q819 637 875 717Q1050 717 1050 597Q1050 496 950 477L950 260Q950 0 590 0Q230 0 230 260L230 407L480 407L480 260Q480 160 590 160Q700 160 700 260L700 477Q546 477 429 522Q312 567 246 656.50Q180 746 180 880L180 953Q180 1300 625 1300Q1070 1300 1070 1003Q1070 810 857 810Q705 810 705 944Q705 997 748 1015Q762 968 791 968Q820 968 820 1003Q820 1140 625 1140Q430 1140 430 953M1370-320L1370 756Q1370 863 1280 882L1240 1004Q1256 1072 1289.50 1140.50Q1323 1209 1365 1254.50Q1407 1300 1448 1300Q1510 1300 1582 1255Q1654 1210 1684 1210Q1724 1210 1750 1223Q1731 1016 1615 1016Q1540 1016 1461 1074Q1429 1074 1406 991Q1620 933 1620 806L1620-550L1400-550Q1254-392 1230-392Q1206-392 1060-550L840-550L840-268Q840-216 784-216Q738-216 720-234Q720-60 905-60Q1090-60 1090-213L1090-320Q1177-227 1231-227Q1285-227 1370-320Z"  horiz-adv-x="1800" vert-adv-y="2048"  />

      
      <glyph glyph-name="uni17A2" unicode="&#x17A2;" d="M510 786L510 682L900 682L900 756Q821 862 730 882L690 1004Q706 1072 744 1140.50Q782 1209 833 1254.50Q884 1300 938 1300Q1001 1300 1092 1255Q1184 1210 1214 1210Q1254 1210 1280 1223Q1261 1016 1145 1016Q1030 1016 951 1074Q879 1074 856 991Q1150 912 1150 786L1150 210Q1150 0 915 0Q690 0 690 218Q690 303 729 368Q768 433 865 433L885 383Q840 334 840 218Q840 170 865 170Q900 170 900 210L900 522L510 522L510 210Q510 0 275 0Q50 0 50 218Q50 303 89 368Q128 433 225 433L245 383Q200 334 200 218Q200 170 225 170Q260 170 260 210L260 756Q181 862 90 882L50 1004Q66 1072 104 1140.50Q142 1209 193 1254.50Q244 1300 298 1300Q361 1300 437 1255Q514 1210 544 1210Q584 1210 610 1223Q591 1016 475 1016Q390 1016 311 1074Q239 1074 216 991Q510 912 510 786Z"  horiz-adv-x="1330" vert-adv-y="2048"  />

      
      <glyph glyph-name="uni17A5" unicode="&#x17A5;" d="M231 879Q100 965 100 1095Q134 1176 208 1238Q282 1300 385 1300Q498 1300 589 1235Q679 1169 740 1169Q820 1169 820 1260Q820 1424 660 1424Q660 1519 820 1519Q1070 1519 1070 1260Q1070 1009 740 1009Q630 1009 539 1058Q447 1107 385 1107Q301 1096 265 1060Q297 1012 430 963Q312 941 231 879M180 230L180 650Q180 950 625 950Q1070 950 1070 650L1070 0L820 0L820 650Q820 790 625 790Q430 790 430 650L430 230Q430 170 475 170Q530 170 530 268Q530 384 455 433L475 503Q562 503 626 438Q690 373 690 268Q690 0 435 0Q180 0 180 230Z"  horiz-adv-x="1250" vert-adv-y="2048"  />

      
      <glyph glyph-name="uni17A6" unicode="&#x17A6;" d="M1670 1230L1670-445Q1670-650 1245-650Q820-650 820-445L820-300Q820-230 635-230Q450-230 450-300L450-410Q450-460 480-460Q520-460 520-406Q520-366 493-329Q620-339 620-440Q620-650 420-650Q200-650 200-440L200-300Q200-100 635-100Q1070-100 1070-300L1070-445Q1070-520 1245-520Q1420-520 1420-445L1420 1230Q1420 1390 1266 1390L1130 1390Q780 1390 780 1611Q780 1655 800 1704Q820 1752 820 1801Q820 1871 696 1871Q696 2001 863 2001Q1070 2001 1070 1801Q1070 1737 1050 1699Q1030 1661 1030 1611Q1030 1550 1130 1550L1266 1550Q1670 1550 1670 1230M430 1000L430 230Q430 170 475 170Q530 170 530 268Q530 384 455 433L475 503Q562 503 626 438Q690 373 690 268Q690 0 435 0Q180 0 180 230L180 1000Q180 1300 625 1300Q1070 1300 1070 1000L1070 0L820 0L820 1000Q820 1140 625 1140Q430 1140 430 1000Z"  horiz-adv-x="1850" vert-adv-y="2048"  />

      
      <glyph glyph-name="uni17A7" unicode="&#x17A7;" d="M180 347L180 481Q820 806 820 953Q820 1140 625 1140Q430 1140 430 953Q430 918 459 918Q488 918 502 965Q545 947 545 894Q545 760 393 760Q180 760 180 953Q180 1300 625 1300Q1070 1300 1070 953Q1070 736 430 411L430 347Q430 160 535 160Q681 160 820 397L820 520L1070 520L1070 60Q1070-100 895-100Q780-100 760-20Q820-12 820 60L820 122Q671 0 535 0Q180 0 180 347Z"  horiz-adv-x="1250" vert-adv-y="2048"  />

      
      <glyph glyph-name="uni17A8" unicode="&#x17A8;" d="M290 1283Q251 1283 207 1306.50Q163 1330 131.50 1369.50Q100 1409 100 1455Q154 1546 228 1603Q302 1660 365 1660Q509 1660 649 1559Q765 1660 835 1660Q900 1660 981 1591Q1060 1521 1090 1521Q1133 1521 1150 1538Q1150 1466 1120.50 1411.50Q1091 1357 1042 1357Q912 1357 763 1486Q702 1486 631 1372Q355 1497 319 1497Q282 1497 265 1450Q307 1373 352 1373Q373 1373 390 1377Q348 1283 290 1283M180 347L180 481Q820 806 820 953Q820 1140 625 1140Q430 1140 430 953Q430 918 459 918Q488 918 502 965Q545 947 545 894Q545 760 393 760Q180 760 180 953Q180 1300 625 1300Q1070 1300 1070 953Q1070 736 430 411L430 347Q430 160 535 160Q681 160 820 397L820 520L1070 520L1070 60Q1070-100 895-100Q780-100 760-20Q820-12 820 60L820 122Q671 0 535 0Q180 0 180 347Z"  horiz-adv-x="1250" vert-adv-y="2048"  />

      
      <glyph glyph-name="uni17A9" unicode="&#x17A9;" d="M180 347L180 481Q820 806 820 953Q820 1140 625 1140Q430 1140 430 953Q430 918 459 918Q488 918 502 965Q545 947 545 894Q545 760 393 760Q180 760 180 953Q180 1300 625 1300Q1070 1300 1070 953Q1070 736 430 411L430 347Q430 160 535 160Q681 160 820 397L820 520L1070 520L1070 60Q1070-100 895-100Q780-100 760-20Q820-12 820 60L820 122Q671 0 535 0Q180 0 180 347M1270-50L1150-50L1150 520L1270 520L1270-50Z"  horiz-adv-x="1270" vert-adv-y="2048"  />

      
      <glyph glyph-name="uni17AA" unicode="&#x17AA;" d="M231 1249Q100 1335 100 1465Q134 1546 208 1608Q282 1670 385 1670Q498 1670 589 1605Q679 1539 740 1539Q820 1539 820 1630Q820 1794 660 1794Q660 1889 820 1889Q1070 1889 1070 1630Q1070 1379 740 1379Q630 1379 539 1428Q447 1477 385 1477Q301 1466 265 1430Q297 1382 430 1333Q312 1311 231 1249M180 347L180 481Q820 806 820 953Q820 1140 625 1140Q430 1140 430 953Q430 918 459 918Q488 918 502 965Q545 947 545 894Q545 760 393 760Q180 760 180 953Q180 1300 625 1300Q1070 1300 1070 953Q1070 736 430 411L430 347Q430 160 535 160Q681 160 820 397L820 520L1070 520L1070 60Q1070-100 895-100Q780-100 760-20Q820-12 820 60L820 122Q671 0 535 0Q180 0 180 347Z"  horiz-adv-x="1250" vert-adv-y="2048"  />

      
      <glyph glyph-name="uni17AB" unicode="&#x17AB;" d="M180 300L180 756Q180 863 90 882L50 1004Q66 1072 99.50 1140.50Q133 1209 175 1254.50Q217 1300 258 1300Q320 1300 392 1255Q464 1210 494 1210Q534 1210 560 1223Q541 1016 425 1016Q350 1016 271 1074Q239 1074 216 991Q430 933 430 806L430 300Q430 160 625 160Q820 160 820 300L820 756Q820 863 730 882L690 1004Q706 1072 739.50 1140.50Q773 1209 815 1254.50Q857 1300 898 1300Q960 1300 1032 1255Q1104 1210 1134 1210Q1174 1210 1200 1223Q1181 1016 1065 1016Q990 1016 911 1074Q879 1074 856 991Q1070 933 1070 806L1070 300Q1070 0 625 0Q180 0 180 300M716-178Q716-40 866-40Q1070-40 1070-228Q1070-543 266-543Q60-543 60-450Q820-399 820-228Q820-178 716-178Z"  horiz-adv-x="1250" vert-adv-y="2048"  />

      
      <glyph glyph-name="uni17AC" unicode="&#x17AC;" d="M180 300L180 756Q180 863 90 882L50 1004Q66 1072 99.50 1140.50Q133 1209 175 1254.50Q217 1300 258 1300Q320 1300 392 1255Q464 1210 494 1210Q534 1210 560 1223Q541 1016 425 1016Q350 1016 271 1074Q239 1074 216 991Q430 933 430 806L430 300Q430 160 625 160Q820 160 820 300L820 756Q820 863 730 882L690 1004Q706 1072 739.50 1140.50Q773 1209 815 1254.50Q857 1300 898 1300Q960 1300 1032 1255Q1104 1210 1134 1210Q1174 1210 1200 1223Q1181 1016 1065 1016Q990 1016 911 1074Q879 1074 856 991Q1070 933 1070 806L1070 300Q1070 0 625 0Q180 0 180 300M1051-318Q1071-350 1100-350Q1200-350 1200-450Q1200-550 1100-550Q986-550 937-432Q744-543 266-543Q60-543 60-450Q820-399 820-228Q820-178 716-178Q716-40 866-40Q1070-40 1070-228Q1070-279 1051-318Z"  horiz-adv-x="1250" vert-adv-y="2048"  />

      
      <glyph glyph-name="uni17AD" unicode="&#x17AD;" d="M180 230L180 1000Q180 1082 211 1150Q242 1218 297 1259Q352 1300 424 1300Q532 1300 625 1176Q719 1300 828 1300Q900 1300 954.50 1259Q1009 1218 1039.50 1150Q1070 1082 1070 1000L1070 0L820 0L820 1000Q820 1098 768 1098Q716 1098 667 1004Q650 972 625 972Q600 972 583 1004Q535 1098 483 1098Q430 1098 430 1000L430 230Q430 170 475 170Q530 170 530 268Q530 384 455 433L475 503Q562 503 626 438Q690 373 690 268Q690 0 435 0Q180 0 180 230M716-178Q716-40 866-40Q1070-40 1070-228Q1070-543 266-543Q60-543 60-450Q820-399 820-228Q820-178 716-178Z"  horiz-adv-x="1250" vert-adv-y="2048"  />

      
      <glyph glyph-name="uni17AE" unicode="&#x17AE;" d="M180 230L180 1000Q180 1082 211 1150Q242 1218 297 1259Q352 1300 424 1300Q532 1300 625 1176Q719 1300 828 1300Q900 1300 954.50 1259Q1009 1218 1039.50 1150Q1070 1082 1070 1000L1070 0L820 0L820 1000Q820 1098 768 1098Q716 1098 667 1004Q650 972 625 972Q600 972 583 1004Q535 1098 483 1098Q430 1098 430 1000L430 230Q430 170 475 170Q530 170 530 268Q530 384 455 433L475 503Q562 503 626 438Q690 373 690 268Q690 0 435 0Q180 0 180 230M1051-318Q1071-350 1100-350Q1200-350 1200-450Q1200-550 1100-550Q986-550 937-432Q744-543 266-543Q60-543 60-450Q820-399 820-228Q820-178 716-178Q716-40 866-40Q1070-40 1070-228Q1070-279 1051-318Z"  horiz-adv-x="1250" vert-adv-y="2048"  />

      
      <glyph glyph-name="uni17AF" unicode="&#x17AF;" d="M1070 988L1070 0L850 0L625 190L400 0L180 0L180 727Q180 772 151 772Q122 772 108 715Q65 733 65 796Q65 950 232 950Q430 950 430 777L430 237L556 332Q590 357 623 357Q660 357 694 329L820 231L820 988Q820 1140 716 1140Q650 1140 597 1119Q546 1097 469 1097Q180 1097 180 1302Q180 1346 200 1400Q220 1454 220 1502Q220 1572 96 1572Q96 1692 266 1692Q470 1692 470 1502Q470 1438 450 1395Q430 1350 430 1302Q430 1257 469 1257Q518 1257 569 1279Q622 1300 716 1300Q1070 1300 1070 988Z"  horiz-adv-x="1250" vert-adv-y="2048"  />

      
      <glyph glyph-name="uni17B0" unicode="&#x17B0;" d="M1070 1000L1070 0Q1070-249 882-293Q841-316 796-316Q743-316 685-285Q695-318 695-351Q695-424 636-480Q553-550 470-550Q428-550 378.50-534Q329-518 283.50-490.50Q238-463 209-429.50Q180-396 180-362Q180-191 382-145Q583-98 820 68L820 1000Q820 1098 768 1098Q716 1098 667 1004Q650 972 625 972Q600 972 583 1004Q535 1098 483 1098Q430 1098 430 1000L430 230Q430 170 475 170Q530 170 530 268Q530 384 455 433L475 503Q562 503 626 438Q690 373 690 268Q690 0 435 0Q180 0 180 230L180 1000Q180 1082 211 1150Q242 1218 297 1259Q352 1300 424 1300Q532 1300 625 1176Q719 1300 828 1300Q900 1300 954.50 1259Q1009 1218 1039.50 1150Q1070 1082 1070 1000M712-191Q744-203 766-203Q781-203 791-197Q810-188 837-91Q806-119 775-143.50Q744-168 712-191M553-374Q577-353 577-297Q577-289 576.50-280.50Q576-272 575-262Q471-310 367-337Q431-404 474-404Q516-404 553-374Z"  horiz-adv-x="1250" vert-adv-y="2048"  />

      
      <glyph glyph-name="uni17B1" unicode="&#x17B1;" d="M582 1705Q1100 1625 1100 1400Q1100 1312 1013 1312Q865 1312 865 1400Q835 1523 576 1539Q515 1542 457 1542Q399 1542 385 1525Q365 1502 365 1479Q365 1441 470 1340L325 1310Q160 1375 160 1448L160 1544Q160 1561 191 1588.50Q222 1616 273 1644Q324 1672 384.50 1691.50Q445 1711 503 1711Q542 1711 582 1705M180 347L180 481Q820 806 820 953Q820 1140 625 1140Q430 1140 430 953Q430 918 459 918Q488 918 502 965Q545 947 545 894Q545 760 393 760Q180 760 180 953Q180 1300 625 1300Q1070 1300 1070 953Q1070 736 430 411L430 347Q430 160 535 160Q681 160 820 397L820 520L1070 520L1070 60Q1070-100 895-100Q780-100 760-20Q820-12 820 60L820 122Q671 0 535 0Q180 0 180 347Z"  horiz-adv-x="1250" vert-adv-y="2048"  />

      
      <glyph glyph-name="uni17B2" unicode="&#x17B2;" d="M422 953L422 347Q422 160 625 160Q828 160 828 347Q828 416 806 448Q799 441 788 433L625 308L508 451Q775 635 801 692Q828 751 828 780Q828 897 770 897Q722 897 722 830Q722 758 776 758Q719 680 660 680Q605 680 567 713Q531 745 531 830Q531 997 770 997Q1070 997 1070 780Q1070 731 1042 679Q1006 612 911 540Q992 522 1026 482Q1070 429 1070 347Q1070 0 625 0Q180 0 180 347L180 953Q180 1300 625 1300Q1070 1300 1070 1083L828 1083Q828 1140 625 1140Q422 1140 422 953Z"  horiz-adv-x="1250" vert-adv-y="2048"  />

      
      <glyph glyph-name="uni17B3" unicode="&#x17B3;" d="M837 1638Q1110 1562 1110 1381Q1110 1292 1020 1292Q980 1292 952 1296Q705 1328 686 1510Q651 1518 564 1523Q381 1523 362 1504Q341 1485 341 1462Q341 1422 453 1320L324 1270Q130 1356 130 1430L130 1477Q130 1533 185.50 1583Q241 1633 324 1664.50Q407 1696 487 1696Q579 1696 694 1671Q740 1855 1043 1855Q1090 1855 1090 1786Q1090 1716 1043 1716Q875 1716 837 1638M944 1409Q925 1460 821 1489Q850 1434 944 1409M180 347L180 481Q820 806 820 953Q820 1140 625 1140Q430 1140 430 953Q430 918 459 918Q488 918 502 965Q545 947 545 894Q545 760 393 760Q180 760 180 953Q180 1300 625 1300Q1070 1300 1070 953Q1070 736 430 411L430 347Q430 160 535 160Q681 160 820 397L820 520L1070 520L1070 60Q1070-100 895-100Q780-100 760-20Q820-12 820 60L820 122Q671 0 535 0Q180 0 180 347Z"  horiz-adv-x="1250" vert-adv-y="2048"  />

      
      <glyph glyph-name="uni17A3" unicode="&#x17A3;" d="M510 786L510 682L900 682L900 756Q821 862 730 882L690 1004Q706 1072 744 1140.50Q782 1209 833 1254.50Q884 1300 938 1300Q1001 1300 1092 1255Q1184 1210 1214 1210Q1254 1210 1280 1223Q1261 1016 1145 1016Q1030 1016 951 1074Q879 1074 856 991Q1150 912 1150 786L1150 210Q1150 0 915 0Q690 0 690 218Q690 303 729 368Q768 433 865 433L885 383Q840 334 840 218Q840 170 865 170Q900 170 900 210L900 522L510 522L510 210Q510 0 275 0Q50 0 50 218Q50 303 89 368Q128 433 225 433L245 383Q200 334 200 218Q200 170 225 170Q260 170 260 210L260 756Q181 862 90 882L50 1004Q66 1072 104 1140.50Q142 1209 193 1254.50Q244 1300 298 1300Q361 1300 437 1255Q514 1210 544 1210Q584 1210 610 1223Q591 1016 475 1016Q390 1016 311 1074Q239 1074 216 991Q510 912 510 786Z"  horiz-adv-x="1330" vert-adv-y="2048"  />

      
      <glyph glyph-name="uni17A4" unicode="&#x17A4;" d="M1097 1109Q908 1109 856 991Q1150 912 1150 786L1150 210Q1150 0 915 0Q690 0 690 218Q690 303 729 368Q768 433 865 433L885 383Q840 334 840 218Q840 170 865 170Q900 170 900 210L900 522L510 522L510 210Q510 0 275 0Q50 0 50 218Q50 303 89 368Q128 433 225 433L245 383Q200 334 200 218Q200 170 225 170Q260 170 260 210L260 756Q181 862 90 882L50 1004Q66 1072 104 1140.50Q142 1209 193 1254.50Q244 1300 298 1300Q361 1300 437 1255Q514 1210 544 1210Q584 1210 610 1223Q591 1016 475 1016Q390 1016 311 1074Q239 1074 216 991Q510 912 510 786L510 682L900 682L900 756Q821 862 730 882L690 1004Q706 1072 764.50 1140.50Q823 1209 909 1254.50Q995 1300 1094 1300Q1218 1300 1333.50 1269.50Q1449 1239 1541 1186.50Q1633 1134 1686.50 1067Q1740 1000 1740 928L1740 0L1490 0L1490 928Q1490 947 1453.50 977Q1417 1007 1358 1037.50Q1299 1068 1230 1088.50Q1161 1109 1097 1109Z"  horiz-adv-x="1920" vert-adv-y="2048"  />

      
      <glyph glyph-name="uni17B4" unicode="&#x17B4;" d="M-192 1015Q-215 1044-215 1127Q-215 1210-160 1244Q-68 1300 23 1300Q77 1300 151 1269.50Q225 1239 296 1186.50Q367 1134 413.50 1067Q460 1000 460 928L460 0L210 0L210 928Q210 947 185 977Q160 1007 122.50 1037.50Q85 1068 47 1088.50Q9 1109-17 1109Q-95 1109-192 1015Z"  horiz-adv-x="640" vert-adv-y="2048"  />

      
      <glyph glyph-name="uni17B5" unicode="&#x17B5;" d="M-192 1015Q-215 1044-215 1127Q-215 1210-160 1244Q-68 1300 23 1300Q77 1300 151 1269.50Q225 1239 296 1186.50Q367 1134 413.50 1067Q460 1000 460 928L460 0L210 0L210 928Q210 947 185 977Q160 1007 122.50 1037.50Q85 1068 47 1088.50Q9 1109-17 1109Q-95 1109-192 1015Z"  horiz-adv-x="640" vert-adv-y="2048"  />

      
      <glyph glyph-name="uni17B6" unicode="&#x17B6;" d="M-192 1015Q-215 1044-215 1127Q-215 1210-160 1244Q-68 1300 23 1300Q77 1300 151 1269.50Q225 1239 296 1186.50Q367 1134 413.50 1067Q460 1000 460 928L460 0L210 0L210 928Q210 947 185 977Q160 1007 122.50 1037.50Q85 1068 47 1088.50Q9 1109-17 1109Q-95 1109-192 1015Z"  horiz-adv-x="640" vert-adv-y="2048"  />

      
      <glyph glyph-name="uni17BF" unicode="&#x17BF;" d="M251 1670Q430 1533 430 1350L430-250Q430-550 0-550Q-430-550-430-250L-430-100L-180-100L-180-250Q-180-400 0-400Q180-400 180-250L180 1350Q180 1520 80 1520L-360 1520Q-600 1520-600 1730Q-600 1950-320 1950Q-228 1950-144 1926Q-143 1930-143 1937Q-143 1986-190 2009Q-158 2050-110 2050Q11 2050 11 1935Q11 1910 2 1878L-2 1866Q20 1853 41.50 1839Q63 1825 83 1809Q90 1838 90 1867Q90 1937 60 1959Q86 2000 138 2000Q280 2000 280 1865Q280 1778 251 1670M-310 1680L-20 1680Q-139 1790-270 1790Q-360 1790-360 1730Q-360 1680-310 1680Z"  horiz-adv-x="610" vert-adv-y="2048"  />

      
      <glyph glyph-name="uni17C0" unicode="&#x17C0;" d="M180-250L180 1340Q180 1490-4 1490L-120 1490Q-420 1490-420 1691Q-420 1724-400 1759Q-380 1794-380 1845Q-380 1896-474 1896Q-474 2000-307 2000Q-130 2000-130 1845Q-130 1783-150 1755Q-170 1727-170 1691Q-170 1650-100 1650L-4 1650Q430 1650 430 1340L430-250Q430-550 0-550Q-430-550-430-250L-430-100L-180-100L-180-250Q-180-400 0-400Q180-400 180-250Z"  horiz-adv-x="610" vert-adv-y="2048"  />

      
      <glyph glyph-name="uni17C1" unicode="&#x17C1;" d="M180 210L180 756Q180 863 90 882L50 1004Q66 1072 104 1140.50Q142 1209 193 1254.50Q244 1300 298 1300Q361 1300 452 1255Q544 1210 574 1210Q614 1210 640 1223Q621 1016 505 1016Q390 1016 311 1074Q239 1074 216 991Q430 912 430 786L430 210Q430 170 465 170Q490 170 490 218Q490 334 445 383L465 433Q562 433 601 368Q640 303 640 218Q640 0 415 0Q180 0 180 210Z"  horiz-adv-x="690" vert-adv-y="2048"  />

      
      <glyph glyph-name="uni17C2" unicode="&#x17C2;" d="M280 1610Q225 1610 225 1585Q225 1530 300 1530Q410 1530 410 1680Q410 1800 230 1800Q230 1920 350 1920Q650 1920 650 1680Q650 1390 300 1390Q30 1390 30 1560Q30 1710 155 1710Q280 1710 280 1610M180 210L180 756Q180 863 90 882L50 1004Q66 1072 104 1140.50Q142 1209 193 1254.50Q244 1300 298 1300Q361 1300 452 1255Q544 1210 574 1210Q614 1210 640 1223Q621 1016 505 1016Q390 1016 311 1074Q239 1074 216 991Q430 912 430 786L430 210Q430 170 465 170Q490 170 490 218Q490 334 445 383L465 433Q562 433 601 368Q640 303 640 218Q640 0 415 0Q180 0 180 210Z"  horiz-adv-x="690" vert-adv-y="2048"  />

      
      <glyph glyph-name="uni17C3" unicode="&#x17C3;" d="M169 1630Q257 1630 257 1575Q257 1530 313 1530Q384 1530 384 1620Q384 1710 333 1710L207 1710Q80 1710 80 1810Q80 1890 20 1890Q20 1990 120 1990Q222 1990 255 1945Q287 1899 287 1830L333 1850Q620 1850 620 1620Q620 1400 313 1400Q80 1400 80 1530Q80 1630 169 1630M180 210L180 756Q180 863 90 882L50 1004Q66 1072 104 1140.50Q142 1209 193 1254.50Q244 1300 298 1300Q361 1300 452 1255Q544 1210 574 1210Q614 1210 640 1223Q621 1016 505 1016Q390 1016 311 1074Q239 1074 216 991Q430 912 430 786L430 210Q430 170 465 170Q490 170 490 218Q490 334 445 383L465 433Q562 433 601 368Q640 303 640 218Q640 0 415 0Q180 0 180 210Z"  horiz-adv-x="690" vert-adv-y="2048"  />

      
      <glyph glyph-name="uni17C4" unicode="&#x17C4;" d="M-192 1015Q-215 1044-215 1127Q-215 1210-160 1244Q-68 1300 23 1300Q77 1300 151 1269.50Q225 1239 296 1186.50Q367 1134 413.50 1067Q460 1000 460 928L460 0L210 0L210 928Q210 947 185 977Q160 1007 122.50 1037.50Q85 1068 47 1088.50Q9 1109-17 1109Q-95 1109-192 1015Z"  horiz-adv-x="640" vert-adv-y="2048"  />

      
      <glyph glyph-name="uni17C5" unicode="&#x17C5;" d="M250 1217L250 1474Q250 1560 150 1560Q150 1677 315 1677Q500 1677 500 1474L500 1214Q500 1144 436 1035Q460 984 460 928L460 0L210 0L210 928Q210 947 185 977Q160 1007 122.50 1037.50Q85 1068 47 1088.50Q9 1109-17 1109Q-95 1109-192 1015Q-215 1044-215 1127Q-215 1210-160 1244Q-68 1300 23 1300Q116 1300 250 1217Z"  horiz-adv-x="640" vert-adv-y="2048"  />

      
      <glyph glyph-name="uni17C7" unicode="&#x17C7;" d="M425 1300Q670 1300 670 1075Q670 850 425 850Q180 850 180 1075Q180 1300 425 1300M425 1155Q355 1155 355 1075Q355 995 425 995Q495 995 495 1075Q495 1155 425 1155M425 450Q670 450 670 225Q670 0 425 0Q180 0 180 225Q180 450 425 450M425 305Q355 305 355 225Q355 145 425 145Q495 145 495 225Q495 305 425 305Z"  horiz-adv-x="850" vert-adv-y="2048"  />

      
      <glyph glyph-name="uni17C8" unicode="&#x17C8;" d="M325 1220Q372 1220 411 1201Q452 1182 476 1145.50Q500 1109 500 1070Q500 1031 477 996Q454 960 412.50 940Q371 920 325 920Q281 920 238 940Q196 960 173 995.50Q150 1031 150 1070Q150 1108 173 1145Q196 1181 238 1200.50Q280 1220 325 1220M325 330Q372 330 411 311Q452 292 476 255.50Q500 219 500 180Q500 141 477 106Q454 70 412.50 50Q371 30 325 30Q281 30 238 50Q196 70 173 105.50Q150 141 150 180Q150 218 173 255Q196 291 238 310.50Q280 330 325 330Z"  horiz-adv-x="680" vert-adv-y="2048"  />

      
      <glyph glyph-name="uni17DC" unicode="&#x17DC;" d="M388 822Q388 739 443 699Q498 658 675 658Q1150 658 1150 379Q1150 190 1031 95Q912 0 675 0Q437 0 319 73Q200 147 200 293Q200 381 245 424Q289 466 429 468Q459 468 474 453Q489 438 489 408Q489 379 474 365Q459 350 429 350Q388 350 388 292Q388 205 443 181Q496 156 675 156Q794 156 856 175.50Q918 195 940.50 244Q963 293 963 380Q963 463 908 503Q853 543 675 543Q201 543 200 822Q200 1011 319 1106Q437 1200 675 1200Q913 1200 1031 1127Q1150 1055 1150 910Q1150 822 1105 778Q1061 734 922 734Q892 734 877 749Q862 764 862 793Q862 822 877 837Q893 851 922 851Q963 851 963 910Q963 997 908 1021Q853 1045 675 1045Q557 1045 495 1025.50Q433 1006 410.50 958Q388 910 388 822Z"  horiz-adv-x="1350" vert-adv-y="2048"  />

      
      <glyph glyph-name="uni30" unicode="&#x30;" d="M1075 733Q1075 564 1047 425Q1019 286 958 187Q897 88 802 34Q707-20 573-20Q433-20 337 34Q241 88 182 187Q122 286 96 425.50Q70 565 70 735Q70 905 96 1043Q122 1181 182 1279Q241 1377 337.50 1430Q434 1483 575 1483Q708 1483 803 1430Q898 1377 959 1279Q1019 1181 1047 1042.50Q1075 904 1075 733M387 733Q387 586 395 471.50Q403 357 424 277Q444 198 480 155.50Q516 113 573 113Q630 113 666 155.50Q702 198 723 277Q743 357 750.50 471.50Q758 586 758 733Q758 880 750.50 994.50Q743 1109 723 1188Q703 1267 667 1308.50Q631 1350 575 1350Q518 1350 481.50 1308.50Q445 1267 424 1188Q403 1109 395 994.50Q387 880 387 733Z"  horiz-adv-x="1145" vert-adv-y="2048"  />

      
      <glyph glyph-name="uni31" unicode="&#x31;" d="M1044 109L1044 0L199 0L199 109L367 109Q423 109 446 140Q469 171 469 242L469 1268Q402 1185 336 1120Q270 1055 205 1055Q153 1055 119.50 1098Q86 1141 86 1206Q158 1225 233 1261Q308 1297 401 1364L545 1470L774 1470L774 242Q774 176 795 142.50Q816 109 879 109L1044 109Z"  horiz-adv-x="1145" vert-adv-y="2048"  />

      
      <glyph glyph-name="uni32" unicode="&#x32;" d="M999 1143Q999 1093 989 1050Q969 963 889 856Q851 805 790 738Q731 674 652.50 595.50Q574 517 471 420L266 225L743 225Q876 225 913 367L930 430L1051 430L1040 0L72 0L72 211L375 520Q559 707 627 844Q662 915 676 984.50Q690 1054 690 1133Q690 1250 647.50 1304Q605 1358 530 1358Q426 1358 384 1268.50Q342 1179 342 1004Q225 1004 152.50 1050.50Q80 1097 80 1206Q80 1323 193 1400Q249 1438 333.50 1460.50Q418 1483 530 1483Q757 1483 880 1392Q999 1303 999 1143Z"  horiz-adv-x="1145" vert-adv-y="2048"  />

      
      <glyph glyph-name="uni33" unicode="&#x33;" d="M498-20Q382-20 298.50 0Q215 20 162 54Q108 88 82.50 132.50Q57 177 57 225Q57 302 108 343.50Q159 385 231 385Q231 258 299.50 190.50Q368 123 483 123Q533 123 578.50 137Q624 151 659 185Q694 219 714.50 277.50Q735 336 735 424Q735 545 654 617Q614 652 554.50 672Q495 692 418 692L291 692L291 819L426 819Q557 819 621.50 901.50Q686 984 686 1120Q686 1232 643 1295Q600 1358 516 1358Q444 1358 406 1312.50Q368 1267 354 1194.50Q340 1122 340 1040Q212 1040 143 1084.50Q74 1129 74 1223Q74 1336 188 1408Q245 1443 329.50 1463Q414 1483 526 1483Q747 1483 872 1396Q999 1308 999 1149Q999 1080 975 1022Q951 964 909 918Q867 872 810 837.50Q753 803 686 780Q748 769 812.50 744.50Q877 720 930 678Q983 636 1017 573Q1051 510 1051 422Q1051 297 1004.50 212Q958 127 881 76Q803 24 703.50 2Q604-20 498-20Z"  horiz-adv-x="1145" vert-adv-y="2048"  />

      
      <glyph glyph-name="uni34" unicode="&#x34;" d="M1106 516L1106 381L893 381L893 256Q893 165 939 137Q985 109 1061 109L1087 109L1087 0L369 0L369 109L426 109Q503 109 548.50 137Q594 165 594 256L594 381L27 381L27 506L608 1462L893 1462L893 516L1106 516M170 516L594 516L594 874Q594 964 597 1068Q600 1172 608 1268Q598 1244 576.50 1203Q555 1162 529.50 1116.50Q504 1071 481 1032Q458 993 446 973L170 516Z"  horiz-adv-x="1145" vert-adv-y="2048"  />

      
      <glyph glyph-name="uni35" unicode="&#x35;" d="M471 123Q522 123 568 139.50Q614 156 648 193Q683 231 703 294Q723 357 723 451Q723 604 650 679Q577 754 444 754Q374 754 320.50 743Q267 732 217 717L123 754L188 1462L963 1462L973 1090L856 1090L840 1159Q830 1197 811 1217Q792 1237 745 1237L319 1237Q319 1235 316 1197Q313 1159 309 1114Q305 1069 303 1046L287 858Q320 871 388.50 880Q457 889 512 889Q754 889 893 780Q961 725 998.50 643Q1036 561 1036 451Q1036 318 987.50 227.50Q939 137 862 82Q785 27 690 3.50Q595-20 502-20Q387-20 307 1Q227 22 177 56Q127 91 104.50 135Q82 179 82 227Q82 299 126.50 334Q171 369 246 369Q246 272 299.50 197.50Q353 123 471 123Z"  horiz-adv-x="1145" vert-adv-y="2048"  />

      
      <glyph glyph-name="uni36" unicode="&#x36;" d="M657 1362Q537 1362 465 1221Q393 1083 381 821Q430 854 500 875.50Q570 897 664 897Q850 897 962 785Q1015 730 1044 651.50Q1073 573 1073 473Q1073 248 954 117Q894 52 805.50 16Q717-20 600-20Q486-20 392.50 21.50Q299 63 233 149Q166 235 129 366Q92 497 92 676Q92 845 127.50 992Q163 1139 236 1248Q308 1357 418 1420Q528 1483 676 1483Q775 1483 844 1464.50Q913 1446 956 1414Q999 1383 1018.50 1342Q1038 1301 1038 1257Q1038 1184 975.50 1141Q913 1098 793 1098Q793 1161 781.50 1221.50Q770 1282 740.50 1322Q711 1362 657 1362M588 772Q535 772 471.50 742Q408 712 381 674Q382 527 399.50 421Q417 315 448 247Q478 179 518.50 147Q559 115 606 115Q685 115 731 196Q776 276 776 453Q776 619 726 695.50Q676 772 588 772Z"  horiz-adv-x="1145" vert-adv-y="2048"  />

      
      <glyph glyph-name="uni37" unicode="&#x37;" d="M1077 1362L512 0L338 0L883 1239L344 1239Q237 1239 225 1135L213 1032L90 1032L100 1462L1077 1462L1077 1362Z"  horiz-adv-x="1145" vert-adv-y="2048"  />

      
      <glyph glyph-name="uni38" unicode="&#x38;" d="M61 373Q61 439 82.50 492.50Q104 546 144 589Q184 633 239.50 669Q295 705 362 739Q240 810 174.50 900Q109 990 109 1110Q109 1181 133.50 1248.50Q158 1316 214 1368Q270 1420 361 1451.50Q452 1483 584 1483Q692 1483 773.50 1456Q855 1429 910 1381Q1020 1285 1020 1124Q1020 1063 1000.50 1016Q981 969 945 931Q909 892 858 859Q807 826 743 793Q929 702 1006 608Q1047 559 1065 504Q1083 449 1083 387Q1083 193 945 87Q805-20 559-20Q431-20 337.50 11Q244 42 182 95Q121 148 91 220Q61 292 61 373M762 1128Q762 1188 739.50 1242Q717 1296 674.50 1330Q632 1364 571 1364Q486 1364 441.50 1297.50Q397 1231 397 1135Q397 1028 455 969.50Q513 911 618 862Q695 906 728.50 967.50Q762 1029 762 1128M569 96Q676 96 737.50 168.50Q799 241 799 352Q799 449 729 519Q692 554 635.50 587.50Q579 621 500 657Q427 610 382.50 539Q338 468 338 365Q338 248 400.50 172Q463 96 569 96Z"  horiz-adv-x="1145" vert-adv-y="2048"  />

      
      <glyph glyph-name="uni39" unicode="&#x39;" d="M465-20Q372-20 308-0.50Q244 19 204 52Q164 84 146.50 125.50Q129 167 129 211Q129 306 229 328Q260 234 317 171.50Q374 109 475 109Q613 109 688 258Q762 407 772 702Q722 639 647.50 601Q573 563 473 563Q292 563 185 672Q131 725 101.50 804.50Q72 884 72 987Q72 1210 197 1346Q257 1411 344 1447Q431 1483 541 1483Q652 1483 746 1443Q840 1403 909 1319Q977 1235 1015 1105Q1053 975 1053 795Q1053 626 1020.50 477.50Q988 329 917 219Q847 108 735 44Q623-20 465-20M561 711Q635 711 688 748.50Q741 786 772 848Q771 979 755 1073Q739 1167 710 1228Q654 1346 553 1346Q465 1346 417 1259.50Q369 1173 369 999Q369 711 561 711Z"  horiz-adv-x="1145" vert-adv-y="2048"  />

      
      <glyph glyph-name="uni17E0" unicode="&#x17E0;" d="M1220 780L1220 520Q1220 0 700 0Q180 0 180 520L180 780Q180 1300 700 1300Q1220 1300 1220 780M970 520L970 780Q970 1140 700 1140Q430 1140 430 780L430 520Q430 160 700 160Q970 160 970 520Z"  horiz-adv-x="1400" vert-adv-y="2048"  />

      
      <glyph glyph-name="uni17E1" unicode="&#x17E1;" d="M1320 780Q1320 0 570 0L570 150Q1070 150 1070 780Q1070 1140 718 1140Q430 1140 430 844Q430 636 563 636Q701 636 701 723L701 732Q677 726 658 726Q565 726 565 844Q565 961 685 961Q894 961 894 752Q894 476 563 476Q180 476 180 844Q180 1300 718 1300Q1320 1300 1320 780Z"  horiz-adv-x="1500" vert-adv-y="2048"  />

      
      <glyph glyph-name="uni17E2" unicode="&#x17E2;" d="M180 347L180 1320Q180 1436 50 1436Q50 1570 180 1570Q430 1570 430 1320L430 347Q430 160 760 160Q1090 160 1090 347L1090 1040Q1090 1096 1065 1100L1063 1100Q1037 1100 951 977Q867 1100 839 1100L837 1100Q810 1096 810 1040L810 620Q810 547 906 533Q906 433 780 433Q560 433 560 620L560 1040Q560 1111 598 1170Q636 1229 686.50 1264.50Q737 1300 773 1300Q827 1300 951 1184Q1075 1300 1129 1300Q1165 1300 1215 1264.50Q1265 1229 1302.50 1170Q1340 1111 1340 1040L1340 347Q1340 0 760 0Q180 0 180 347Z"  horiz-adv-x="1520" vert-adv-y="2048"  />

      
      <glyph glyph-name="uni17E3" unicode="&#x17E3;" d="M180 213L180 997Q180 1300 575 1300Q752 1300 845 1207Q938 1300 1115 1300Q1510 1300 1510 997L1510 0L1260 0L1260 997Q1260 1140 1115 1140Q970 1140 970 997L970 0L720 0L720 997Q720 1140 575 1140Q430 1140 430 997L430 213Q430 168 459 168Q478 168 478 201Q478 248 442 275L478 325Q585 275 585 174Q585 0 382 0Q180 0 180 213Z"  horiz-adv-x="1690" vert-adv-y="2048"  />

      
      <glyph glyph-name="uni17E4" unicode="&#x17E4;" d="M1040 597L1040 397Q1040 318 1130 219L1220 120L1220 0L620 0Q180 0 180 265L180 706Q180 1001 575 1124Q970 1247 970 1350Q970 1412 862 1412Q862 1550 1041 1550Q1220 1550 1220 1350Q1220 1165 825 1036Q430 905 430 706L430 265Q430 160 620 160L962 160Q790 326 790 397L790 597Q790 810 992 810Q1200 810 1200 636Q1200 534 1088 485L1052 535Q1088 562 1088 609Q1088 642 1069 642Q1040 642 1040 597Z"  horiz-adv-x="1390" vert-adv-y="2048"  />

      
      <glyph glyph-name="uni17E5" unicode="&#x17E5;" d="M180 265L180 626Q180 874 416 1006Q336 1054 336 1148Q336 1324 548 1324Q760 1324 760 1158Q760 1116 735 1097L866 1074Q874 1073 882 1072.50Q890 1072 897 1072Q970 1072 970 1197L970 1350Q970 1540 1170 1540Q1320 1540 1320 1412Q1220 1412 1220 1350L1220 1147Q1220 882 1005 882L609 940Q578 922 540 904Q430 817 430 626L430 265Q430 160 620 160L962 160Q790 326 790 397L790 527Q790 740 992 740Q1200 740 1200 566Q1200 464 1088 415L1052 465Q1088 492 1088 539Q1088 572 1069 572Q1040 572 1040 527L1040 397Q1040 318 1130 219L1220 120L1220 0L620 0Q180 0 180 265Z"  horiz-adv-x="1400" vert-adv-y="2048"  />

      
      <glyph glyph-name="uni17E6" unicode="&#x17E6;" d="M516 580Q430 580 430 407Q430 110 695 110Q970 110 970 598L970 693Q970 1140 731 1140Q552 1140 430 954Q430 867 275 867Q180 867 180 954L180 1300Q180 1401 50 1401Q50 1547 220 1547Q430 1547 430 1300L430 1183Q568 1300 731 1300Q1220 1300 1220 693L1220 598Q1220 0 696 0Q180 0 180 407Q180 740 514 740Q843 740 843 501Q843 344 712 344Q571 344 571 425Q640 439 640 521Q640 580 516 580Z"  horiz-adv-x="1400" vert-adv-y="2048"  />

      
      <glyph glyph-name="uni17E7" unicode="&#x17E7;" d="M1070 1000L1070 223Q1070 175 1145 175Q1220 175 1220 223L1220 1340Q1220 1456 1070 1456Q1070 1590 1200 1590Q1470 1590 1470 1340L1470 223Q1470 0 1145 0Q820 0 820 223L820 1000Q820 1098 768 1098Q716 1098 667 1004Q650 972 625 972Q600 972 583 1004Q535 1098 483 1098Q430 1098 430 1000L430 230Q430 170 475 170Q530 170 530 268Q530 384 455 433L475 503Q562 503 626 438Q690 373 690 268Q690 0 435 0Q180 0 180 230L180 1000Q180 1082 211 1150Q242 1218 297 1259Q352 1300 424 1300Q532 1300 625 1176Q719 1300 828 1300Q900 1300 954.50 1259Q1009 1218 1039.50 1150Q1070 1082 1070 1000Z"  horiz-adv-x="1650" vert-adv-y="2048"  />

      
      <glyph glyph-name="uni17E8" unicode="&#x17E8;" d="M1220 517L1220 260Q1220 0 912 0Q766 0 695 110Q624 0 489 0Q180 0 180 260L180 867Q180 1300 639 1300Q843 1300 970 1183L970 1300Q970 1517 1220 1517Q1350 1517 1350 1401Q1220 1401 1220 1300L1220 997Q1220 910 1132 910Q984 910 902 1025Q820 1140 639 1140Q430 1140 430 867L430 260Q430 160 489 160Q547 160 570 198Q593 236 593 291Q593 347 695 347Q797 347 797 291Q797 236 825.50 198Q854 160 912 160Q970 160 970 260L970 517Q970 562 941 562Q922 562 922 529Q922 482 958 455L922 405Q815 455 815 556Q815 730 1018 730Q1220 730 1220 517Z"  horiz-adv-x="1400" vert-adv-y="2048"  />

      
      <glyph glyph-name="uni17E9" unicode="&#x17E9;" d="M906 185Q871 215 871 255Q871 274 879 288Q904 333 954 349Q1003 366 1047 366L1056 366Q1102 365 1147 335Q1190 307 1190 216Q1190 125 1044 62Q896 0 670 0Q452 0 316 96Q180 192 180 390Q180 557 264.50 654Q349 751 498 797Q380 872 380 997Q380 1159 461 1229.50Q542 1300 749 1300Q912 1300 970 1233L970 1300Q970 1401 892 1401Q892 1517 1022 1517Q1220 1517 1220 1300L1220 1040Q1220 954 1136 954Q1024 954 1002 997Q918 1140 749 1140Q702 1140 666 1111Q630 1082 630 1001Q630 910 684.50 874Q739 838 800 838Q985 838 1154 720Q1210 676 1210 579Q1210 544 1187 544Q1159 544 1095 597Q980 663 800 663Q693 663 609 637Q525 611 477.50 551.50Q430 492 430 390Q430 300 463.50 250Q497 200 552 180Q607 160 670 160Q799 160 906 185Z"  horiz-adv-x="1400" vert-adv-y="2048"  />

      
      <glyph glyph-name="uni17F0" unicode="&#x17F0;" d="M399-8Q282-8 211 42Q140 92 108.50 173Q77 254 77 350Q77 445 109 527Q141 608 211.50 658.50Q282 709 399 709Q516 709 589 659Q661 608 692.50 527Q724 446 724 350Q724 253 693 173Q662 92 589.50 42Q517-8 399-8M399 166Q450 166 479.50 214Q509 262 509 350Q509 438 479.50 486.50Q450 535 399 535Q347 535 317.50 486.50Q288 438 288 350Q288 262 317.50 214Q347 166 399 166Z"  horiz-adv-x="802" vert-adv-y="2048"  />

      
      <glyph glyph-name="uni17F1" unicode="&#x17F1;" d="M446 500L272 0L57 0L297 700L596 700L837 0L620 0L446 500Z"  horiz-adv-x="892" vert-adv-y="2048"  />

      
      <glyph glyph-name="uni17F2" unicode="&#x17F2;" d="M280 700L280 0L65 0L65 700L280 700Z"  horiz-adv-x="346" vert-adv-y="2048"  />

      
      <glyph glyph-name="uni17F3" unicode="&#x17F3;" d="M761 215L929 700L1226 700L1455 0L1240 0L1077 500L905 0L620 0L446 500L284 0L69 0L296 700L595 700L761 215Z"  horiz-adv-x="1525" vert-adv-y="2048"  />

      
      <glyph glyph-name="uni17F4" unicode="&#x17F4;" d="M837 700L598 0L299 0L57 700L272 700L448 201L620 700L837 700Z"  horiz-adv-x="892" vert-adv-y="2048"  />

      
      <glyph glyph-name="uni17F5" unicode="&#x17F5;" d="M401-23Q274-23 196 37.50Q118 98 118 201Q118 264 153 329.50Q188 395 280 475L57 700L276 700L399 578L530 700L747 700L518 475Q618 395 650 327.50Q682 260 682 201Q682 98 605 37.50Q528-23 401-23M313 201Q313 164 338.50 142.50Q364 121 399 121Q434 121 459.50 141.50Q485 162 487 199Q487 238 464.50 273.50Q442 309 399 358Q356 309 334.50 273.50Q313 238 313 201Z"  horiz-adv-x="804" vert-adv-y="2048"  />

      
      <glyph glyph-name="uni17F6" unicode="&#x17F6;" d="M272 700L516 0L301 0L57 700L272 700Z"  horiz-adv-x="550" vert-adv-y="2048"  />

      
      <glyph glyph-name="uni17F7" unicode="&#x17F7;" d="M466 500L284 0L69 0L309 700L620 700L821 211L997 700L1212 700L962 0L675 0L466 500Z"  horiz-adv-x="1282" vert-adv-y="2048"  />

      
      <glyph glyph-name="uni17F8" unicode="&#x17F8;" d="M512 700L268 0L57 0L297 700L512 700Z"  horiz-adv-x="569" vert-adv-y="2048"  />

      
      <glyph glyph-name="uni17F9" unicode="&#x17F9;" d="M466-350L466-201Q516-201 564-183.50Q612-166 612-119Q612-86 588.50-65.50Q565-45 499-45L106-45L67 113L651 567L761 418L339 100L595 100Q698 100 765.50 41Q833-18 833-115Q833-227 744-288.50Q655-350 466-350Z"  horiz-adv-x="899" vert-adv-y="2048"  />

      
      <glyph glyph-name="uni2e" unicode="&#x2e;" d="M133 147Q133 236 179 273.50Q225 311 301 311Q375 311 422 273.50Q469 236 469 147Q469 61 422 22.50Q375-16 301-16Q225-16 179 22Q133 60 133 147Z"  horiz-adv-x="602" vert-adv-y="2048"  />

      
      <glyph glyph-name="uni2c" unicode="&#x2c;" d="M459 86Q459 21 439-40Q419-101 375-153Q331-205 261.50-246.50Q192-288 92-315L92-209Q174-180 223-145.50Q272-111 272-49Q272-22 248.50-4.50Q225 13 198 29Q166 48 144.50 82Q123 116 123 170Q123 239 165 275Q207 311 270 311Q357 311 408 251Q459 191 459 86Z"  horiz-adv-x="602" vert-adv-y="2048"  />

      
      <glyph glyph-name="uni3a" unicode="&#x3a;" d="M143 952Q143 1041 189 1078.50Q235 1116 311 1116Q385 1116 432 1078.50Q479 1041 479 952Q479 865 432 826.50Q385 788 311 788Q235 788 189 826Q143 864 143 952M143 147Q143 236 189 273.50Q235 311 311 311Q385 311 432 273.50Q479 236 479 147Q479 61 432 22.50Q385-16 311-16Q235-16 189 22Q143 60 143 147Z"  horiz-adv-x="623" vert-adv-y="2048"  />

      
      <glyph glyph-name="uni3b" unicode="&#x3b;" d="M143 952Q143 1041 189 1078.50Q235 1116 311 1116Q385 1116 432 1078.50Q479 1041 479 952Q479 865 432 826.50Q385 788 311 788Q235 788 189 826Q143 864 143 952M459 86Q459 21 439-40Q419-101 375-153Q331-205 261.50-246.50Q192-288 92-315L92-209Q174-180 223-145.50Q272-111 272-49Q272-22 248.50-4.50Q225 13 198 29Q166 48 144.50 82Q123 116 123 170Q123 239 165 275Q207 311 270 311Q357 311 408 251Q459 191 459 86Z"  horiz-adv-x="623" vert-adv-y="2048"  />

      
      <glyph glyph-name="uni21" unicode="&#x21;" d="M449 467L334 467L213 1462L569 1462L449 467M225 147Q225 236 271 273.50Q317 311 393 311Q467 311 514 273.50Q561 236 561 147Q561 61 514 22.50Q467-16 393-16Q317-16 271 22Q225 60 225 147Z"  horiz-adv-x="782" vert-adv-y="2048"  />

      
      <glyph glyph-name="uni3f" unicode="&#x3f;" d="M1014 1106Q1014 948 912 840Q861 786 784.50 740.50Q708 695 606 653L565 467L440 467L399 719Q487 754 543 801.50Q599 849 632 904Q664 958 676 1018Q688 1078 688 1139Q688 1236 651 1298Q614 1360 528 1360Q467 1360 431.50 1324Q396 1288 380.50 1229.50Q365 1171 365 1102Q288 1102 222 1116.50Q156 1131 116 1162.50Q76 1194 76 1245Q76 1351 182 1414Q235 1446 317 1464.50Q399 1483 512 1483Q733 1483 871 1384Q938 1335 976 1265Q1014 1195 1014 1106M332 147Q332 236 378 273.50Q424 311 500 311Q574 311 621 273.50Q668 236 668 147Q668 61 621 22.50Q574-16 500-16Q424-16 378 22Q332 60 332 147Z"  horiz-adv-x="1126" vert-adv-y="2048"  />

      
      <glyph glyph-name="uni2a" unicode="&#x2a;" d="M72 1071L391 1155L72 1237L164 1444L469 1223L401 1556L631 1556L557 1227L864 1440L956 1235L637 1155L956 1073L864 870L557 1083L629 752L401 752L467 1085L164 868L72 1071Z"  horiz-adv-x="1028" vert-adv-y="2048"  />

      
      <glyph glyph-name="uni23" unicode="&#x23;" d="M864 922L795 551L1022 551L1022 410L766 410L690 0L545 0L621 410L408 410L330 0L184 0L262 410L57 410L57 551L289 551L360 922L123 922L123 1065L387 1065L459 1462L606 1462L532 1065L745 1065L821 1462L967 1462L891 1065L1087 1065L1087 922L864 922M721 922L506 922L434 551L649 551L721 922Z"  horiz-adv-x="1145" vert-adv-y="2048"  />

      
      <glyph glyph-name="uni2f" unicode="&#x2f;" d="M446 1556L590 1556L147-250L0-248L446 1556Z"  horiz-adv-x="590" vert-adv-y="2048"  />

      
      <glyph glyph-name="uni5c" unicode="&#x5c;" d="M590-248L442-248L0 1556L145 1556L590-248Z"  horiz-adv-x="590" vert-adv-y="2048"  />

      
      <glyph glyph-name="uni28" unicode="&#x28;" d="M446 651Q446 529 458.50 411.50Q471 294 505 190Q539 85 599-3Q659-91 754-154L754-285Q583-216 462.50-123.50Q342-31 265 86Q189 203 153 344Q117 485 117 651Q117 816 153 956.50Q189 1097 265 1213Q342 1329 462.50 1421Q583 1513 754 1581L754 1452Q659 1389 599 1301.50Q539 1214 505 1110Q471 1006 458.50 889.50Q446 773 446 651Z"  horiz-adv-x="819" vert-adv-y="2048"  />

      
      <glyph glyph-name="uni29" unicode="&#x29;" d="M373 651Q373 773 360.50 889.50Q348 1006 315 1110Q281 1214 221 1301.50Q161 1389 66 1452L66 1581Q237 1513 358.50 1421Q480 1329 556 1213Q633 1097 667.50 956.50Q702 816 702 651Q702 485 667.50 344Q633 203 556 86Q480-31 358.50-123.50Q237-216 66-285L66-154Q161-91 221-3Q281 85 315 190Q348 294 360.50 411.50Q373 529 373 651Z"  horiz-adv-x="819" vert-adv-y="2048"  />

      
      <glyph glyph-name="uni7b" unicode="&#x7b;" d="M844-147L844-256L649-256Q480-256 388-175Q299-95 299 47L299 397Q299 510 233 548Q167 586 61 590L61 715Q167 720 233 756.50Q299 793 299 905L299 1257Q299 1401 387.50 1478.50Q476 1556 649 1556L844 1556L844 1448L764 1448Q676 1448 647 1396Q618 1344 618 1249L618 901Q618 808 565 748.50Q512 689 393 662L393 645Q511 616 564.50 556Q618 496 618 403L618 53Q618-43 647-95Q676-147 764-147L844-147Z"  horiz-adv-x="905" vert-adv-y="2048"  />

      
      <glyph glyph-name="uni7d" unicode="&#x7d;" d="M256-256L61-256L61-147L141-147Q229-147 258-95Q287-43 287 53L287 403Q287 496 340.50 556Q394 616 512 645L512 662Q393 689 340 748.50Q287 808 287 901L287 1249Q287 1344 258 1396Q229 1448 141 1448L61 1448L61 1556L256 1556Q429 1556 517.50 1478.50Q606 1401 606 1257L606 905Q606 793 672 756.50Q738 720 844 715L844 590Q738 586 672 548Q606 510 606 397L606 47Q606-95 517-175Q425-256 256-256Z"  horiz-adv-x="905" vert-adv-y="2048"  />

      
      <glyph glyph-name="uni5b" unicode="&#x5b;" d="M772-154L772-262L205-262L205 1556L772 1556L772 1448L684 1448Q608 1448 562 1420Q516 1392 516 1300L516-6Q516-97 562-125.50Q608-154 684-154L772-154Z"  horiz-adv-x="848" vert-adv-y="2048"  />

      
      <glyph glyph-name="uni5d" unicode="&#x5d;" d="M76 1448L76 1556L643 1556L643-262L76-262L76-154L164-154Q241-154 286.50-125.50Q332-97 332-6L332 1300Q332 1392 286.50 1420Q241 1448 164 1448L76 1448Z"  horiz-adv-x="848" vert-adv-y="2048"  />

      
      <glyph glyph-name="uni2d" unicode="&#x2d;" d="M584 666L584 451L51 451L51 666L584 666Z"  horiz-adv-x="635" vert-adv-y="2048"  />

      
      <glyph glyph-name="uniad" unicode="&#xad;" d="M584 666L584 451L51 451L51 666L584 666Z"  horiz-adv-x="635" vert-adv-y="2048"  />

      
      <glyph glyph-name="uni5f" unicode="&#x5f;" d="M-10-170L950-170L950-291L-10-291L-10-170Z"  horiz-adv-x="940" vert-adv-y="2048"  />

      
      <glyph glyph-name="uniab" unicode="&#xab;" d="M446 143L133 500L133 606L446 963L590 963L383 553L590 143L446 143M858 143L545 500L545 606L858 963L1001 963L795 553L1001 143L858 143Z"  horiz-adv-x="1135" vert-adv-y="2048"  />

      
      <glyph glyph-name="unibb" unicode="&#xbb;" d="M276 963L590 606L590 500L276 143L133 143L340 553L133 963L276 963M688 963L1001 606L1001 500L688 143L545 143L752 553L545 963L688 963Z"  horiz-adv-x="1135" vert-adv-y="2048"  />

      
      <glyph glyph-name="uni22" unicode="&#x22;" d="M365 899L229 899L137 1462L457 1462L365 899M831 899L696 899L584 1462L903 1462L831 899Z"  horiz-adv-x="1040" vert-adv-y="2048"  />

      
      <glyph glyph-name="uni27" unicode="&#x27;" d="M365 899L229 899L137 1462L457 1462L365 899Z"  horiz-adv-x="594" vert-adv-y="2048"  />

      
      <glyph glyph-name="uni17D4" unicode="&#x17D4;" d="M920 1192L920 1300L1170 1300L1170 255Q1170 0 950 0Q770 0 770 151Q920 151 920 255L920 961Q801 800 630 800Q280 800 280 1050Q280 1300 550 1300Q680 1300 680 1170Q530 1170 530 1050Q530 960 630 960Q778 960 920 1192Z"  horiz-adv-x="1350" vert-adv-y="2048"  />

      
      <glyph glyph-name="uni17D5" unicode="&#x17D5;" d="M920 1192L920 1300L1170 1300L1170 255Q1170 0 950 0Q770 0 770 151Q920 151 920 255L920 961Q801 800 630 800Q280 800 280 1050Q280 1300 550 1300Q680 1300 680 1170Q530 1170 530 1050Q530 960 630 960Q778 960 920 1192M1280 180L1280 1300L1530 1300L1530 180Q1530 0 1180 0Q1230 23 1255 54Q1280 86 1280 180Z"  horiz-adv-x="1710" vert-adv-y="2048"  />

      
      <glyph glyph-name="uni17D6" unicode="&#x17D6;" d="M425 1300Q670 1300 670 1075Q670 850 425 850Q180 850 180 1075Q180 1300 425 1300M425 1155Q355 1155 355 1075Q355 995 425 995Q495 995 495 1075Q495 1155 425 1155M850 725L850 575L50 575L50 725L850 725M425 450Q670 450 670 225Q670 0 425 0Q180 0 180 225Q180 450 425 450M425 305Q355 305 355 225Q355 145 425 145Q495 145 495 225Q495 305 425 305Z"  horiz-adv-x="900" vert-adv-y="2048"  />

      
      <glyph glyph-name="uni17D7" unicode="&#x17D7;" d="M1069 1000L1069 303Q1069 0 608 0Q199 0 199 172Q199 322 417 322Q417 150 608 150Q819 150 819 303L819 1000Q819 1098 767 1098Q715 1098 666 1004Q649 972 624 972Q599 972 582 1004Q534 1098 482 1098Q429 1098 429 1000L429 953Q429 918 458 918Q487 918 501 965Q544 947 544 894Q544 760 392 760Q179 760 179 953L179 1000Q179 1082 210 1150Q241 1218 296 1259Q351 1300 423 1300Q531 1300 624 1176Q718 1300 827 1300Q899 1300 953.50 1259Q1008 1218 1038.50 1150Q1069 1082 1069 1000Z"  horiz-adv-x="1290" vert-adv-y="2048"  />

      
      <glyph glyph-name="uni17D8" unicode="&#x17D8;" d="M920 1192L920 1300L1170 1300L1170 255Q1170 0 950 0Q770 0 770 151Q920 151 920 255L920 961Q801 800 630 800Q280 800 280 1050Q280 1300 550 1300Q680 1300 680 1170Q530 1170 530 1050Q530 960 630 960Q778 960 920 1192M3020 806L3020 300Q3020 0 2600 0Q2180 0 2180 300L2180 1000Q2180 1140 1980 1140Q1780 1140 1780 1000L1780 230Q1780 170 1825 170Q1880 170 1880 268Q1880 384 1805 433L1825 503Q1912 503 1976 438Q2040 373 2040 268Q2040 0 1785 0Q1530 0 1530 230L1530 1000Q1530 1300 1980 1300Q2430 1300 2430 1000L2430 300Q2430 160 2600 160Q2770 160 2770 300L2770 756Q2770 863 2680 882L2640 1004Q2656 1072 2689.50 1140.50Q2723 1209 2765 1254.50Q2807 1300 2848 1300Q2910 1300 2982 1255Q3054 1210 3084 1210Q3124 1210 3150 1223Q3131 1016 3015 1016Q2940 1016 2861 1074Q2829 1074 2806 991Q3020 933 3020 806M4020 1192L4020 1300L4270 1300L4270 255Q4270 0 4050 0Q3870 0 3870 151Q4020 151 4020 255L4020 961Q3901 800 3730 800Q3380 800 3380 1050Q3380 1300 3650 1300Q3780 1300 3780 1170Q3630 1170 3630 1050Q3630 960 3730 960Q3878 960 4020 1192Z"  horiz-adv-x="4450" vert-adv-y="2048"  />

      
      <glyph glyph-name="uni17D9" unicode="&#x17D9;" d="M850 0Q526 0 363 163Q200 325 200 650Q200 975 363 1138Q527 1300 850 1300Q1175 1300 1338 1138Q1500 975 1500 650Q1500 325 1338 163Q1175 0 850 0M850 1161Q339 1161 339 650Q339 139 850 139Q1361 139 1361 650Q1361 1161 850 1161M850 279Q663 279 571 371Q479 465 479 650Q479 835 571 929Q663 1021 850 1021Q1037 1021 1129 929Q1221 835 1221 650Q1221 465 1129 371Q1037 279 850 279M850 882Q735 882 676 825Q618 767 618 650Q618 534 676 476Q734 418 850 418Q966 418 1024 476Q1082 534 1082 650Q1082 767 1024 825Q966 882 850 882Z"  horiz-adv-x="1700" vert-adv-y="2048"  />

      
      </font>
</defs>
</svg>
