<svg width="159" height="402" viewBox="0 0 159 402" fill="none" xmlns="http://www.w3.org/2000/svg">
<path d="M129.501 349.494C120.534 341.412 115.492 319.006 116.546 317.837C117.6 316.667 140.257 319.53 149.224 327.612C158.19 335.694 157.332 337.878 149.016 347.103C140.701 356.329 138.467 357.576 129.501 349.494Z" fill="black"/>
<path d="M16.7887 253.828C19.5149 242.069 36.6738 226.803 38.2073 227.158C39.7407 227.514 48.2128 248.722 45.4866 260.481C42.7604 272.24 40.4336 272.547 28.3348 269.742C16.236 266.937 14.0625 265.587 16.7887 253.828Z" fill="black"/>
<path d="M117.163 195.835C122.21 184.869 142.1 173.387 143.53 174.045C144.96 174.703 148.971 197.186 143.924 208.151C138.877 219.117 136.536 218.947 125.254 213.754C113.972 208.562 112.116 206.8 117.163 195.835Z" fill="black"/>
<path d="M15.9062 119.083C9.67598 108.744 11.3643 85.839 12.7125 85.0265C14.0608 84.2141 34.908 93.5392 41.1382 103.878C47.3685 114.217 45.9118 116.057 35.2742 122.468C24.6366 128.878 22.1365 129.422 15.9062 119.083Z" fill="black"/>
<path d="M24.9824 389.105C24.9824 377.033 38.2502 358.287 39.8243 358.287C41.3985 358.287 54.4414 377.033 54.4414 389.105C54.4414 401.176 52.244 402 39.8243 402C27.4046 402 24.9824 401.176 24.9824 389.105Z" fill="black"/>
<path d="M118.043 30.8179C118.043 18.7468 131.311 -4.95911e-05 132.885 -4.95911e-05C134.459 -4.95911e-05 147.502 18.7468 147.502 30.8179C147.502 42.889 145.305 43.7134 132.885 43.7134C120.465 43.7134 118.043 42.889 118.043 30.8179Z" fill="black"/>
</svg>
