<svg width="159" height="402" viewBox="0 0 159 402" fill="none" xmlns="http://www.w3.org/2000/svg">
<path d="M29.3019 52.5059C38.2684 60.5876 43.3107 82.9942 42.2568 84.1635C41.2028 85.3328 18.5453 82.4699 9.57879 74.3882C0.612316 66.3064 1.47118 64.1223 9.78629 54.8969C18.1014 45.6715 20.3355 44.4241 29.3019 52.5059Z" fill="black"/>
<path d="M142.014 148.172C139.288 159.931 122.129 175.197 120.595 174.842C119.062 174.486 110.59 153.278 113.316 141.519C116.042 129.76 118.369 129.453 130.468 132.258C142.567 135.063 144.74 136.413 142.014 148.172Z" fill="black"/>
<path d="M41.6398 206.165C36.5929 217.131 16.7025 228.613 15.2725 227.955C13.8425 227.297 9.83217 204.814 14.879 193.849C19.9259 182.883 22.2666 183.053 33.5487 188.246C44.8308 193.438 46.6866 195.2 41.6398 206.165Z" fill="black"/>
<path d="M142.897 282.917C149.127 293.256 147.438 316.161 146.09 316.973C144.742 317.786 123.895 308.461 117.664 298.122C111.434 287.783 112.891 285.943 123.528 279.532C134.166 273.122 136.666 272.578 142.897 282.917Z" fill="black"/>
<path d="M133.82 12.8955C133.82 24.9666 120.553 43.7134 118.978 43.7134C117.404 43.7134 104.361 24.9666 104.361 12.8955C104.361 0.824332 106.559 0 118.978 0C131.398 0 133.82 0.824332 133.82 12.8955Z" fill="black"/>
<path d="M40.7598 371.182C40.7598 383.253 27.492 402 25.9179 402C24.3437 402 11.3008 383.253 11.3008 371.182C11.3008 359.111 13.4982 358.287 25.9179 358.287C38.3376 358.287 40.7598 359.111 40.7598 371.182Z" fill="black"/>
</svg>
