<svg width="239" height="605" viewBox="0 0 239 605" fill="none" xmlns="http://www.w3.org/2000/svg">
<path d="M44.0813 78.9889C57.5703 91.147 65.1558 124.855 63.5703 126.614C61.9848 128.373 27.8992 124.066 14.4102 111.908C0.921158 99.7502 2.21322 96.4644 14.7223 82.5859C27.2314 68.7074 30.5923 66.8309 44.0813 78.9889Z" fill="black"/>
<path d="M213.643 222.907C209.542 240.598 183.728 263.564 181.421 263.029C179.114 262.494 166.369 230.589 170.47 212.898C174.571 195.208 178.072 194.747 196.273 198.966C214.474 203.186 217.744 205.217 213.643 222.907Z" fill="black"/>
<path d="M62.6417 310.152C55.0493 326.648 25.1264 343.922 22.9752 342.932C20.824 341.942 14.7909 308.119 22.3833 291.623C29.9757 275.127 33.4971 275.382 50.4697 283.194C67.4423 291.005 70.234 293.655 62.6417 310.152Z" fill="black"/>
<path d="M214.971 425.616C224.344 441.169 221.804 475.627 219.776 476.849C217.748 478.072 186.385 464.043 177.013 448.489C167.64 432.935 169.831 430.167 185.834 420.524C201.837 410.88 205.599 410.062 214.971 425.616Z" fill="black"/>
<path d="M201.318 19.3997C201.318 37.5593 181.358 65.7617 178.99 65.7617C176.622 65.7617 157 37.5593 157 19.3997C157 1.24011 160.306 0 178.99 0C197.674 0 201.318 1.24011 201.318 19.3997Z" fill="black"/>
<path d="M61.3177 558.4C61.3177 576.559 41.3578 604.762 38.9897 604.762C36.6216 604.762 17 576.559 17 558.4C17 540.24 20.3057 539 38.9897 539C57.6736 539 61.3177 540.24 61.3177 558.4Z" fill="black"/>
</svg>
