<svg width="1077" height="1864" viewBox="0 0 1077 1864" fill="none" xmlns="http://www.w3.org/2000/svg">
<path d="M280.501 1058.48C280.501 1073.07 279.491 1086.04 275.22 1095.28C273.139 1099.79 270.347 1103.26 266.623 1105.63C262.894 1108 257.892 1109.5 251.036 1109.5C237.094 1109.5 219.204 1103.31 204.768 1093.45C190.161 1083.48 180.501 1070.78 180.501 1058.48C180.501 1043.94 181.599 1030.43 185.996 1020.66C188.15 1015.87 191.022 1012.16 194.802 1009.62C198.566 1007.09 203.564 1005.5 210.358 1005.5C224.214 1005.5 241.973 1012.12 256.337 1022.47C270.855 1032.92 280.501 1046.12 280.501 1058.48Z" fill="white" stroke="black" stroke-width="9"/>
<path d="M669.516 487.49L670.11 487.68L670.733 487.68C710.752 487.68 803.296 500.611 865.846 515.199C881.458 518.839 895.096 522.56 905.521 526.176C910.737 527.985 915.073 529.741 918.418 531.415C921.854 533.135 923.893 534.597 924.857 535.685C924.985 535.829 925.078 535.949 925.145 536.044C924.692 536.486 923.485 537.36 920.687 538.388C913.989 540.847 901.457 543.053 881.411 544.675L877.733 544.972L877.733 548.662C877.733 560.236 877.141 569.139 876.083 575.911C875.019 582.726 873.519 587.129 871.874 589.886C870.3 592.524 868.679 593.535 867.134 593.923C865.411 594.354 863.166 594.165 860.169 593.229C857.188 592.299 853.906 590.778 850.219 588.99C849.702 588.739 849.178 588.483 848.646 588.224C845.483 586.682 842.08 585.023 838.645 583.636C830.692 580.426 821.393 578.172 812.459 582.594L811.318 583.158L810.714 584.278C801.118 602.048 789.837 608.472 777.967 610.091C766.341 611.677 753.802 608.755 740.477 605.65C739.596 605.445 738.712 605.239 737.824 605.033C723.956 601.821 709.139 598.691 695.632 602.586C681.728 606.596 670.112 617.695 661.595 640.482C658.604 645.695 655.689 647.619 653.123 648.172C650.363 648.768 646.931 648.021 642.508 645.682C638.122 643.363 633.34 639.793 628.068 635.596C626.65 634.468 625.196 633.293 623.713 632.094C619.789 628.924 615.662 625.589 611.473 622.516C600.058 614.143 586.753 606.582 572.613 608.912C558.715 611.202 545.656 622.7 533.34 647.458C507.987 645.041 491.444 636.744 481.575 628.224C476.449 623.8 473.141 619.332 471.292 615.602C469.34 611.663 469.304 609.177 469.556 608.372C469.752 607.744 469.92 607.155 470.032 606.639C470.088 606.382 470.144 606.078 470.177 605.758C470.204 605.496 470.247 604.942 470.12 604.299C470.012 603.757 469.539 602.027 467.623 601.251C465.879 600.544 464.434 601.272 464.086 601.458C463.271 601.894 462.687 602.558 462.485 602.788L462.471 602.803C461.629 603.758 460.316 605.642 458.824 607.781C458.469 608.291 458.104 608.815 457.733 609.344C453.582 615.261 447.603 623.45 441.121 629.102C437.879 631.93 434.77 633.886 431.946 634.728C429.275 635.523 426.916 635.323 424.64 633.875C422.194 632.317 419.398 629.031 416.711 622.699C414.04 616.406 411.625 607.452 409.715 595.068L409.068 590.87L404.916 591.769C376.798 597.854 362.887 606.291 354.374 613.511C352.276 615.29 350.543 616.963 349.06 618.434C348.693 618.797 348.349 619.141 348.022 619.467C346.986 620.502 346.124 621.362 345.279 622.124C343.18 624.016 341.883 624.644 340.18 624.679C327.569 624.936 321.001 620.135 314.891 615.668C313.35 614.542 311.839 613.437 310.267 612.44C308.319 611.204 306.132 610.075 303.646 609.565C301.076 609.038 298.413 609.219 295.603 610.262C291.114 611.927 286.315 615.779 280.566 622.193C279.175 612.357 276.298 596.977 268.147 584.046C267.071 582.338 265.567 580.919 263.543 580.249C261.545 579.588 259.581 579.837 257.909 580.409C254.767 581.484 251.63 584.063 248.777 586.791C245.861 589.579 242.728 593.042 239.587 596.514L239.439 596.677C236.204 600.253 232.927 603.87 229.636 607.083C226.329 610.311 223.168 612.97 220.218 614.705C217.241 616.455 214.903 617.013 213.069 616.743C211.385 616.494 209.334 615.427 207.109 612.086C204.835 608.671 202.598 603.175 200.66 594.779L198.544 585.612L193.41 593.496C185.304 605.947 178.47 614.551 172.831 620.087C167.063 625.749 163.059 627.688 160.635 627.925C159.561 628.03 158.807 627.804 158.182 627.399C157.498 626.955 156.726 626.129 155.986 624.68C154.464 621.703 153.49 616.904 153.323 610.546C152.993 597.953 155.862 580.912 161.383 564.614C166.922 548.26 174.935 533.237 184.494 524.278L188.666 520.368L183.563 517.789C161.732 506.757 149.393 498.512 144.028 492.633C141.283 489.625 141.149 488.093 141.212 487.669C141.246 487.437 141.531 486.442 144.276 485.213C146.916 484.03 150.939 483.064 156.359 482.397C161.722 481.737 168.205 481.397 175.617 481.338C190.44 481.22 208.718 482.226 228.688 483.923C268.618 487.317 314.982 493.443 353.354 498.693C358.599 499.41 363.696 500.112 368.607 500.788C381.64 502.581 393.362 504.194 403.054 505.45C416.232 507.157 426.092 508.267 430.31 508.181C483.556 507.097 529.878 499.429 568.496 493.036C571.361 492.561 574.183 492.094 576.963 491.637C597.137 488.32 614.957 485.559 630.503 484.505C646.072 483.448 659.013 484.134 669.516 487.49ZM468.516 608.047C468.512 608.051 468.507 608.055 468.502 608.06C468.506 608.055 468.511 608.05 468.514 608.046C468.545 608.013 468.56 608 468.559 608.002C468.558 608.004 468.544 608.02 468.516 608.047Z" fill="#FF4444" stroke="black" stroke-width="8"/>
<path d="M595.017 526.748L596.574 527.245L598.034 526.51C606.339 522.328 618.51 519.162 633.497 516.953C648.415 514.753 665.835 513.54 684.457 513.115C721.699 512.265 763.488 514.571 799.167 518.311C835.024 522.07 864.178 527.225 876.454 531.901C877.206 532.188 877.868 532.463 878.446 532.725C877.153 533.125 875.409 533.557 873.121 533.987C868.711 534.815 862.712 535.565 854.912 536.196L850.364 536.564L851.324 541.025C852.889 548.296 853.582 553.855 853.621 558.064C853.66 562.311 853.028 564.882 852.228 566.409C851.512 567.777 850.584 568.473 849.333 568.869C847.911 569.319 845.935 569.412 843.253 569.094C840.599 568.779 837.614 568.111 834.275 567.312C833.742 567.185 833.2 567.054 832.65 566.921C829.836 566.241 826.825 565.514 823.824 564.948C816.754 563.616 808.719 562.954 801.727 566.415L800.586 566.98L799.981 568.099C798.333 571.152 795.118 573.676 790.006 575.686C784.9 577.694 778.328 579.019 770.621 579.942C762.942 580.861 754.368 581.357 745.32 581.801C743.691 581.881 742.047 581.959 740.391 582.038C732.895 582.394 725.162 582.762 717.555 583.348C699.105 584.769 680.609 587.509 666.955 595.005C660.041 598.8 654.235 603.882 650.342 610.73C648.068 614.731 646.505 619.234 645.716 624.278C624.905 599.44 597.738 592.592 573.772 595.544C560.499 597.179 548.184 601.812 538.412 608.041C529.739 613.569 522.781 620.544 519.132 628.09C508.44 627.317 501.372 621.753 496.137 614.268C490.932 606.826 487.73 597.765 484.9 589.758C484.569 588.821 484.243 587.899 483.92 586.995C482.448 582.885 480.923 578.861 479.089 576.06C478.159 574.641 476.924 573.171 475.236 572.238C473.371 571.208 471.268 571.011 469.176 571.701C467.268 572.33 465.58 573.623 464.065 575.166C462.518 576.74 460.919 578.818 459.227 581.379C456.122 586.079 452.477 592.762 448.09 601.791C438.901 601.008 433.292 600.101 429.814 599.017C426.196 597.89 425.638 596.821 425.358 596.134C425.115 595.539 424.945 594.748 424.758 593.41C424.719 593.129 424.678 592.82 424.635 592.489C424.489 591.382 424.311 590.024 424.033 588.612C423.269 584.726 421.716 580.099 417.732 574.641C415.283 571.287 412.07 569.535 408.336 569.671C405.006 569.791 401.88 571.411 399.255 573.152C396.616 574.901 393.918 577.169 391.398 579.288L391.246 579.417C388.597 581.643 386.111 583.725 383.686 585.35C381.229 586.996 379.213 587.907 377.566 588.133C376.157 588.326 374.867 588.054 373.434 586.782C371.823 585.352 369.927 582.547 368.047 577.368C366.186 572.241 364.453 565.108 362.955 555.39L362.307 551.191L358.155 552.09C346.585 554.594 339.111 559.545 334.605 565.992C330.156 572.356 328.974 579.65 328.907 586.148C328.859 590.841 329.417 595.538 329.855 599.236C329.934 599.901 330.01 600.535 330.077 601.13C329.905 600.723 329.73 600.294 329.55 599.84C329.055 598.592 328.528 597.158 327.969 595.638C326.63 591.995 325.108 587.855 323.401 584.571C322.162 582.187 320.599 579.767 318.547 578.047C316.352 576.208 313.497 575.112 310.175 575.816C307.122 576.463 304.3 578.512 301.615 581.415C299.101 584.132 296.424 587.91 293.517 592.887C291.104 593.59 289.409 593.357 288.079 592.775C286.363 592.025 284.65 590.431 282.803 587.767C280.961 585.111 279.26 581.807 277.361 578.044C277.257 577.837 277.152 577.63 277.047 577.421C275.281 573.919 273.355 570.098 271.119 566.55C270.165 565.036 268.85 563.852 267.181 563.17C265.558 562.508 263.894 562.44 262.386 562.638C259.508 563.015 256.475 564.468 253.681 566.06C251.093 567.534 248.287 569.383 245.484 571.23C245.173 571.435 244.862 571.639 244.552 571.844C241.384 573.928 238.186 576.001 234.995 577.758C228.362 581.412 222.913 583.027 218.737 581.713C214.918 580.511 210.421 576.197 207.397 563.1L205.566 555.164L200.405 561.465C192.331 571.323 185.853 578.376 180.765 583.148C175.55 588.04 172.181 590.159 170.319 590.751C170.266 590.767 170.216 590.782 170.169 590.796C169.914 589.516 170.011 586.969 170.934 583.001C172.875 574.661 177.788 562.765 184.279 551.013C190.772 539.258 198.623 528.053 206.235 520.918L210.407 517.009L205.304 514.43C196.808 510.137 190.21 506.472 185.285 503.376C180.297 500.24 177.255 497.827 175.67 496.079C175.493 495.883 175.344 495.707 175.221 495.551C175.775 495.375 176.526 495.2 177.51 495.051C183.139 494.203 193.175 494.656 206.515 496.186C219.709 497.699 235.713 500.211 253.032 503.269C285.233 508.955 321.788 516.495 352.957 522.924C355.313 523.41 357.639 523.89 359.929 524.362C376.207 527.717 390.732 530.689 401.945 532.807C407.55 533.866 412.361 534.718 416.168 535.299C419.867 535.863 422.914 536.221 424.816 536.182C464.401 535.376 495.769 531.269 521.325 527.922C524.739 527.475 528.049 527.042 531.261 526.631C558.744 523.122 578.413 521.442 595.017 526.748ZM881.274 531.503C881.275 531.503 881.266 531.512 881.242 531.531C881.261 531.512 881.272 531.503 881.274 531.503ZM330.272 606.635C330.271 606.635 330.273 606.63 330.276 606.621C330.273 606.631 330.272 606.635 330.272 606.635ZM332.6 605.646C332.622 605.66 332.633 605.669 332.633 605.67C332.633 605.671 332.622 605.664 332.6 605.646ZM169.614 590.896C169.615 590.896 169.619 590.896 169.626 590.897C169.618 590.897 169.614 590.896 169.614 590.896Z" fill="white" stroke="black" stroke-width="8"/>
<path d="M175.637 350.78C169.758 297.566 197.19 226.458 249.764 165.773C302.213 105.233 379.103 55.7828 471.003 45.3743C562.971 34.9583 656.741 65.1369 729.091 111.67C765.242 134.921 795.91 162.172 818.248 190.296C840.623 218.466 854.433 247.244 857.342 273.572C860.222 299.648 852.175 321.131 835.563 339.255C818.804 357.54 793.215 372.506 760.994 384.898C696.541 409.684 607.194 423.57 513.951 434.13C420.671 444.695 338.498 450.227 278.227 439.614C248.134 434.315 223.926 425.057 206.567 410.753C189.341 396.56 178.55 377.149 175.637 350.78Z" fill="#FF4444" stroke="black" stroke-width="9"/>
<path d="M223.737 332.82C218.832 288.449 241.715 228.988 285.744 178.167C329.647 127.49 393.994 86.1176 470.881 77.4124C547.835 68.6996 626.341 93.9548 686.937 132.928C717.211 152.399 742.879 175.21 761.565 198.735C780.288 222.305 791.793 246.323 794.215 268.229C796.608 289.884 789.938 307.701 776.134 322.762C762.182 337.984 740.833 350.488 713.85 360.864C659.875 381.619 585.002 393.259 506.773 402.116C428.507 410.978 359.666 415.601 309.217 406.716C284.036 402.281 263.862 394.546 249.43 382.655C235.132 370.875 226.163 354.767 223.737 332.82Z" fill="white" stroke="black" stroke-width="9"/>
<path d="M384.268 195.546C387.074 198.392 389.445 202.498 391.331 207.35C393.197 212.151 394.488 217.419 395.308 222.384C396.127 227.345 396.46 231.907 396.453 235.265C396.45 236.152 396.425 236.932 396.381 237.598C395.566 237.464 394.619 237.288 393.55 237.068C389.449 236.225 383.962 234.816 378.102 232.937C372.239 231.057 366.116 228.742 360.699 226.11C355.227 223.451 350.771 220.609 347.955 217.753C344.617 214.368 342.559 211.936 341.444 210.026C340.393 208.227 340.355 207.193 340.61 206.383C340.913 205.42 341.835 204.132 344.229 202.225C346.607 200.331 350.005 198.154 354.66 195.307C359.314 192.461 362.857 190.393 365.811 189.027C368.786 187.652 370.663 187.233 371.996 187.227C373.123 187.222 374.421 187.509 376.373 188.726C378.453 190.023 380.942 192.172 384.268 195.546ZM396.071 239.846C396.071 239.846 396.072 239.844 396.073 239.839C396.073 239.84 396.073 239.841 396.073 239.841C396.072 239.845 396.071 239.846 396.071 239.846Z" fill="#FF4444" stroke="black" stroke-width="9"/>
<path d="M500.31 127.651C500.714 131.095 499.975 135.545 498.293 140.576C496.634 145.535 494.181 150.699 491.528 155.425C488.879 160.146 486.092 164.323 483.828 167.299C483.047 168.326 482.353 169.176 481.77 169.84C481.064 169.332 480.213 168.67 479.24 167.86C476.389 165.485 472.764 162.061 469.146 158.075C465.525 154.084 461.994 149.621 459.269 145.173C456.507 140.663 454.776 136.492 454.37 133.032C453.865 128.714 453.797 125.844 454.13 123.832C454.43 122.021 455.01 121.15 455.813 120.495C456.813 119.681 458.594 118.857 461.965 118.094C465.293 117.341 469.653 116.751 475.457 116.071C481.258 115.392 485.666 114.954 489.121 114.914C492.618 114.873 494.616 115.256 495.849 115.835C497.692 116.7 499.262 118.699 500.31 127.651ZM483.414 170.894C483.406 170.89 483.396 170.885 483.385 170.88C483.514 170.924 483.534 170.948 483.414 170.894Z" fill="#FF4444" stroke="black" stroke-width="9"/>
<path d="M620.771 175.036C618.898 178.488 615.427 182.367 610.895 186.349C606.412 190.288 601.146 194.107 596 197.442C590.858 200.775 585.938 203.559 582.201 205.439C581.177 205.954 580.268 206.388 579.489 206.74C579.259 206.105 579.014 205.349 578.761 204.48C577.829 201.265 576.892 196.807 576.309 191.835C575.725 186.861 575.507 181.471 575.963 176.377C576.423 171.229 577.549 166.67 579.429 163.205C581.671 159.073 583.429 156.343 585.033 154.538C586.537 152.845 587.655 152.244 588.676 151.959C589.901 151.616 591.773 151.511 594.999 152.043C598.199 152.57 602.177 153.622 607.467 155.136C612.755 156.649 616.679 157.859 619.554 159.07C622.451 160.291 623.788 161.319 624.411 162.218C624.933 162.973 625.199 163.992 624.742 165.956C624.252 168.06 623.004 170.919 620.771 175.036ZM580.382 208.753C580.382 208.752 580.381 208.752 580.381 208.751C580.384 208.755 580.385 208.756 580.385 208.756C580.385 208.757 580.384 208.755 580.382 208.753Z" fill="#FF4444" stroke="black" stroke-width="9"/>
<path d="M515.319 225.311C515.583 228.791 514.676 233.244 512.82 238.247C510.989 243.18 508.367 248.297 505.567 252.968C502.77 257.634 499.859 261.751 497.511 264.676C496.725 265.655 496.028 266.469 495.44 267.11C494.778 266.589 493.987 265.921 493.089 265.109C490.373 262.655 486.934 259.128 483.524 255.037C480.111 250.941 476.805 246.372 474.293 241.839C471.747 237.243 470.198 233.007 469.934 229.512C469.605 225.166 469.65 222.278 470.059 220.26C470.43 218.436 471.04 217.58 471.845 216.953C472.848 216.173 474.619 215.398 477.964 214.721C481.266 214.053 485.582 213.574 491.329 213.042C497.075 212.511 501.432 212.187 504.831 212.235C508.272 212.284 510.209 212.719 511.385 213.323C513.158 214.233 514.636 216.29 515.319 225.311Z" fill="#FF4444" stroke="black" stroke-width="9"/>
<path d="M327.927 300.915C330.733 303.761 333.104 307.868 334.989 312.719C336.855 317.52 338.146 322.788 338.966 327.753C339.785 332.714 340.119 337.276 340.111 340.634C340.109 341.521 340.083 342.301 340.039 342.968C339.224 342.833 338.277 342.657 337.208 342.437C333.108 341.594 327.62 340.185 321.76 338.306C315.897 336.426 309.774 334.111 304.358 331.479C298.886 328.82 294.429 325.978 291.614 323.122C288.276 319.737 286.217 317.306 285.102 315.395C284.051 313.596 284.013 312.562 284.268 311.752C284.571 310.789 285.493 309.501 287.888 307.594C290.265 305.7 293.663 303.523 298.318 300.676C302.972 297.83 306.515 295.762 309.469 294.397C312.444 293.021 314.321 292.602 315.654 292.596C316.781 292.592 318.079 292.878 320.031 294.095C322.111 295.392 324.601 297.542 327.927 300.915ZM339.729 345.216C339.729 345.216 339.73 345.213 339.732 345.209C339.731 345.209 339.731 345.21 339.731 345.21C339.73 345.214 339.729 345.215 339.729 345.216Z" fill="#FF4444" stroke="black" stroke-width="9"/>
<path d="M531.603 319.254C532.007 322.698 531.268 327.148 529.586 332.179C527.927 337.138 525.474 342.302 522.821 347.028C520.172 351.749 517.385 355.926 515.121 358.902C514.34 359.929 513.646 360.779 513.063 361.443C512.357 360.935 511.506 360.273 510.533 359.463C507.682 357.088 504.057 353.664 500.439 349.678C496.818 345.687 493.287 341.224 490.562 336.776C487.8 332.266 486.069 328.095 485.663 324.635C485.158 320.317 485.09 317.447 485.423 315.435C485.723 313.624 486.303 312.753 487.106 312.099C488.106 311.284 489.887 310.46 493.258 309.697C496.586 308.944 500.946 308.354 506.75 307.674C512.551 306.995 516.959 306.558 520.414 306.517C523.911 306.476 525.909 306.86 527.142 307.438C528.985 308.303 530.555 310.302 531.603 319.254ZM514.707 362.497C514.699 362.493 514.689 362.488 514.678 362.483C514.807 362.528 514.826 362.551 514.707 362.497Z" fill="#FF4444" stroke="black" stroke-width="9"/>
<path d="M709.438 246.051C710.04 249.49 709.564 253.964 708.191 259.038C706.836 264.041 704.707 269.274 702.356 274.074C700.008 278.869 697.491 283.125 695.423 286.166C694.732 287.182 694.113 288.03 693.586 288.701C692.873 288.223 692.016 287.606 691.038 286.854C688.079 284.576 684.291 281.276 680.478 277.415C676.661 273.549 672.904 269.207 669.947 264.854C666.95 260.441 664.987 256.326 664.382 252.872C663.63 248.578 663.394 245.708 663.608 243.681C663.802 241.848 664.331 240.962 665.076 240.293C666.005 239.461 667.703 238.588 670.988 237.721C674.231 236.865 678.508 236.137 684.214 235.274C689.918 234.41 694.251 233.834 697.661 233.683C701.112 233.531 703.094 233.85 704.331 234.38C706.196 235.18 707.876 237.136 709.438 246.051ZM695.346 289.745C695.346 289.745 695.343 289.744 695.338 289.742C695.343 289.744 695.346 289.745 695.346 289.745Z" fill="#FF4444" stroke="black" stroke-width="9"/>
<path d="M888.094 1591.1C880.11 1644.04 835.336 1705.72 768.941 1750.87C702.704 1795.91 615.693 1823.95 524.202 1810.41C432.644 1796.86 349.769 1743.61 291.796 1680.06C262.828 1648.3 240.187 1614.09 225.821 1581.17C211.431 1548.2 205.475 1516.84 209.425 1490.65C213.338 1464.71 226.632 1446.01 247.342 1432.76C268.235 1419.4 296.809 1411.5 331.131 1407.8C399.788 1400.4 489.705 1409.93 582.533 1423.67C675.397 1437.41 756.235 1453.17 811.759 1478.9C839.481 1491.75 860.5 1506.92 873.603 1525.2C886.606 1543.34 892.051 1564.87 888.094 1591.1Z" fill="#FF4444" stroke="black" stroke-width="9"/>
<path d="M836.995 1596.11C830.34 1640.25 792.954 1691.84 737.35 1729.65C681.905 1767.35 609.091 1790.81 532.548 1779.48C455.937 1768.14 386.55 1723.57 337.995 1670.34C313.737 1643.75 294.788 1615.11 282.77 1587.58C270.728 1559.99 265.777 1533.82 269.063 1512.03C272.31 1490.48 283.333 1474.98 300.542 1463.97C317.935 1452.84 341.779 1446.24 370.521 1443.14C428.017 1436.94 503.368 1444.92 581.248 1456.45C659.165 1467.99 726.884 1481.2 773.359 1502.74C796.557 1513.49 814.068 1526.15 824.962 1541.35C835.755 1556.4 840.286 1574.28 836.995 1596.11Z" fill="white" stroke="black" stroke-width="9"/>
<path d="M646.594 1687.55C644.613 1684.08 643.376 1679.5 642.8 1674.33C642.229 1669.21 642.335 1663.79 642.817 1658.78C643.3 1653.77 644.149 1649.28 645.019 1646.04C645.249 1645.18 645.474 1644.43 645.687 1643.8C646.441 1644.14 647.311 1644.55 648.287 1645.04C652.034 1646.91 656.975 1649.68 662.156 1653C667.34 1656.32 672.663 1660.13 677.222 1664.07C681.827 1668.04 685.404 1671.93 687.392 1675.42C689.749 1679.55 691.114 1682.42 691.701 1684.56C692.254 1686.56 692.026 1687.57 691.572 1688.29C691.031 1689.14 689.81 1690.15 687.005 1691.38C684.221 1692.6 680.378 1693.83 675.148 1695.39C669.92 1696.94 665.964 1698.03 662.758 1698.59C659.53 1699.16 657.609 1699.08 656.319 1698.74C655.228 1698.46 654.047 1697.85 652.473 1696.17C650.796 1694.38 648.942 1691.67 646.594 1687.55ZM646.564 1641.71C646.564 1641.71 646.563 1641.71 646.56 1641.71C646.561 1641.71 646.561 1641.71 646.561 1641.71C646.563 1641.71 646.564 1641.71 646.564 1641.71Z" fill="#FF4444" stroke="black" stroke-width="9"/>
<path d="M517.007 1723.37C517.501 1719.94 519.358 1715.83 522.276 1711.4C525.152 1707.03 528.85 1702.67 532.627 1698.78C536.399 1694.9 540.166 1691.58 543.118 1689.28C544.137 1688.49 545.026 1687.85 545.76 1687.36C546.311 1688.03 546.964 1688.89 547.697 1689.92C549.842 1692.95 552.467 1697.19 554.939 1701.97C557.414 1706.76 559.68 1711.98 561.171 1716.97C562.682 1722.04 563.285 1726.52 562.788 1729.97C562.168 1734.27 561.496 1737.06 560.657 1738.92C559.902 1740.59 559.118 1741.29 558.174 1741.71C556.999 1742.24 555.066 1742.58 551.612 1742.45C548.202 1742.33 543.836 1741.78 538.053 1740.94C532.272 1740.11 527.899 1739.4 524.55 1738.55C521.159 1737.69 519.327 1736.81 518.284 1735.93C516.725 1734.62 515.721 1732.29 517.007 1723.37ZM544.441 1685.92C544.448 1685.92 544.457 1685.93 544.466 1685.94C544.353 1685.86 544.34 1685.83 544.441 1685.92Z" fill="#FF4444" stroke="black" stroke-width="9"/>
<path d="M412.756 1646.64C415.453 1643.78 419.804 1640.93 425.206 1638.24C430.55 1635.59 436.621 1633.25 442.45 1631.35C448.276 1629.45 453.746 1628.02 457.84 1627.16C458.962 1626.93 459.952 1626.74 460.796 1626.6C460.854 1627.27 460.898 1628.07 460.918 1628.97C460.994 1632.32 460.754 1636.87 460.041 1641.82C459.328 1646.78 458.155 1652.04 456.406 1656.85C454.639 1661.71 452.38 1665.82 449.673 1668.69C446.445 1672.11 444.045 1674.29 442.031 1675.63C440.143 1676.88 438.908 1677.17 437.848 1677.18C436.576 1677.2 434.74 1676.82 431.759 1675.48C428.801 1674.15 425.227 1672.11 420.503 1669.29C415.781 1666.47 412.299 1664.29 409.832 1662.38C407.345 1660.46 406.317 1659.12 405.947 1658.09C405.636 1657.23 405.64 1656.18 406.586 1654.39C407.6 1652.49 409.54 1650.04 412.756 1646.64ZM460.449 1624.43C460.449 1624.43 460.449 1624.43 460.45 1624.43C460.448 1624.42 460.447 1624.42 460.447 1624.42C460.447 1624.42 460.448 1624.42 460.449 1624.43Z" fill="#FF4444" stroke="black" stroke-width="9"/>
<path d="M527.581 1625.13C528.22 1621.7 530.24 1617.63 533.318 1613.27C536.355 1608.97 540.203 1604.7 544.109 1600.9C548.01 1597.11 551.881 1593.88 554.902 1591.66C555.912 1590.91 556.795 1590.31 557.528 1589.84C558.034 1590.51 558.627 1591.36 559.286 1592.37C561.281 1595.44 563.699 1599.74 565.943 1604.57C568.19 1609.4 570.212 1614.67 571.476 1619.69C572.757 1624.79 573.165 1629.28 572.523 1632.73C571.725 1637.01 570.94 1639.79 570.026 1641.63C569.199 1643.3 568.389 1643.97 567.45 1644.37C566.281 1644.87 564.371 1645.16 560.964 1644.96C557.6 1644.75 553.307 1644.11 547.615 1643.15C541.926 1642.19 537.632 1641.38 534.359 1640.46C531.046 1639.53 529.286 1638.61 528.304 1637.73C526.824 1636.39 525.925 1634.02 527.581 1625.13Z" fill="#FF4444" stroke="black" stroke-width="9"/>
<path d="M728.106 1600.19C726.125 1596.72 724.888 1592.14 724.311 1586.97C723.741 1581.85 723.847 1576.42 724.329 1571.41C724.811 1566.41 725.661 1561.91 726.531 1558.67C726.76 1557.81 726.986 1557.07 727.199 1556.43C727.952 1556.77 728.823 1557.19 729.799 1557.67C733.545 1559.54 738.487 1562.31 743.668 1565.63C748.851 1568.96 754.174 1572.77 758.734 1576.7C763.339 1580.68 766.916 1584.57 768.904 1588.05C771.26 1592.18 772.626 1595.06 773.213 1597.19C773.766 1599.2 773.538 1600.21 773.083 1600.93C772.543 1601.78 771.321 1602.79 768.517 1604.01C765.733 1605.23 761.89 1606.47 756.66 1608.02C751.431 1609.58 747.476 1610.67 744.27 1611.23C741.042 1611.79 739.12 1611.71 737.831 1611.38C736.74 1611.09 735.559 1610.48 733.985 1608.81C732.308 1607.02 730.454 1604.3 728.106 1600.19ZM728.076 1554.34C728.076 1554.34 728.075 1554.34 728.072 1554.35C728.072 1554.35 728.073 1554.35 728.073 1554.35C728.075 1554.34 728.076 1554.34 728.076 1554.34Z" fill="#FF4444" stroke="black" stroke-width="9"/>
<path d="M535.968 1530.16C536.462 1526.72 538.319 1522.61 541.237 1518.18C544.113 1513.82 547.811 1509.46 551.588 1505.57C555.36 1501.69 559.127 1498.37 562.079 1496.07C563.098 1495.28 563.987 1494.64 564.721 1494.14C565.272 1494.82 565.925 1495.67 566.657 1496.71C568.803 1499.73 571.427 1503.97 573.9 1508.76C576.375 1513.54 578.641 1518.76 580.132 1523.76C581.643 1528.83 582.246 1533.31 581.749 1536.75C581.129 1541.06 580.457 1543.85 579.618 1545.71C578.863 1547.38 578.079 1548.07 577.135 1548.5C575.96 1549.03 574.027 1549.37 570.572 1549.24C567.163 1549.11 562.797 1548.56 557.014 1547.73C551.233 1546.9 546.86 1546.19 543.511 1545.34C540.12 1544.48 538.288 1543.6 537.245 1542.72C535.686 1541.41 534.682 1539.08 535.968 1530.16ZM563.402 1492.7C563.409 1492.71 563.418 1492.72 563.427 1492.72C563.314 1492.65 563.301 1492.62 563.402 1492.7Z" fill="#FF4444" stroke="black" stroke-width="9"/>
<path d="M345.299 1555.23C345.6 1551.76 347.209 1547.55 349.839 1543C352.433 1538.52 355.835 1534.01 359.34 1529.97C362.841 1525.94 366.366 1522.47 369.146 1520.06C370.075 1519.26 370.891 1518.6 371.572 1518.09C372.139 1518.73 372.808 1519.55 373.56 1520.53C375.835 1523.49 378.649 1527.65 381.342 1532.36C384.039 1537.08 386.554 1542.24 388.294 1547.2C390.058 1552.24 390.898 1556.72 390.596 1560.21C390.22 1564.56 389.71 1567.39 388.983 1569.29C388.325 1571.02 387.586 1571.74 386.694 1572.19C385.583 1572.76 383.718 1573.17 380.32 1573.16C376.966 1573.15 372.646 1572.76 366.909 1572.13C361.175 1571.5 356.839 1570.94 353.505 1570.21C350.13 1569.47 348.296 1568.66 347.237 1567.83C345.64 1566.57 344.519 1564.25 345.299 1555.23ZM370.14 1516.62C370.14 1516.62 370.142 1516.63 370.146 1516.63C370.142 1516.63 370.14 1516.63 370.14 1516.62Z" fill="#FF4444" stroke="black" stroke-width="9"/>
<path d="M236.399 1034.76C235.991 1032.08 235.554 1028.36 235.332 1025.31C235.282 1024.63 235.244 1023.99 235.219 1023.41C235.889 1024.01 236.629 1024.72 237.372 1025.51C238.518 1026.72 239.633 1028.07 240.498 1029.41C241.381 1030.77 241.913 1031.99 242.059 1032.95C242.467 1035.64 242.815 1039.32 242.273 1042.37C242.003 1043.89 241.538 1045.1 240.881 1045.94C240.266 1046.73 239.436 1047.27 238.193 1047.43C236.897 1047.6 236.649 1047.26 236.581 1047.16C236.579 1047.16 236.578 1047.16 236.576 1047.16C236.339 1046.83 236.115 1046.09 236.102 1044.63C236.093 1043.53 236.197 1042.32 236.311 1040.99C236.341 1040.63 236.372 1040.27 236.401 1039.9C236.535 1038.24 236.645 1036.39 236.399 1034.76Z" fill="#FF4444" stroke="black" stroke-width="4"/>
<path d="M231.631 1081.41C231.956 1078.71 232.531 1075.01 233.131 1072.02C233.266 1071.34 233.4 1070.72 233.531 1070.15C234.016 1070.91 234.539 1071.79 235.045 1072.75C235.824 1074.23 236.537 1075.83 237.013 1077.35C237.499 1078.9 237.688 1080.21 237.571 1081.18C237.246 1083.88 236.596 1087.52 235.258 1090.31C234.593 1091.7 233.821 1092.74 232.963 1093.38C232.159 1093.98 231.214 1094.28 229.973 1094.1C228.681 1093.91 228.533 1093.52 228.492 1093.41C228.491 1093.4 228.49 1093.4 228.489 1093.4C228.346 1093.03 228.329 1092.25 228.707 1090.84C228.993 1089.78 229.418 1088.63 229.883 1087.38C230.006 1087.05 230.132 1086.71 230.26 1086.37C230.833 1084.8 231.435 1083.04 231.631 1081.41Z" fill="#FF4444" stroke="black" stroke-width="4"/>
<path d="M211.568 1053.99C214.219 1054.59 217.843 1055.54 220.762 1056.44C221.418 1056.65 222.027 1056.84 222.575 1057.03C221.774 1057.44 220.84 1057.87 219.835 1058.27C218.287 1058.9 216.623 1059.44 215.061 1059.76C213.468 1060.08 212.145 1060.14 211.197 1059.92C208.545 1059.32 204.988 1058.31 202.346 1056.69C201.033 1055.89 200.075 1055.01 199.528 1054.09C199.015 1053.23 198.815 1052.26 199.119 1051.05C199.437 1049.78 199.845 1049.67 199.956 1049.64C199.959 1049.64 199.962 1049.64 199.965 1049.64C200.35 1049.54 201.121 1049.6 202.486 1050.12C203.519 1050.51 204.61 1051.05 205.806 1051.64C206.123 1051.8 206.448 1051.96 206.78 1052.12C208.28 1052.85 209.966 1053.63 211.568 1053.99Z" fill="#FF4444" stroke="black" stroke-width="4"/>
<path d="M257.613 1063.52C260.264 1064.12 263.888 1065.07 266.807 1065.97C267.462 1066.17 268.072 1066.37 268.62 1066.56C267.819 1066.96 266.884 1067.39 265.88 1067.8C264.332 1068.42 262.668 1068.97 261.106 1069.29C259.513 1069.61 258.19 1069.67 257.242 1069.45C254.59 1068.85 251.033 1067.83 248.391 1066.22C247.078 1065.41 246.12 1064.54 245.573 1063.62C245.06 1062.76 244.86 1061.79 245.164 1060.57C245.482 1059.31 245.89 1059.2 246.001 1059.17C246.004 1059.17 246.007 1059.17 246.01 1059.17C246.394 1059.06 247.166 1059.13 248.531 1059.65C249.563 1060.04 250.655 1060.58 251.851 1061.17C252.168 1061.33 252.493 1061.49 252.825 1061.65C254.325 1062.38 256.011 1063.16 257.613 1063.52Z" fill="#FF4444" stroke="black" stroke-width="4"/>
<path d="M760.397 1104.96C746.045 1102.47 733.456 1099.27 725.083 1093.51C721.001 1090.7 718.066 1087.37 716.365 1083.31C714.663 1079.26 714.041 1074.1 715.205 1067.38C717.572 1053.71 726.702 1037.22 738.849 1024.74C751.138 1012.11 765.278 1004.8 777.379 1006.89C791.69 1009.37 804.796 1012.75 813.666 1018.73C818.013 1021.66 821.177 1025.11 823.033 1029.25C824.881 1033.37 825.595 1038.53 824.442 1045.19C822.09 1058.78 812.56 1075.07 799.943 1087.39C787.193 1099.85 772.567 1107.07 760.397 1104.96Z" fill="white" stroke="black" stroke-width="9"/>
<path d="M790.795 1065.95C793.512 1066 797.253 1066.21 800.293 1066.51C800.976 1066.58 801.613 1066.65 802.187 1066.72C801.483 1067.28 800.654 1067.89 799.751 1068.49C798.359 1069.41 796.838 1070.28 795.372 1070.9C793.876 1071.54 792.59 1071.85 791.619 1071.83C788.9 1071.78 785.212 1071.49 782.3 1070.44C780.852 1069.91 779.739 1069.25 779.019 1068.46C778.344 1067.72 777.954 1066.81 778.009 1065.55C778.066 1064.25 778.445 1064.06 778.548 1064.01C778.551 1064.01 778.553 1064.01 778.556 1064.01C778.912 1063.83 779.68 1063.73 781.121 1063.97C782.212 1064.15 783.389 1064.46 784.679 1064.8C785.021 1064.89 785.371 1064.98 785.73 1065.07C787.345 1065.49 789.153 1065.91 790.795 1065.95Z" fill="#FF4444" stroke="black" stroke-width="4"/>
<path d="M745.645 1053.29C748.248 1054.07 751.798 1055.27 754.647 1056.37C755.287 1056.62 755.882 1056.86 756.415 1057.08C755.588 1057.43 754.626 1057.8 753.597 1058.13C752.009 1058.65 750.311 1059.08 748.731 1059.29C747.119 1059.5 745.795 1059.46 744.865 1059.18C742.26 1058.4 738.782 1057.14 736.258 1055.35C735.004 1054.45 734.109 1053.51 733.626 1052.56C733.174 1051.67 733.041 1050.68 733.429 1049.49C733.833 1048.25 734.248 1048.17 734.361 1048.15C734.364 1048.15 734.367 1048.15 734.37 1048.15C734.761 1048.07 735.526 1048.19 736.852 1048.8C737.855 1049.26 738.907 1049.88 740.059 1050.55C740.365 1050.73 740.677 1050.91 740.998 1051.09C742.444 1051.93 744.072 1052.82 745.645 1053.29Z" fill="#FF4444" stroke="black" stroke-width="4"/>
<path d="M776.088 1038.2C775.045 1040.71 773.492 1044.12 772.103 1046.84C771.792 1047.45 771.493 1048.02 771.215 1048.53C770.952 1047.67 770.688 1046.68 770.46 1045.62C770.109 1043.98 769.855 1042.25 769.807 1040.66C769.759 1039.03 769.932 1037.72 770.305 1036.82C771.348 1034.31 772.958 1030.98 775.002 1028.65C776.017 1027.5 777.042 1026.7 778.041 1026.32C778.977 1025.96 779.967 1025.93 781.113 1026.44C782.308 1026.97 782.343 1027.39 782.353 1027.5C782.353 1027.5 782.353 1027.51 782.353 1027.51C782.391 1027.91 782.198 1028.66 781.453 1029.91C780.888 1030.86 780.171 1031.85 779.385 1032.92C779.177 1033.21 778.964 1033.5 778.748 1033.8C777.772 1035.16 776.718 1036.68 776.088 1038.2Z" fill="#FF4444" stroke="black" stroke-width="4"/>
<path d="M758.844 1081.94C757.801 1084.45 756.247 1087.86 754.859 1090.59C754.547 1091.2 754.249 1091.76 753.971 1092.27C753.707 1091.41 753.444 1090.42 753.216 1089.36C752.864 1087.73 752.61 1085.99 752.563 1084.4C752.515 1082.78 752.688 1081.46 753.061 1080.57C754.104 1078.06 755.714 1074.72 757.758 1072.4C758.773 1071.24 759.798 1070.45 760.797 1070.06C761.733 1069.7 762.723 1069.67 763.869 1070.18C765.063 1070.71 765.099 1071.13 765.109 1071.24C765.109 1071.25 765.109 1071.25 765.109 1071.25C765.146 1071.65 764.954 1072.4 764.208 1073.66C763.644 1074.61 762.927 1075.59 762.141 1076.67C761.933 1076.95 761.72 1077.25 761.504 1077.55C760.528 1078.9 759.474 1080.43 758.844 1081.94Z" fill="#FF4444" stroke="black" stroke-width="4"/>
<path d="M623.56 1051.24C609.006 1051.82 596.025 1051.34 586.629 1047.46C582.048 1045.56 578.48 1042.93 575.966 1039.32C573.45 1035.71 571.759 1030.8 571.486 1023.98C570.931 1010.12 576.396 992.083 585.653 977.33C595.017 962.404 607.307 952.285 619.578 951.794C634.09 951.213 647.613 951.766 657.541 955.749C662.406 957.701 666.224 960.409 668.907 964.065C671.578 967.704 673.362 972.607 673.632 979.36C674.184 993.136 668.286 1011.06 658.537 1025.76C648.686 1040.62 635.901 1050.74 623.56 1051.24Z" fill="white" stroke="black" stroke-width="9"/>
<path d="M645.09 1006.72C647.758 1006.2 651.459 1005.61 654.495 1005.27C655.177 1005.19 655.814 1005.13 656.392 1005.08C655.82 1005.78 655.137 1006.54 654.38 1007.32C653.213 1008.51 651.907 1009.68 650.605 1010.6C649.276 1011.53 648.085 1012.11 647.132 1012.3C644.462 1012.81 640.795 1013.31 637.727 1012.89C636.201 1012.68 634.974 1012.26 634.103 1011.64C633.288 1011.06 632.715 1010.25 632.506 1009.01C632.288 1007.73 632.62 1007.46 632.71 1007.39C632.712 1007.39 632.714 1007.39 632.716 1007.39C633.027 1007.14 633.759 1006.88 635.217 1006.81C636.321 1006.76 637.537 1006.82 638.87 1006.88C639.223 1006.89 639.585 1006.91 639.954 1006.92C641.621 1006.99 643.477 1007.03 645.09 1006.72Z" fill="#FF4444" stroke="black" stroke-width="4"/>
<path d="M598.289 1003.82C600.998 1004.03 604.72 1004.46 607.738 1004.94C608.416 1005.05 609.047 1005.16 609.616 1005.26C608.88 1005.78 608.017 1006.34 607.08 1006.88C605.636 1007.72 604.066 1008.5 602.565 1009.03C601.034 1009.58 599.732 1009.82 598.764 1009.74C596.053 1009.53 592.388 1009.02 589.544 1007.8C588.129 1007.19 587.058 1006.46 586.385 1005.63C585.755 1004.85 585.42 1003.92 585.549 1002.67C585.683 1001.37 586.072 1001.21 586.178 1001.16C586.181 1001.16 586.184 1001.16 586.186 1001.16C586.552 1001 587.325 1000.95 588.75 1001.27C589.828 1001.52 590.985 1001.89 592.253 1002.31C592.589 1002.42 592.932 1002.53 593.285 1002.64C594.873 1003.16 596.652 1003.69 598.289 1003.82Z" fill="#FF4444" stroke="black" stroke-width="4"/>
<path d="M624.886 982.673C624.393 985.346 623.59 989.005 622.804 991.958C622.627 992.621 622.455 993.238 622.289 993.793C621.852 993.009 621.385 992.092 620.94 991.105C620.254 989.583 619.642 987.942 619.261 986.394C618.873 984.816 618.766 983.496 618.943 982.54C619.435 979.866 620.31 976.271 621.82 973.567C622.57 972.222 623.405 971.231 624.301 970.647C625.142 970.1 626.102 969.861 627.33 970.117C628.609 970.383 628.732 970.787 628.765 970.897C628.766 970.9 628.767 970.903 628.768 970.905C628.887 971.286 628.857 972.059 628.391 973.443C628.039 974.491 627.544 975.603 627.002 976.822C626.859 977.145 626.712 977.476 626.563 977.815C625.893 979.343 625.183 981.058 624.886 982.673Z" fill="#FF4444" stroke="black" stroke-width="4"/>
<path d="M617.208 1029.06C616.716 1031.74 615.912 1035.39 615.126 1038.35C614.95 1039.01 614.777 1039.63 614.611 1040.18C614.174 1039.4 613.707 1038.48 613.262 1037.49C612.576 1035.97 611.964 1034.33 611.583 1032.78C611.195 1031.21 611.089 1029.89 611.265 1028.93C611.757 1026.26 612.633 1022.66 614.142 1019.96C614.892 1018.61 615.727 1017.62 616.624 1017.04C617.464 1016.49 618.425 1016.25 619.652 1016.51C620.931 1016.77 621.054 1017.18 621.087 1017.29C621.088 1017.29 621.089 1017.29 621.09 1017.29C621.209 1017.68 621.179 1018.45 620.713 1019.83C620.361 1020.88 619.867 1021.99 619.325 1023.21C619.181 1023.53 619.034 1023.87 618.885 1024.2C618.215 1025.73 617.506 1027.45 617.208 1029.06Z" fill="#FF4444" stroke="black" stroke-width="4"/>
<path d="M546.004 903.548C538.758 916.184 531.444 926.918 523.161 932.813C519.123 935.687 514.992 937.306 510.601 937.517C506.206 937.729 501.148 936.549 495.231 933.156C483.197 926.255 470.825 912.035 463.253 896.35C455.592 880.483 453.558 864.694 459.667 854.04C466.892 841.44 474.551 830.282 483.204 823.992C487.444 820.911 491.767 819.117 496.29 818.788C500.793 818.462 505.893 819.558 511.756 822.92C523.716 829.778 535.761 844.306 543.028 860.379C550.371 876.622 552.147 892.834 546.004 903.548Z" fill="white" stroke="black" stroke-width="9"/>
<path d="M560.928 853.629C562.182 850.395 564.06 846.001 565.749 842.485C566.349 841.235 566.914 840.121 567.41 839.219C567.901 840.54 568.435 842.25 568.883 844.118C569.385 846.205 569.767 848.435 569.878 850.503C569.99 852.602 569.812 854.366 569.325 855.622C568.07 858.857 566.098 863.209 563.512 866.3C562.225 867.838 560.881 868.947 559.515 869.508C558.211 870.043 556.808 870.117 555.2 869.45C553.51 868.749 553.299 868.068 553.253 867.673C553.171 866.982 553.474 865.89 554.391 864.258C555.093 863.009 555.994 861.709 556.963 860.312C557.217 859.945 557.476 859.572 557.737 859.191C558.939 857.438 560.198 855.51 560.928 853.629ZM568.686 837.211C568.686 837.211 568.684 837.213 568.68 837.218C568.684 837.213 568.686 837.211 568.686 837.211Z" fill="#FF4444" stroke="black" stroke-width="4"/>
<path d="M492.404 899.734C494.028 897.555 496.368 894.629 498.379 892.328C498.831 891.812 499.259 891.335 499.653 890.911C499.698 891.808 499.711 892.836 499.674 893.918C499.615 895.586 499.438 897.329 499.095 898.886C498.744 900.473 498.256 901.704 497.675 902.483C496.05 904.663 493.674 907.499 491.124 909.257C489.856 910.13 488.669 910.65 487.607 910.777C486.611 910.896 485.644 910.685 484.656 909.913C483.627 909.108 483.696 908.691 483.714 908.578C483.715 908.575 483.715 908.572 483.716 908.569C483.777 908.175 484.146 907.495 485.176 906.46C485.956 905.676 486.892 904.897 487.917 904.044C488.189 903.818 488.467 903.587 488.75 903.349C490.027 902.275 491.423 901.05 492.404 899.734Z" fill="#FF4444" stroke="black" stroke-width="4"/>
<path d="M522.255 858.947C524.81 861.294 528.217 864.643 530.876 867.497C531.821 868.512 532.653 869.444 533.312 870.235C531.903 870.21 530.116 870.084 528.213 869.822C526.088 869.528 523.871 869.071 521.905 868.421C519.91 867.761 518.332 866.952 517.34 866.041C514.784 863.694 511.45 860.272 509.514 856.737C508.55 854.978 508.007 853.322 507.982 851.846C507.959 850.437 508.402 849.104 509.609 847.849C510.877 846.53 511.588 846.582 511.973 846.683C512.646 846.859 513.553 847.539 514.738 848.987C515.646 850.096 516.528 851.409 517.476 852.82C517.725 853.19 517.978 853.568 518.238 853.95C519.433 855.708 520.769 857.583 522.255 858.947ZM534.717 872.155C534.717 872.155 534.716 872.152 534.714 872.146C534.716 872.152 534.717 872.155 534.717 872.155Z" fill="#FF4444" stroke="black" stroke-width="4"/>
<path d="M567.021 898.582C569.575 900.928 572.983 904.278 575.642 907.132C576.587 908.147 577.419 909.079 578.078 909.87C576.669 909.845 574.882 909.719 572.979 909.456C570.853 909.163 568.636 908.706 566.671 908.056C564.675 907.395 563.097 906.587 562.105 905.676C559.55 903.328 556.215 899.906 554.279 896.372C553.316 894.612 552.773 892.957 552.748 891.481C552.725 890.071 553.167 888.738 554.374 887.484C555.642 886.165 556.354 886.217 556.738 886.317C557.412 886.494 558.319 887.173 559.504 888.622C560.411 889.731 561.293 891.043 562.241 892.455C562.49 892.825 562.744 893.202 563.004 893.585C564.198 895.342 565.534 897.217 567.021 898.582ZM579.483 911.79C579.483 911.79 579.481 911.787 579.479 911.781C579.482 911.787 579.483 911.79 579.483 911.79Z" fill="#FF4444" stroke="black" stroke-width="4"/>
<path d="M426.501 1000.17C426.501 1017.46 425.314 1033.01 420.174 1044.16C417.657 1049.62 414.258 1053.86 409.691 1056.78C405.12 1059.7 399.039 1061.5 390.804 1061.5C374.103 1061.5 352.772 1054.08 335.584 1042.33C318.228 1030.46 306.501 1015.17 306.501 1000.17C306.501 982.917 307.794 966.738 313.078 954.97C315.676 949.184 319.164 944.643 323.794 941.525C328.408 938.418 334.489 936.5 342.662 936.5C359.277 936.5 380.459 944.438 397.557 956.776C414.806 969.222 426.501 985.093 426.501 1000.17Z" fill="white" stroke="black" stroke-width="9"/>
<path d="M373.581 972.473C373.095 969.271 372.575 964.84 372.31 961.207C372.225 960.041 372.168 958.978 372.145 958.078C373.108 958.896 374.244 959.96 375.384 961.169C376.757 962.623 378.099 964.248 379.144 965.863C380.206 967.506 380.87 969.001 381.055 970.219C381.542 973.422 381.963 977.849 381.307 981.536C380.981 983.37 380.412 984.872 379.583 985.939C378.795 986.954 377.722 987.647 376.143 987.85C374.477 988.064 374.045 987.615 373.863 987.368C373.503 986.882 373.239 985.894 373.224 984.148C373.213 982.815 373.338 981.351 373.474 979.769C373.51 979.353 373.546 978.928 373.581 978.496C373.74 976.517 373.867 974.354 373.581 972.473ZM372.234 955.613C372.234 955.613 372.234 955.613 372.234 955.613C372.234 955.615 372.233 955.617 372.232 955.619C372.233 955.617 372.234 955.615 372.234 955.613Z" fill="#FF4444" stroke="black" stroke-width="4"/>
<path d="M367.913 1027.81C368.301 1024.59 368.984 1020.18 369.7 1016.61C369.93 1015.47 370.159 1014.43 370.378 1013.55C371.087 1014.6 371.898 1015.93 372.673 1017.4C373.607 1019.17 374.466 1021.09 375.04 1022.93C375.625 1024.79 375.866 1026.41 375.718 1027.63C375.331 1030.85 374.553 1035.23 372.935 1038.61C372.13 1040.29 371.181 1041.58 370.096 1042.39C369.066 1043.16 367.846 1043.54 366.271 1043.31C364.608 1043.07 364.312 1042.52 364.202 1042.24C363.985 1041.67 363.996 1040.65 364.448 1038.96C364.793 1037.68 365.306 1036.3 365.86 1034.81C366.005 1034.42 366.154 1034.02 366.303 1033.61C366.986 1031.75 367.686 1029.7 367.913 1027.81ZM371.123 1011.2C371.123 1011.2 371.123 1011.2 371.123 1011.2C371.122 1011.2 371.121 1011.21 371.12 1011.21C371.121 1011.2 371.122 1011.2 371.123 1011.2Z" fill="#FF4444" stroke="black" stroke-width="4"/>
<path d="M344.535 994.908C347.694 995.622 352.011 996.753 355.49 997.83C356.608 998.175 357.617 998.509 358.464 998.816C357.352 999.415 355.947 1000.09 354.406 1000.71C352.551 1001.46 350.55 1002.11 348.664 1002.5C346.747 1002.89 345.113 1002.96 343.912 1002.69C340.751 1001.98 336.475 1000.76 333.281 998.802C331.691 997.829 330.5 996.753 329.808 995.591C329.151 994.488 328.896 993.236 329.282 991.692C329.69 990.062 330.266 989.824 330.562 989.743C331.145 989.585 332.162 989.7 333.793 990.322C335.038 990.797 336.356 991.448 337.78 992.151C338.155 992.336 338.537 992.524 338.927 992.714C340.712 993.583 342.68 994.489 344.535 994.908ZM360.727 999.797C360.727 999.797 360.727 999.797 360.727 999.798C360.726 999.797 360.724 999.795 360.722 999.794C360.724 999.795 360.726 999.796 360.727 999.797Z" fill="#FF4444" stroke="black" stroke-width="4"/>
<path d="M399.256 1006.23C402.415 1006.94 406.732 1008.07 410.211 1009.15C411.328 1009.5 412.338 1009.83 413.185 1010.14C412.073 1010.74 410.667 1011.41 409.126 1012.03C407.272 1012.78 405.27 1013.43 403.385 1013.82C401.468 1014.21 399.834 1014.28 398.632 1014.01C395.472 1013.3 391.195 1012.08 388.001 1010.12C386.412 1009.15 385.221 1008.07 384.529 1006.91C383.871 1005.81 383.616 1004.56 384.003 1003.01C384.411 1001.38 384.986 1001.14 385.282 1001.06C385.866 1000.91 386.883 1001.02 388.514 1001.64C389.759 1002.12 391.077 1002.77 392.501 1003.47C392.876 1003.66 393.258 1003.85 393.648 1004.04C395.433 1004.9 397.4 1005.81 399.256 1006.23ZM415.448 1011.12C415.448 1011.12 415.448 1011.12 415.448 1011.12C415.446 1011.12 415.445 1011.12 415.443 1011.11C415.445 1011.12 415.447 1011.12 415.448 1011.12Z" fill="#FF4444" stroke="black" stroke-width="4"/>
<path d="M812.778 812.424C813.454 836.39 793.905 859.953 758.743 878.226C723.887 896.34 675.055 908.439 620.538 909.976C566.02 911.513 516.584 902.185 480.763 886.064C444.627 869.801 423.781 847.378 423.106 823.411C422.43 799.444 441.979 775.882 477.141 757.608C511.996 739.495 560.829 727.396 615.346 725.858C669.863 724.321 719.3 733.649 755.121 749.77C791.257 766.034 812.102 788.457 812.778 812.424Z" fill="#FF4444" stroke="black" stroke-width="9"/>
<path d="M478.491 817.812C480.376 816.807 483.23 816.171 486.845 815.988C490.386 815.808 494.282 816.08 497.977 816.593C501.665 817.105 505.032 817.842 507.481 818.538C507.8 818.629 508.097 818.717 508.372 818.802C508.291 819.067 508.2 819.349 508.1 819.649C507.303 822.046 506.024 825.219 504.379 828.536C502.73 831.859 500.769 835.217 498.634 838.036C496.456 840.914 494.325 842.928 492.427 843.941C489.765 845.36 488.055 846.058 486.858 846.312C485.86 846.524 485.494 846.376 485.205 846.213C484.695 845.925 483.848 845.185 482.53 843.242C481.238 841.336 479.773 838.71 477.849 835.102C475.926 831.495 474.55 828.797 473.673 826.634C472.781 824.432 472.612 823.262 472.654 822.62C472.694 822.02 472.888 820.8 478.491 817.812Z" fill="white" stroke="black" stroke-width="9"/>
<path d="M605.918 878.671C605.768 876.54 606.35 873.674 607.655 870.298C608.933 866.991 610.767 863.543 612.741 860.377C614.711 857.217 616.755 854.443 618.388 852.489C618.6 852.235 618.802 852 618.992 851.783C619.2 851.965 619.421 852.163 619.655 852.376C621.519 854.08 623.897 856.541 626.256 859.395C628.619 862.253 630.887 865.412 632.593 868.51C634.335 871.671 635.306 874.437 635.458 876.584C635.67 879.593 635.611 881.439 635.356 882.635C635.143 883.634 634.859 883.907 634.592 884.105C634.121 884.454 633.1 884.926 630.789 885.338C628.522 885.742 625.527 886.01 621.448 886.298C617.371 886.586 614.347 886.744 612.014 886.664C609.639 886.582 608.502 886.26 607.933 885.96C607.401 885.679 606.366 885.006 605.918 878.671Z" fill="white" stroke="black" stroke-width="9"/>
<path d="M754.978 827.762C752.857 827.509 750.152 826.398 747.081 824.481C744.075 822.604 741.033 820.153 738.296 817.619C735.563 815.09 733.222 812.56 731.611 810.588C731.402 810.332 731.208 810.09 731.031 809.862C731.249 809.692 731.485 809.512 731.738 809.323C733.763 807.813 736.627 805.941 739.874 804.16C743.126 802.377 746.655 800.745 750.019 799.652C753.451 798.536 756.351 798.103 758.488 798.358C761.483 798.716 763.285 799.121 764.412 799.597C765.352 799.994 765.567 800.325 765.711 800.624C765.965 801.151 766.237 802.243 766.207 804.591C766.177 806.893 765.877 809.885 765.392 813.945C764.908 818.004 764.493 821.004 763.976 823.279C763.448 825.597 762.918 826.653 762.516 827.156C762.14 827.625 761.284 828.515 754.978 827.762Z" fill="white" stroke="black" stroke-width="9"/>
<path d="M625.643 763.503C625.808 765.632 625.245 768.502 623.962 771.887C622.706 775.202 620.895 778.662 618.943 781.841C616.994 785.014 614.969 787.803 613.348 789.767C613.138 790.022 612.938 790.259 612.749 790.477C612.539 790.296 612.317 790.1 612.082 789.888C610.207 788.197 607.813 785.752 605.434 782.914C603.052 780.072 600.763 776.928 599.036 773.842C597.274 770.692 596.284 767.932 596.118 765.787C595.886 762.779 595.932 760.933 596.18 759.735C596.386 758.735 596.668 758.459 596.934 758.26C597.402 757.908 598.42 757.429 600.728 757.002C602.992 756.582 605.986 756.294 610.062 755.979C614.137 755.664 617.161 755.486 619.494 755.551C621.869 755.616 623.008 755.931 623.58 756.227C624.114 756.504 625.153 757.171 625.643 763.503Z" fill="white" stroke="black" stroke-width="9"/>
<path d="M600.128 733.678C608.032 756.314 596.54 784.691 568.566 812.758C540.836 840.58 497.963 866.904 446.474 884.884C394.984 902.865 345.044 908.951 306.023 904.439C266.659 899.888 240 884.833 232.095 862.197C224.191 839.561 235.683 811.184 263.657 783.117C291.387 755.295 334.26 728.972 385.749 710.991C437.239 693.011 487.179 686.924 526.2 691.436C565.565 695.988 592.224 711.043 600.128 733.678Z" fill="#FF4444" stroke="black" stroke-width="9"/>
<path d="M283.181 840.083C284.672 838.554 287.2 837.083 290.59 835.813C293.909 834.57 297.705 833.648 301.382 833.018C305.052 832.389 308.484 832.071 311.029 831.993C311.36 831.982 311.669 831.976 311.958 831.974C311.96 832.251 311.96 832.548 311.956 832.864C311.922 835.389 311.664 838.801 311.101 842.461C310.537 846.127 309.684 849.921 308.504 853.255C307.301 856.657 305.88 859.222 304.377 860.762C302.271 862.921 300.852 864.104 299.789 864.709C298.901 865.213 298.508 865.183 298.183 865.115C297.61 864.996 296.578 864.546 294.734 863.094C292.925 861.669 290.733 859.61 287.807 856.755C284.881 853.9 282.753 851.745 281.262 849.95C279.744 848.121 279.229 847.058 279.075 846.433C278.93 845.849 278.746 844.628 283.181 840.083Z" fill="white" stroke="black" stroke-width="9"/>
<path d="M423.058 859.48C422.269 857.495 421.955 854.587 422.176 850.974C422.392 847.436 423.096 843.594 424.017 839.979C424.938 836.371 426.045 833.108 427.01 830.751C427.135 830.445 427.256 830.16 427.371 829.895C427.625 830.006 427.896 830.127 428.183 830.26C430.475 831.319 433.487 832.944 436.6 834.948C439.718 836.957 442.836 839.28 445.401 841.715C448.018 844.201 449.782 846.543 450.576 848.542C451.691 851.345 452.194 853.123 452.313 854.34C452.412 855.356 452.224 855.703 452.03 855.972C451.687 856.447 450.857 857.206 448.779 858.299C446.741 859.371 443.968 860.534 440.168 862.044C436.37 863.554 433.535 864.62 431.288 865.251C429 865.892 427.819 865.93 427.185 865.816C426.593 865.71 425.403 865.382 423.058 859.48Z" fill="white" stroke="black" stroke-width="9"/>
<path d="M549.691 765.806C547.593 766.208 544.678 765.969 541.171 765.072C537.737 764.194 534.096 762.779 530.719 761.194C527.349 759.611 524.352 757.91 522.219 756.518C521.942 756.338 521.684 756.165 521.446 756.002C521.603 755.774 521.773 755.531 521.957 755.274C523.429 753.221 525.591 750.57 528.146 747.889C530.705 745.205 533.574 742.58 536.448 740.519C539.382 738.417 542.014 737.125 544.128 736.721C547.09 736.154 548.93 735.994 550.149 736.107C551.165 736.201 551.47 736.45 551.698 736.692C552.1 737.118 552.689 738.076 553.372 740.322C554.041 742.525 554.661 745.468 555.429 749.484C556.197 753.498 556.711 756.483 556.907 758.809C557.107 761.177 556.921 762.344 556.691 762.945C556.475 763.506 555.928 764.613 549.691 765.806Z" fill="white" stroke="black" stroke-width="9"/>
<path d="M406.968 743.747C407.77 745.727 408.103 748.633 407.906 752.247C407.714 755.786 407.036 759.633 406.138 763.254C405.242 766.868 404.157 770.139 403.207 772.502C403.084 772.809 402.965 773.095 402.852 773.36C402.597 773.252 402.326 773.132 402.038 773.001C399.738 771.958 396.716 770.353 393.589 768.369C390.458 766.381 387.324 764.079 384.744 761.661C382.11 759.193 380.331 756.863 379.522 754.868C378.39 752.073 377.875 750.299 377.748 749.082C377.642 748.067 377.827 747.719 378.019 747.448C378.359 746.971 379.184 746.206 381.254 745.1C383.285 744.014 386.051 742.833 389.84 741.297C393.628 739.762 396.456 738.677 398.699 738.032C400.983 737.375 402.163 737.33 402.798 737.439C403.391 737.541 404.583 737.862 406.968 743.747Z" fill="white" stroke="black" stroke-width="9"/>
<path d="M552.207 1298.48L551.905 1299.26L551.905 1300.1C551.905 1313.6 547.394 1323.04 539.504 1329.76C531.415 1336.65 519.322 1341.05 503.524 1343.29C471.885 1347.79 427.629 1343.33 377.573 1335.95C327.607 1328.59 281.988 1318.31 253.188 1303.62C238.746 1296.26 229.254 1288.14 225.137 1279.4C221.211 1271.06 221.768 1261.24 229.657 1249.11L230.627 1247.61L230.314 1245.86C227.064 1227.69 229.92 1216.18 236.308 1208.77C242.82 1201.23 253.895 1196.89 269.488 1195.21C284.997 1193.55 304.161 1194.6 325.89 1197.04C343.199 1198.98 361.922 1201.78 381.51 1204.71C386.485 1205.46 391.516 1206.21 396.594 1206.96C446.516 1214.32 491.008 1224.8 520.258 1240.07C534.879 1247.7 545.219 1256.29 550.719 1265.83C556.083 1275.13 557.109 1285.79 552.207 1298.48Z" fill="#FF4444" stroke="black" stroke-width="9"/>
<path d="M517.95 1289.37C517.149 1294.8 513.437 1300.06 506.283 1304.82C499.129 1309.57 488.956 1313.51 476.303 1316.31C451.029 1321.89 416.825 1322.71 379.756 1317.24C342.687 1311.77 310.173 1301.13 287.587 1288.48C276.279 1282.15 267.676 1275.44 262.199 1268.83C256.722 1262.21 254.687 1256.1 255.488 1250.67C256.289 1245.24 260.001 1239.97 267.155 1235.22C274.309 1230.46 284.482 1226.52 297.135 1223.73C322.409 1218.14 356.613 1217.33 393.682 1222.8C430.751 1228.26 463.265 1238.91 485.851 1251.55C497.159 1257.88 505.762 1264.59 511.239 1271.21C516.716 1277.83 518.751 1283.94 517.95 1289.37Z" fill="white" stroke="black" stroke-width="9"/>
<path d="M827.714 1325.73L827.359 1326.49L827.3 1327.33C826.468 1339.3 821.894 1347.35 814.528 1352.79C806.952 1358.38 795.944 1361.56 781.691 1362.58C753.142 1364.63 713.834 1357.9 669.442 1348.17C625.141 1338.46 584.978 1326.42 560.161 1311.51C547.712 1304.03 539.82 1296.23 536.731 1288.29C533.805 1280.76 534.852 1272.16 542.606 1261.87L543.678 1260.45L543.486 1258.68C541.715 1242.28 544.988 1232.3 551.037 1226.2C557.219 1219.97 567.267 1216.79 581.298 1216.26C595.244 1215.73 612.307 1217.86 631.613 1221.4C646.99 1224.22 663.579 1227.89 680.944 1231.73C685.356 1232.71 689.817 1233.7 694.322 1234.68C738.58 1244.39 777.722 1256.54 802.906 1271.99C815.494 1279.72 824.139 1288 828.418 1296.78C832.578 1305.31 832.843 1314.78 827.714 1325.73Z" fill="#FF4444" stroke="black" stroke-width="9"/>
<path d="M797.559 1315.53C796.541 1320.17 793.004 1324.57 786.365 1328.34C779.727 1332.12 770.427 1335 758.95 1336.71C736.028 1340.13 705.392 1338.74 672.564 1331.54C639.735 1324.34 611.325 1312.79 591.936 1300.1C582.227 1293.74 574.987 1287.23 570.538 1281.03C566.087 1274.82 564.713 1269.35 565.731 1264.7C566.75 1260.06 570.286 1255.67 576.925 1251.89C583.564 1248.11 592.863 1245.23 604.34 1243.52C627.262 1240.1 657.898 1241.5 690.726 1248.69C723.555 1255.89 751.965 1267.44 771.355 1280.13C781.063 1286.49 788.303 1293 792.753 1299.21C797.203 1305.41 798.577 1310.88 797.559 1315.53Z" fill="white" stroke="black" stroke-width="9"/>
<path d="M753.174 1224.95L753.013 1225.78L753.16 1226.6C755.952 1242.33 752.651 1254.36 744.78 1263.9C736.744 1273.64 723.564 1281.25 705.77 1287.08C670.14 1298.76 618.17 1302.67 559.038 1304.41C499.998 1306.14 445.264 1303.64 408.972 1292.57C390.781 1287.03 377.996 1279.55 371.324 1270.12C364.91 1261.06 363.58 1249.35 370.257 1233.59L370.951 1231.95L370.337 1230.28C362.84 1209.91 363.712 1195.8 369.718 1185.7C375.821 1175.43 387.912 1168.1 405.591 1162.96C423.19 1157.85 445.537 1155.14 471.068 1153.5C491.41 1152.2 513.558 1151.6 536.711 1150.97C542.59 1150.81 548.533 1150.65 554.528 1150.47C613.523 1148.74 667.003 1151.71 703.931 1163.35C722.39 1169.17 736.207 1177 744.621 1187.02C752.862 1196.83 756.264 1209.14 753.174 1224.95Z" fill="#FF4444" stroke="black" stroke-width="9"/>
<path d="M711.881 1221.29C712.078 1228 708.727 1235.02 701.37 1242.04C694.014 1249.07 683.013 1255.73 668.966 1261.55C640.903 1273.19 601.591 1281.13 557.725 1282.41C513.86 1283.7 474.151 1278.08 445.454 1268.1C431.09 1263.11 419.718 1257.1 411.964 1250.52C404.208 1243.94 400.452 1237.13 400.256 1230.42C400.059 1223.71 403.41 1216.7 410.767 1209.68C418.123 1202.65 429.123 1195.99 443.171 1190.17C471.234 1178.53 510.546 1170.59 554.411 1169.3C598.277 1168.02 637.986 1173.64 666.683 1183.62C681.047 1188.61 692.419 1194.62 700.173 1201.2C707.929 1207.78 711.685 1214.58 711.881 1221.29Z" fill="white" stroke="black" stroke-width="9"/>
<path d="M659.575 1278.91C658.532 1279.14 657.567 1279.36 656.695 1279.56C659.543 1279.47 663.278 1279.23 667.306 1278.87C675.961 1278.11 685.844 1276.83 691.119 1275.44C693.655 1274.77 697.579 1272.87 702.056 1270.15C706.509 1267.46 711.43 1264.01 715.939 1260.33C720.455 1256.64 724.522 1252.75 727.296 1249.16C728.683 1247.37 729.722 1245.68 730.338 1244.16C730.957 1242.64 731.119 1241.36 730.874 1240.34C730.603 1239.2 730.217 1239.06 730.016 1239.03C729.631 1238.98 728.912 1239.19 727.771 1239.98C725.561 1241.51 722.663 1244.58 719.403 1248.18C718.807 1248.83 718.201 1249.51 717.587 1250.19C714.883 1253.2 712.03 1256.37 709.27 1259.06C707.574 1260.72 705.892 1262.21 704.278 1263.39C702.72 1264.52 701.173 1265.4 699.698 1265.82C691.054 1270.77 678.881 1274.29 668.981 1276.72C665.5 1277.57 662.276 1278.3 659.575 1278.91Z" fill="white" stroke="black" stroke-width="2"/>
<path d="M275.964 1211.56C277.077 1211.07 278.15 1210.6 279.153 1210.18C278.456 1210.35 277.733 1210.55 276.994 1210.75C271.722 1212.18 265.771 1214.05 262.69 1215.48C261.245 1216.15 259.06 1217.73 256.593 1219.9C254.148 1222.06 251.495 1224.72 249.122 1227.48C246.744 1230.26 244.676 1233.09 243.375 1235.58C242.724 1236.83 242.283 1237.95 242.079 1238.92C241.874 1239.88 241.925 1240.6 242.147 1241.11C242.28 1241.42 242.393 1241.54 242.447 1241.59C242.46 1241.6 242.469 1241.61 242.474 1241.61C242.474 1241.61 242.476 1241.61 242.477 1241.61C242.572 1241.6 242.904 1241.49 243.516 1240.88C244.678 1239.72 246.109 1237.55 247.736 1234.95C248.031 1234.48 248.33 1234 248.634 1233.51C249.976 1231.35 251.4 1229.05 252.819 1227.07C253.692 1225.85 254.58 1224.72 255.467 1223.8C256.306 1222.92 257.189 1222.18 258.099 1221.73C262.946 1217.68 270.117 1214.15 275.964 1211.56Z" fill="white" stroke="black" stroke-width="2"/>
<path d="M476.005 1331.71C474.317 1331.81 472.717 1331.88 471.268 1331.94C472.335 1332.07 473.473 1332.19 474.652 1332.3C480.508 1332.85 487.221 1333.22 490.874 1332.94C492.595 1332.81 495.406 1332.04 498.715 1330.79C501.997 1329.55 505.683 1327.86 509.125 1325.97C512.574 1324.08 515.737 1322 517.998 1319.98C519.13 1318.97 520.005 1317.99 520.58 1317.09C521.158 1316.19 521.387 1315.43 521.355 1314.81C521.337 1314.45 521.27 1314.26 521.224 1314.18C521.194 1314.13 521.178 1314.12 521.163 1314.12C521.162 1314.12 521.161 1314.12 521.16 1314.12C521.034 1314.07 520.631 1314.08 519.782 1314.46C518.163 1315.19 515.89 1316.84 513.267 1318.85C512.792 1319.21 512.307 1319.58 511.815 1319.96C509.645 1321.63 507.343 1323.4 505.165 1324.86C503.826 1325.76 502.507 1326.56 501.268 1327.15C500.091 1327.71 498.926 1328.12 497.849 1328.23C491.44 1330.48 482.883 1331.31 476.005 1331.71Z" fill="white" stroke="black" stroke-width="2"/>
<path d="M772.555 1348.8C770.407 1349.33 768.39 1349.79 766.627 1350.19C768.054 1350.1 769.622 1349.98 771.257 1349.84C777.569 1349.28 784.757 1348.35 788.58 1347.34C790.39 1346.87 793.224 1345.49 796.485 1343.52C799.722 1341.56 803.3 1339.05 806.578 1336.37C809.864 1333.69 812.812 1330.87 814.817 1328.27C815.82 1326.98 816.561 1325.77 816.998 1324.69C817.437 1323.61 817.537 1322.75 817.376 1322.07C817.283 1321.69 817.172 1321.49 817.098 1321.4C817.042 1321.34 817.008 1321.33 816.97 1321.32C816.798 1321.3 816.35 1321.39 815.523 1321.97C813.943 1323.06 811.852 1325.27 809.468 1327.9C809.035 1328.38 808.594 1328.87 808.147 1329.37C806.175 1331.56 804.086 1333.88 802.066 1335.85C800.824 1337.07 799.586 1338.17 798.394 1339.03C797.258 1339.86 796.11 1340.52 795 1340.84C788.66 1344.47 779.765 1347.03 772.555 1348.8Z" fill="white" stroke="black" stroke-width="2"/>
<path d="M448.62 1168.19C449.641 1167.88 450.586 1167.58 451.439 1167.31C448.608 1167.63 444.903 1168.17 440.916 1168.84C432.35 1170.29 422.599 1172.35 417.451 1174.15C414.977 1175.02 411.216 1177.23 406.968 1180.29C402.743 1183.33 398.112 1187.16 393.909 1191.19C389.701 1195.22 385.955 1199.43 383.475 1203.22C382.235 1205.12 381.334 1206.89 380.839 1208.45C380.344 1210.02 380.283 1211.3 380.609 1212.3C380.97 1213.41 381.366 1213.53 381.568 1213.54C381.957 1213.56 382.656 1213.29 383.731 1212.41C385.812 1210.71 388.457 1207.43 391.422 1203.58C391.963 1202.87 392.514 1202.15 393.072 1201.43C395.528 1198.21 398.121 1194.82 400.658 1191.92C402.217 1190.14 403.776 1188.52 405.291 1187.21C406.754 1185.96 408.226 1184.96 409.664 1184.43C417.886 1178.8 429.742 1174.33 439.418 1171.12C442.82 1170 445.976 1169.01 448.62 1168.19Z" fill="white" stroke="black" stroke-width="2"/>
<line x1="941.324" y1="400.752" x2="1072.32" y2="854.752" stroke="black" stroke-width="9"/>
<line x1="180.226" y1="1363.55" x2="4.22598" y2="1844.55" stroke="#FF4444" stroke-width="9"/>
<line x1="6.20145" y1="247.388" x2="95.2015" y2="479.388" stroke="black" stroke-width="9"/>
<line x1="9.48367" y1="756.526" x2="194.484" y2="776.526" stroke="#FF4444" stroke-width="9"/>
<line x1="1066.91" y1="1014.5" x2="909.242" y2="1459.94" stroke="black" stroke-width="9"/>
<line x1="167.915" y1="1142.22" x2="23.9147" y2="1396.22" stroke="black" stroke-width="9"/>
</svg>
