<svg width="375" height="963" viewBox="0 0 375 963" fill="none" xmlns="http://www.w3.org/2000/svg">
<path d="M107.887 944.534C89.1111 945.392 70.8477 946.141 57.527 946.439C71.0428 944.425 88.5991 942.089 106.545 939.796C127.212 937.156 148.508 934.562 164.474 932.617C175.712 931.248 184.309 930.201 188.183 929.686C193.205 929.968 211.967 931.009 233.819 931.662C229.854 932.534 226.002 933.387 222.328 934.201C219.433 934.842 216.648 935.458 214.006 936.04C207.37 937.502 201.677 938.737 197.307 939.617C195.121 940.057 193.347 940.392 191.996 940.618C191.323 940.731 190.803 940.809 190.419 940.858C190.271 940.877 190.16 940.89 190.079 940.898C188.263 940.853 184.744 940.96 180.443 941.127C175.453 941.321 168.863 941.621 161.269 941.981C155.835 942.239 149.885 942.528 143.621 942.833C132.336 943.381 120.031 943.979 107.887 944.534ZM305.187 925.304C299.473 925.782 292.703 926.07 285.342 926.214C291.22 925.196 296.62 924.367 301.295 923.804C306.944 923.123 311.14 922.882 313.806 923.061C315.604 923.181 316.344 923.459 316.631 923.726C314.368 924.283 310.565 924.854 305.187 925.304ZM317.836 923.376C317.836 923.376 317.833 923.377 317.825 923.38C317.832 923.377 317.836 923.376 317.836 923.376Z" fill="black" stroke="black" stroke-width="9"/>
<path d="M33.1814 470.002C30.3371 465.478 27.854 461.454 25.8034 458.033C28.6251 461.349 31.833 465.197 35.3588 469.485C47.7215 484.521 63.6404 504.546 79.7774 525.071C97.9526 548.189 116.474 572.033 130.337 589.88C140.307 602.717 147.868 612.451 151.157 616.58C154.471 622.896 168.756 650.115 185.657 680.104C179.43 673.469 173.358 667.043 167.705 661.06C164.836 658.025 162.076 655.104 159.458 652.327C152.9 645.373 147.268 639.361 143.013 634.682C140.885 632.341 139.158 630.396 137.858 628.869C136.708 627.518 136.084 626.717 135.801 626.324C134.678 624.303 132.03 620.157 128.575 614.86C124.746 608.99 119.632 601.264 113.713 592.359C109.481 585.993 104.837 579.023 99.9462 571.683C91.1316 558.454 81.5163 544.023 72.0729 529.762C57.3899 507.587 43.1952 485.93 33.1814 470.002ZM237.867 754.145C231.339 745.054 223.831 733.327 216.069 720.514C225.266 730.87 233.493 740.532 239.76 748.622C244.717 755.022 248.202 760.126 250.04 763.725C251.884 767.335 251.724 768.703 250.913 769.126C250.762 769.205 250.644 769.231 250.566 769.236C250.367 769.094 249.902 768.734 249.091 767.952C246.424 765.379 242.616 760.761 237.867 754.145ZM250.463 769.229C250.463 769.227 250.476 769.229 250.504 769.237C250.477 769.235 250.463 769.231 250.463 769.229Z" fill="black" stroke="black" stroke-width="9"/>
<path d="M274.876 340.111C276.343 332.598 280.798 308.991 283.464 281.396C288.849 299.133 294.399 316.89 299.38 332.829C301.009 338.041 302.577 343.058 304.058 347.817C307.765 359.723 310.916 369.959 313.155 377.652C314.278 381.509 315.136 384.604 315.711 386.89C315.953 387.854 316.125 388.593 316.239 389.132C316.225 389.394 316.216 389.642 316.209 389.865C316.182 390.748 316.181 391.764 316.197 392.848C316.229 395.022 316.331 397.802 316.483 401.025C316.789 407.488 317.313 416.112 317.953 426.033C318.414 433.16 318.935 440.964 319.482 449.172C320.468 463.93 321.54 479.993 322.504 495.777C324.004 520.351 325.216 543.843 325.408 560.113C325.506 568.355 325.332 574.222 324.908 577.454C324.885 577.634 324.862 577.797 324.839 577.945C324.667 577.512 324.467 576.979 324.238 576.33C323.515 574.281 322.663 571.522 321.69 568.054C319.747 561.126 317.473 551.899 314.975 541C309.985 519.231 304.235 491.384 298.632 463.189C293.034 435.02 287.605 406.619 283.258 383.77C282.67 380.679 282.1 377.684 281.552 374.8C278.553 359.025 276.189 346.588 274.876 340.111ZM278.851 210.734C280.499 223.374 280.698 237.962 280.018 252.819C272.671 227.716 266.558 205.003 263.705 189.837C262.919 185.658 262.43 182.309 262.212 179.778C261.989 177.19 262.093 175.98 262.209 175.484C262.276 175.198 262.393 174.866 262.922 174.914C263.552 174.972 264.663 175.598 266.469 177.502C269.959 181.181 272.534 185.908 274.469 191.286C276.429 196.736 277.876 203.256 278.851 210.734Z" fill="#FF4444" stroke="black" stroke-width="9"/>
<path d="M100.603 29.0947C101.098 27.4163 101.576 25.8102 102.035 24.2817C101.822 25.5555 101.599 26.8694 101.367 28.221C98.516 44.8526 94.422 66.7072 90.1271 89.0128C85.2908 114.131 80.1793 139.919 76.353 159.224C73.6024 173.101 71.516 183.628 70.6735 188.145C68.5553 193.834 59.75 217.493 50.3407 244.799C50.9562 239.027 51.5429 233.425 52.0984 228.12C52.4713 224.559 52.8301 221.133 53.1741 217.88C54.0361 209.729 54.8007 202.708 55.4654 197.317C55.7979 194.621 56.0963 192.406 56.3605 190.7C56.5938 189.194 56.7631 188.334 56.8589 187.925C57.5348 185.985 58.7346 181.814 60.2295 176.442C61.8855 170.491 64.0247 162.618 66.4767 153.529C68.2295 147.032 70.1426 139.913 72.1573 132.416C75.7883 118.904 79.7492 104.164 83.6961 89.6292C89.8328 67.0299 95.9056 45.0372 100.603 29.0947ZM30.9686 327.69C32.8579 319.642 35.5622 309.978 38.7259 299.55C37.4531 308.416 36.1306 316.53 34.7681 323.358C33.3901 330.265 32.035 335.524 30.7413 338.899C29.6674 341.701 28.8538 342.657 28.2894 342.853C28.2906 342.832 28.2918 342.81 28.2932 342.788C28.4754 339.732 29.334 334.653 30.9686 327.69Z" fill="black" stroke="black" stroke-width="9"/>
</svg>
