<svg width="1742" height="200" viewBox="0 0 1742 200" fill="none" xmlns="http://www.w3.org/2000/svg">
<path d="M846.026 127.578L624.961 181.417C626.663 180.045 628.556 178.572 630.616 177.013C640.365 169.631 653.405 160.629 666.557 151.586C667.322 151.06 668.088 150.533 668.853 150.008C681.188 141.528 693.449 133.1 702.8 126.154C707.754 122.474 712.002 119.13 715.044 116.362C716.554 114.988 717.885 113.651 718.873 112.407C719.367 111.785 719.856 111.087 720.238 110.337C720.595 109.635 721.029 108.562 721.029 107.273C721.029 96.6595 723.082 90.8529 725.617 87.2237C728.197 83.5312 731.631 81.5106 736.022 79.0257C736.119 78.9708 736.217 78.9157 736.315 78.8603C740.489 76.5001 745.548 73.6395 749.361 68.2388C753.314 62.6376 755.583 54.8705 755.583 43.2336V43.1751V43.1169V43.0588V43.0008V42.943V42.8854V42.8279V42.7705V42.7133V42.6562V42.5993V42.5425V42.4859V42.4294V42.373V42.3168V42.2608V42.2048V42.1491V42.0934V42.0379V41.9825V41.9273V41.8722V41.8173V41.7625V41.7078V41.6532V41.5988V41.5445V41.4904V41.4364V41.3825V41.3287V41.2751V41.2216V41.1682V41.115V41.0619V41.0089V40.956V40.9033V40.8507V40.7982V40.7458V40.6936V40.6415V40.5895V40.5376V40.4858V40.4342V40.3827V40.3313V40.28V40.2288V40.1778V40.1269V40.076V40.0253V39.9747V39.9243V39.8739V39.8236V39.7735V39.7235V39.6735V39.6237V39.574V39.5244V39.4749V39.4255V39.3763V39.3271V39.278V39.2291V39.1802V39.1314V39.0828V39.0342V38.9858V38.9374V38.8891V38.841V38.7929V38.745V38.6971V38.6493V38.6016V38.5541V38.5066V38.4592V38.4119V38.3647V38.3175V38.2705V38.2236V38.1767V38.13V38.0833V38.0367V37.9902V37.9438V37.8975V37.8512V37.8051V37.759V37.713V37.6671V37.6213V37.5755V37.5299V37.4843V37.4388V37.3934V37.348V37.3027V37.2575V37.2124V37.1674V37.1224V37.0775V37.0327V36.9879V36.9432V36.8986V36.8541V36.8096V36.7652V36.7209V36.6766V36.6324V36.5883V36.5442V36.5002V36.4563V36.4124V36.3686V36.3249V36.2812V36.2376V36.194V36.1505V36.1071V36.0637V36.0203V35.9771V35.9339V35.8907V35.8476V35.8046V35.7616V35.7186V35.6758V35.6329V35.5901V35.5474V35.5047V35.4621V35.4195V35.377V35.3345V35.2921V35.2497V35.2073V35.165V35.1228V35.0806V35.0384V34.9963V34.9542V34.9121V34.8701V34.8282V34.7862V34.7444V34.7025V34.6607V34.6189V34.5772V34.5355V34.4938V34.4522V34.4106V34.369V34.3275V34.286V34.2445V34.203V34.1616V34.1202V34.0789V34.0375V33.9962V33.955V33.9137V33.8725V33.8313V33.7901V33.7489V33.7078V33.6667V33.6256V33.5845V33.5435V33.5024V33.4614V33.4204V33.3794V33.3384V33.2975V33.2566V33.2156V33.1747V33.1338V33.093V33.0521V33.0112V32.9704V32.9295V32.8887V32.8479V32.8071V32.7663V32.7255V32.6847V32.6439V32.6031V32.5623V32.5215V32.4808V32.44V32.3992V32.3584V32.3177V32.2769V32.2361V32.1953V32.1546V32.1138V32.073V32.0322V31.9914V31.9506V31.9098V31.869V31.8282V31.7873V31.7465V31.7056V31.6648V31.6239V31.583V31.5421V31.5012V31.4603V31.4193V31.3784V31.3374V31.2964V31.2554V31.2144V31.1734V31.1323V31.0912V31.0501V31.009V30.9679V30.9267V30.8855V30.8443V30.8031V30.7618V30.7206V30.6793V30.6379V30.5966V30.5552V30.5137V30.4723V30.4308V30.3893V30.3478V30.3062V30.2646V30.2229V30.1813V30.1396V30.0978V30.056V30.0142V29.9724V29.9305V29.8885V29.8466V29.8046V29.7625V29.7204V29.6783V29.6361V29.5939V29.5516V29.5093V29.467V29.4246V29.3821V29.3397V29.2971V29.2545V29.2119V29.1692V29.1265V29.0837V29.0408V28.998V28.955V28.912V28.869V28.8259V28.7827V28.7395V28.6962V28.6529V28.6095V28.566V28.5225V28.479V28.4353V28.3916V28.3479V28.3041V28.2602V28.2162V28.1722V28.1282V28.084V28.0398V27.9956V27.9512V27.9068V27.8623V27.8178V27.7732V27.7285V27.6837V27.6389V27.594V27.549V27.5039V27.4588V27.4136V27.3683V27.3229V27.2775V27.232V27.1864V27.1407V27.095V27.0491V27.0032V26.9572V26.9111V26.865V26.8187V26.7724V26.7259V26.6794V26.6328V26.5862V26.5394V26.4925V26.4456V26.3985V26.3514V26.3042V26.2569V26.2095V26.162V26.1144V26.0667V26.0189V25.971V25.923V25.875V25.8268V25.7785V25.7302V25.6817V25.6331V25.5845V25.5357V25.4868V25.4378V25.3887V25.3396V25.2903V25.2409V25.1914V25.1417V25.092V25.0422V24.9923V24.9422V24.8921V24.8418V24.7914V24.7409V24.6903V24.6396V24.5888V24.5378V24.4867V24.4356V24.3843V24.3329V24.2813V24.2297V24.1779V24.126V24.074V24.0219V23.9696V23.9172V23.8647V23.8121V23.7594V23.7065V23.6535V23.6003V23.5471V23.4937V23.4402V23.3866V23.3328V23.2789V23.2248V23.1707V23.1164V23.0619V23.0074V23.0058C770.049 22.4955 783.829 20.629 796.893 18.8044C797.451 18.7265 798.007 18.6487 798.561 18.5712C812.419 16.6331 825.387 14.8196 837.927 14.6306C873.749 14.0907 905.201 15.6482 937.037 17.2247L937.703 17.2577C969.748 18.8445 1002.21 20.4352 1039.7 19.8701C1049.71 19.7193 1065.07 22.2972 1081.61 25.0721L1082.95 25.2964C1093.26 27.0242 1103.94 28.7946 1113.63 29.8505L1070.52 52.4086L1068.36 53.5383L1068.12 55.9638L1063.96 99.1432L1037.07 171.876L956.264 136.042L955.555 135.728L954.782 135.669L847.434 127.464L846.721 127.409L846.026 127.578Z" fill="white" stroke="black" stroke-width="9"/>
<path d="M1457.54 137.557L1236.47 191.395C1238.18 190.023 1240.07 188.551 1242.13 186.991C1251.88 179.609 1264.92 170.607 1278.07 161.564C1278.84 161.038 1279.6 160.512 1280.37 159.986C1292.7 151.507 1304.96 143.078 1314.31 136.133C1319.27 132.453 1323.52 129.108 1326.56 126.34C1328.07 124.967 1329.4 123.629 1330.39 122.385C1330.88 121.763 1331.37 121.065 1331.75 120.316C1332.11 119.614 1332.54 118.54 1332.54 117.252C1332.54 106.638 1334.6 100.831 1337.13 97.2022C1339.71 93.5097 1343.14 91.4892 1347.54 89.0042C1347.63 88.9493 1347.73 88.8942 1347.83 88.8388C1352 86.4786 1357.06 83.618 1360.87 78.2173C1364.83 72.6161 1367.1 64.849 1367.1 53.2121V53.1537V53.0954V53.0373V52.9793V52.9215V52.8639V52.8064V52.749V52.6918V52.6347V52.5778V52.521V52.4644V52.4079V52.3516V52.2953V52.2393V52.1834V52.1276V52.0719V52.0164V51.9611V51.9058V51.8507V51.7958V51.741V51.6863V51.6317V51.5773V51.523V51.4689V51.4149V51.361V51.3072V51.2536V51.2001V51.1467V51.0935V51.0404V50.9874V50.9345V50.8818V50.8292V50.7767V50.7243V50.6721V50.62V50.568V50.5161V50.4644V50.4127V50.3612V50.3098V50.2585V50.2074V50.1563V50.1054V50.0546V50.0039V49.9533V49.9028V49.8524V49.8022V49.752V49.702V49.6521V49.6022V49.5525V49.5029V49.4534V49.4041V49.3548V49.3056V49.2565V49.2076V49.1587V49.11V49.0613V49.0127V48.9643V48.9159V48.8677V48.8195V48.7714V48.7235V48.6756V48.6278V48.5802V48.5326V48.4851V48.4377V48.3904V48.3432V48.2961V48.249V48.2021V48.1553V48.1085V48.0618V48.0152V47.9687V47.9223V47.876V47.8298V47.7836V47.7375V47.6915V47.6456V47.5998V47.5541V47.5084V47.4628V47.4173V47.3719V47.3265V47.2812V47.236V47.1909V47.1459V47.1009V47.056V47.0112V46.9664V46.9217V46.8771V46.8326V46.7881V46.7437V46.6994V46.6551V46.6109V46.5668V46.5227V46.4787V46.4348V46.3909V46.3471V46.3034V46.2597V46.2161V46.1725V46.129V46.0856V46.0422V45.9989V45.9556V45.9124V45.8692V45.8261V45.7831V45.7401V45.6972V45.6543V45.6114V45.5687V45.5259V45.4833V45.4406V45.398V45.3555V45.313V45.2706V45.2282V45.1859V45.1436V45.1013V45.0591V45.0169V44.9748V44.9327V44.8907V44.8487V44.8067V44.7648V44.7229V44.681V44.6392V44.5974V44.5557V44.514V44.4723V44.4307V44.3891V44.3475V44.306V44.2645V44.223V44.1816V44.1401V44.0988V44.0574V44.0161V43.9748V43.9335V43.8922V43.851V43.8098V43.7686V43.7274V43.6863V43.6452V43.6041V43.563V43.522V43.4809V43.4399V43.3989V43.3579V43.317V43.276V43.2351V43.1942V43.1532V43.1124V43.0715V43.0306V42.9897V42.9489V42.908V42.8672V42.8264V42.7856V42.7448V42.704V42.6632V42.6224V42.5816V42.5408V42.5V42.4593V42.4185V42.3777V42.337V42.2962V42.2554V42.2146V42.1739V42.1331V42.0923V42.0515V42.0107V41.9699V41.9291V41.8883V41.8475V41.8067V41.7658V41.725V41.6842V41.6433V41.6024V41.5615V41.5206V41.4797V41.4388V41.3979V41.3569V41.3159V41.275V41.234V41.1929V41.1519V41.1108V41.0698V41.0287V40.9875V40.9464V40.9052V40.8641V40.8229V40.7816V40.7404V40.6991V40.6578V40.6164V40.5751V40.5337V40.4923V40.4508V40.4093V40.3678V40.3263V40.2847V40.2431V40.2015V40.1598V40.1181V40.0763V40.0346V39.9927V39.9509V39.909V39.8671V39.8251V39.7831V39.741V39.6989V39.6568V39.6146V39.5724V39.5302V39.4879V39.4455V39.4031V39.3607V39.3182V39.2756V39.233V39.1904V39.1477V39.105V39.0622V39.0194V38.9765V38.9335V38.8905V38.8475V38.8044V38.7612V38.718V38.6747V38.6314V38.588V38.5446V38.501V38.4575V38.4138V38.3702V38.3264V38.2826V38.2387V38.1948V38.1508V38.1067V38.0625V38.0183V37.9741V37.9297V37.8853V37.8408V37.7963V37.7517V37.707V37.6622V37.6174V37.5725V37.5275V37.4824V37.4373V37.3921V37.3468V37.3015V37.256V37.2105V37.1649V37.1192V37.0735V37.0276V36.9817V36.9357V36.8896V36.8435V36.7972V36.7509V36.7045V36.658V36.6114V36.5647V36.5179V36.471V36.4241V36.3771V36.3299V36.2827V36.2354V36.188V36.1405V36.0929V36.0452V35.9974V35.9495V35.9016V35.8535V35.8053V35.757V35.7087V35.6602V35.6116V35.563V35.5142V35.4653V35.4163V35.3673V35.3181V35.2688V35.2194V35.1699V35.1203V35.0705V35.0207V34.9708V34.9207V34.8706V34.8203V34.7699V34.7194V34.6688V34.6181V34.5673V34.5163V34.4653V34.4141V34.3628V34.3114V34.2598V34.2082V34.1564V34.1045V34.0525V34.0004V33.9481V33.8957V33.8432V33.7906V33.7379V33.685V33.632V33.5789V33.5256V33.4722V33.4187V33.3651V33.3113V33.2574V33.2034V33.1492V33.0949V33.0405V32.9859V32.9843C1381.56 32.474 1395.34 30.6075 1408.41 28.7829C1408.96 28.705 1409.52 28.6273 1410.07 28.5497C1423.93 26.6117 1436.9 24.7981 1449.44 24.6091C1485.26 24.0692 1516.71 25.6267 1548.55 27.2032L1549.22 27.2362C1581.26 28.823 1613.72 30.4137 1651.21 29.8486C1661.22 29.6978 1676.59 32.2757 1693.13 35.0506L1694.46 35.2749C1704.77 37.0027 1715.45 38.7731 1725.14 39.829L1682.03 62.3871L1679.87 63.5168L1679.64 65.9424L1675.47 109.122L1648.59 181.854L1567.78 146.021L1567.07 145.706L1566.3 145.647L1458.95 137.442L1458.23 137.388L1457.54 137.557Z" fill="white" stroke="black" stroke-width="9"/>
<path d="M1136.36 122.411L948.021 167.368C948.468 167.014 948.93 166.653 949.406 166.285C956.164 161.068 965.23 154.929 974.456 148.719C974.998 148.354 975.541 147.989 976.084 147.624C984.702 141.825 993.336 136.016 999.934 131.057C1003.43 128.429 1006.5 125.935 1008.73 123.728C1009.84 122.63 1010.86 121.488 1011.63 120.34C1012.33 119.307 1013.22 117.689 1013.22 115.754C1013.22 105.228 1015.25 98.674 1017.99 94.0098C1020.78 89.2613 1024.5 86.0846 1028.86 82.4324L1029.09 82.241C1033.29 78.7204 1038.08 74.7022 1041.7 68.6026C1045.43 62.3006 1047.72 54.1508 1047.72 42.5016V42.4434V42.3854V42.3275V42.2699V42.2124V42.1551V42.098V42.0411V41.9843V41.9277V41.8713V41.8151V41.759V41.7031V41.6474V41.5919V41.5365V41.4813V41.4262V41.3714V41.3167V41.2621V41.2078V41.1536V41.0995V41.0457V40.9919V40.9384V40.885V40.8318V40.7787V40.7258V40.673V40.6204V40.568V40.5157V40.4636V40.4116V40.3598V40.3081V40.2566V40.2052V40.154V40.1029V40.052V40.0012V39.9506V39.9001V39.8498V39.7996V39.7496V39.6997V39.6499V39.6003V39.5508V39.5015V39.4523V39.4032V39.3543V39.3055V39.2569V39.2084V39.16V39.1118V39.0637V39.0157V38.9679V38.9201V38.8726V38.8251V38.7778V38.7306V38.6835V38.6366V38.5898V38.5431V38.4965V38.4501V38.4037V38.3575V38.3115V38.2655V38.2197V38.1739V38.1283V38.0829V38.0375V37.9922V37.9471V37.9021V37.8571V37.8123V37.7677V37.7231V37.6786V37.6343V37.59V37.5459V37.5018V37.4579V37.4141V37.3704V37.3267V37.2832V37.2398V37.1965V37.1533V37.1102V37.0672V37.0243V36.9815V36.9388V36.8961V36.8536V36.8112V36.7689V36.7266V36.6845V36.6424V36.6004V36.5586V36.5168V36.4751V36.4335V36.392V36.3505V36.3092V36.2679V36.2267V36.1856V36.1446V36.1037V36.0628V36.022V35.9813V35.9407V35.9002V35.8597V35.8193V35.779V35.7388V35.6986V35.6585V35.6185V35.5785V35.5387V35.4989V35.4591V35.4195V35.3799V35.3403V35.3009V35.2615V35.2221V35.1828V35.1436V35.1045V35.0654V35.0264V34.9874V34.9485V34.9096V34.8708V34.8321V34.7934V34.7548V34.7162V34.6777V34.6393V34.6008V34.5625V34.5242V34.4859V34.4477V34.4095V34.3714V34.3334V34.2953V34.2574V34.2194V34.1816V34.1437V34.1059V34.0681V34.0304V33.9927V33.9551V33.9175V33.8799V33.8424V33.8049V33.7674V33.73V33.6926V33.6553V33.618V33.5807V33.5434V33.5062V33.469V33.4318V33.3946V33.3575V33.3204V33.2833V33.2463V33.2093V33.1723V33.1353V33.0983V33.0614V33.0245V32.9876V32.9507V32.9138V32.877V32.8402V32.8034V32.7666V32.7298V32.693V32.6562V32.6195V32.5827V32.546V32.5093V32.4726V32.4359V32.3992V32.3625V32.3258V32.2891V32.2524V32.2158V32.1791V32.1424V32.1057V32.0691V32.0324V31.9957V31.959V31.9223V31.8857V31.849V31.8123V31.7756V31.7388V31.7021V31.6654V31.6287V31.5919V31.5552V31.5184V31.4816V31.4448V31.408V31.3712V31.3343V31.2975V31.2606V31.2237V31.1868V31.1498V31.1129V31.0759V31.0389V31.0019V30.9649V30.9278V30.8907V30.8536V30.8164V30.7793V30.7421V30.7048V30.6676V30.6303V30.593V30.5556V30.5182V30.4808V30.4433V30.4059V30.3683V30.3308V30.2932V30.2555V30.2179V30.1801V30.1424V30.1046V30.0668V30.0289V29.991V29.953V29.915V29.8769V29.8388V29.8006V29.7624V29.7242V29.6859V29.6475V29.6091V29.5707V29.5322V29.4936V29.455V29.4163V29.3776V29.3388V29.3V29.2611V29.2221V29.1831V29.144V29.1049V29.0657V29.0264V28.9871V28.9477V28.9082V28.8687V28.8291V28.7894V28.7497V28.7099V28.67V28.6301V28.5901V28.55V28.5099V28.4696V28.4293V28.389V28.3485V28.308V28.2674V28.2267V28.1859V28.1451V28.1042V28.0631V28.0221V27.9809V27.9396V27.8983V27.8569V27.8154V27.7738V27.7321V27.6903V27.6484V27.6065V27.5644V27.5223V27.4801V27.4378V27.3953V27.3528V27.3102V27.2675V27.2247V27.1818V27.1388V27.0957V27.0526V27.0093V26.9659V26.9224V26.8788V26.8351V26.7913V26.7473V26.7033V26.6592V26.615V26.5706V26.5262V26.4816V26.4369V26.3921V26.3472V26.3022V26.2571V26.2119V26.1665V26.1211V26.0755V26.0298V25.9839V25.938V25.8919V25.8458V25.7994V25.753V25.7065V25.6598V25.613V25.5661V25.519V25.4718V25.4245V25.3771V25.3295V25.2818V25.234V25.1861V25.138V25.0898V25.0414V24.9929V24.9443V24.8955V24.8466V24.7976V24.7484V24.6991V24.6497V24.6001V24.5503V24.5004V24.4504V24.4003V24.3499V24.2995V24.2489V24.1981V24.1472V24.0962V24.045V23.9936V23.9421V23.8905V23.8387V23.7867V23.7346V23.7152C1062.43 23.1784 1077.93 21.1486 1092.7 19.1638C1093.33 19.0796 1093.95 18.9955 1094.58 18.9116C1110.27 16.7993 1124.99 14.8187 1137.48 14.6302C1173.11 14.0922 1204.39 15.6443 1236.06 17.2155L1236.73 17.2483C1268.6 18.8297 1300.89 20.415 1338.19 19.8518C1348.31 19.6989 1366.52 21.3677 1385.75 23.1299L1387.49 23.2887C1399.45 24.3845 1411.71 25.4941 1422.3 26.1493L1382.84 46.1419L1380.38 47.3915V50.1561V101.707L1354.93 172.019L1273.65 133.3L1272.89 132.942L1272.06 132.877L1137.76 122.302L1137.05 122.246L1136.36 122.411Z" fill="#FF4444" stroke="black" stroke-width="9"/>
<path d="M234.539 121.142L13.4747 174.98C15.1766 173.608 17.0694 172.136 19.1293 170.576C28.8789 163.194 41.9183 154.192 55.071 145.149C55.836 144.623 56.6013 144.097 57.3664 143.571C69.7017 135.092 81.963 126.663 91.3132 119.718C96.2677 116.038 100.516 112.693 103.558 109.925C105.068 108.551 106.399 107.214 107.387 105.97C107.881 105.348 108.369 104.65 108.751 103.901C109.109 103.199 109.543 102.125 109.543 100.837C109.543 90.2229 111.596 84.4163 114.131 80.7872C116.71 77.0947 120.144 75.0741 124.536 72.5892C124.633 72.5343 124.73 72.4792 124.828 72.4238C129.003 70.0636 134.062 67.203 137.874 61.8023C141.828 56.2011 144.097 48.434 144.097 36.797V36.7386V36.6804V36.6223V36.5643V36.5065V36.4488V36.3913V36.334V36.2768V36.2197V36.1628V36.106V36.0494V35.9929V35.9365V35.8803V35.8242V35.7683V35.7125V35.6569V35.6014V35.546V35.4908V35.4357V35.3808V35.3259V35.2712V35.2167V35.1623V35.108V35.0539V34.9998V34.946V34.8922V34.8386V34.7851V34.7317V34.6785V34.6254V34.5724V34.5195V34.4668V34.4142V34.3617V34.3093V34.2571V34.205V34.153V34.1011V34.0493V33.9977V33.9462V33.8948V33.8435V33.7923V33.7413V33.6903V33.6395V33.5888V33.5382V33.4877V33.4374V33.3871V33.337V33.2869V33.237V33.1872V33.1375V33.0879V33.0384V32.989V32.9397V32.8906V32.8415V32.7925V32.7437V32.6949V32.6463V32.5977V32.5492V32.5009V32.4526V32.4045V32.3564V32.3084V32.2606V32.2128V32.1651V32.1175V32.0701V32.0227V31.9754V31.9281V31.881V31.834V31.7871V31.7402V31.6935V31.6468V31.6002V31.5537V31.5073V31.461V31.4147V31.3686V31.3225V31.2765V31.2306V31.1848V31.139V31.0934V31.0478V31.0023V30.9568V30.9115V30.8662V30.821V30.7759V30.7308V30.6859V30.641V30.5961V30.5514V30.5067V30.4621V30.4176V30.3731V30.3287V30.2844V30.2401V30.1959V30.1518V30.1077V30.0637V30.0198V29.9759V29.9321V29.8883V29.8447V29.801V29.7575V29.714V29.6705V29.6271V29.5838V29.5406V29.4973V29.4542V29.4111V29.368V29.3251V29.2821V29.2392V29.1964V29.1536V29.1109V29.0682V29.0256V28.983V28.9405V28.898V28.8556V28.8132V28.7708V28.7285V28.6863V28.644V28.6019V28.5597V28.5177V28.4756V28.4336V28.3916V28.3497V28.3078V28.266V28.2242V28.1824V28.1407V28.099V28.0573V28.0157V27.9741V27.9325V27.8909V27.8494V27.808V27.7665V27.7251V27.6837V27.6424V27.601V27.5597V27.5184V27.4772V27.436V27.3947V27.3536V27.3124V27.2713V27.2302V27.1891V27.148V27.1069V27.0659V27.0249V26.9839V26.9429V26.9019V26.861V26.82V26.7791V26.7382V26.6973V26.6564V26.6156V26.5747V26.5338V26.493V26.4522V26.4114V26.3705V26.3297V26.2889V26.2481V26.2073V26.1666V26.1258V26.085V26.0442V26.0035V25.9627V25.9219V25.8811V25.8404V25.7996V25.7588V25.718V25.6773V25.6365V25.5957V25.5549V25.5141V25.4733V25.4325V25.3916V25.3508V25.31V25.2691V25.2283V25.1874V25.1465V25.1056V25.0647V25.0238V24.9828V24.9419V24.9009V24.8599V24.8189V24.7779V24.7369V24.6958V24.6547V24.6136V24.5725V24.5314V24.4902V24.449V24.4078V24.3666V24.3253V24.284V24.2427V24.2014V24.16V24.1186V24.0772V24.0358V23.9943V23.9528V23.9112V23.8697V23.8281V23.7864V23.7447V23.703V23.6613V23.6195V23.5777V23.5358V23.494V23.452V23.4101V23.368V23.326V23.2839V23.2418V23.1996V23.1574V23.1151V23.0728V23.0305V22.9881V22.9456V22.9031V22.8606V22.818V22.7754V22.7327V22.69V22.6472V22.6043V22.5614V22.5185V22.4755V22.4324V22.3893V22.3462V22.303V22.2597V22.2164V22.173V22.1295V22.086V22.0424V21.9988V21.9551V21.9114V21.8675V21.8237V21.7797V21.7357V21.6916V21.6475V21.6033V21.559V21.5147V21.4703V21.4258V21.3813V21.3366V21.2919V21.2472V21.2023V21.1574V21.1125V21.0674V21.0223V20.9771V20.9318V20.8864V20.841V20.7955V20.7499V20.7042V20.6584V20.6126V20.5667V20.5207V20.4746V20.4284V20.3822V20.3358V20.2894V20.2429V20.1963V20.1496V20.1029V20.056V20.0091V19.962V19.9149V19.8677V19.8204V19.7729V19.7254V19.6779V19.6302V19.5824V19.5345V19.4865V19.4384V19.3903V19.342V19.2936V19.2452V19.1966V19.1479V19.0992V19.0503V19.0013V18.9522V18.903V18.8537V18.8043V18.7548V18.7052V18.6555V18.6057V18.5557V18.5057V18.4555V18.4053V18.3549V18.3044V18.2538V18.2031V18.1522V18.1013V18.0502V17.999V17.9477V17.8963V17.8448V17.7931V17.7414V17.6895V17.6375V17.5853V17.5331V17.4807V17.4282V17.3756V17.3228V17.27V17.217V17.1638V17.1106V17.0572V17.0037V16.95V16.8963V16.8424V16.7883V16.7342V16.6799V16.6254V16.5709V16.5693C158.563 16.059 172.343 14.1924 185.407 12.3679C185.964 12.29 186.52 12.2122 187.075 12.1347C200.933 10.1966 213.901 8.38308 226.441 8.19408C262.263 7.65418 293.714 9.21166 325.55 10.7882L326.217 10.8212C358.262 12.408 390.72 13.9987 428.214 13.4335C438.22 13.2827 453.587 15.8607 470.128 18.6356L471.465 18.8598C481.769 20.5877 492.452 22.3581 502.143 23.414L459.03 45.9721L456.871 47.1018L456.637 49.5273L452.473 92.7067L425.588 165.439L344.777 129.605L344.069 129.291L343.296 129.232L235.947 121.027L235.234 120.973L234.539 121.142Z" fill="white" stroke="black" stroke-width="9"/>
<path d="M524.876 115.975L336.535 160.931C336.982 160.577 337.444 160.217 337.92 159.849C344.678 154.631 353.744 148.492 362.97 142.283C363.512 141.918 364.055 141.553 364.598 141.187C373.216 135.389 381.85 129.58 388.448 124.621C391.944 121.993 395.011 119.498 397.242 117.291C398.352 116.193 399.373 115.052 400.145 113.904C400.841 112.871 401.738 111.253 401.738 109.317C401.738 98.7916 403.769 92.2374 406.508 87.5733C409.296 82.8248 413.019 79.6481 417.375 75.9959L417.603 75.8045C421.804 72.2838 426.598 68.2657 430.212 62.1661C433.945 55.864 436.229 47.7143 436.229 36.065V36.0068V35.9488V35.891V35.8333V35.7759V35.7186V35.6615V35.6045V35.5478V35.4912V35.4348V35.3786V35.3225V35.2666V35.2109V35.1553V35.1V35.0448V34.9897V34.9349V34.8802V34.8256V34.7712V34.717V34.663V34.6091V34.5554V34.5019V34.4485V34.3952V34.3422V34.2893V34.2365V34.1839V34.1315V34.0792V34.027V33.9751V33.9233V33.8716V33.8201V33.7687V33.7175V33.6664V33.6155V33.5647V33.5141V33.4636V33.4133V33.3631V33.3131V33.2632V33.2134V33.1638V33.1143V33.065V33.0158V32.9667V32.9178V32.869V32.8204V32.7719V32.7235V32.6753V32.6272V32.5792V32.5313V32.4836V32.436V32.3886V32.3413V32.2941V32.247V32.2001V32.1532V32.1066V32.06V32.0135V31.9672V31.921V31.8749V31.829V31.7831V31.7374V31.6918V31.6463V31.601V31.5557V31.5106V31.4655V31.4206V31.3758V31.3311V31.2866V31.2421V31.1977V31.1535V31.1093V31.0653V31.0214V30.9776V30.9338V30.8902V30.8467V30.8033V30.76V30.7168V30.6737V30.6307V30.5878V30.545V30.5022V30.4596V30.4171V30.3747V30.3323V30.2901V30.2479V30.2059V30.1639V30.122V30.0803V30.0386V29.997V29.9554V29.914V29.8726V29.8314V29.7902V29.7491V29.7081V29.6671V29.6263V29.5855V29.5448V29.5042V29.4636V29.4232V29.3828V29.3425V29.3022V29.2621V29.222V29.182V29.142V29.1021V29.0623V29.0226V28.9829V28.9433V28.9038V28.8643V28.8249V28.7856V28.7463V28.7071V28.668V28.6289V28.5898V28.5509V28.512V28.4731V28.4343V28.3956V28.3569V28.3183V28.2797V28.2412V28.2027V28.1643V28.126V28.0877V28.0494V28.0112V27.973V27.9349V27.8968V27.8588V27.8208V27.7829V27.745V27.7072V27.6694V27.6316V27.5939V27.5562V27.5186V27.481V27.4434V27.4059V27.3684V27.3309V27.2935V27.2561V27.2188V27.1814V27.1441V27.1069V27.0696V27.0324V26.9953V26.9581V26.921V26.8839V26.8468V26.8098V26.7728V26.7358V26.6988V26.6618V26.6249V26.588V26.5511V26.5142V26.4773V26.4405V26.4037V26.3668V26.33V26.2932V26.2565V26.2197V26.183V26.1462V26.1095V26.0728V26.0361V25.9994V25.9627V25.926V25.8893V25.8526V25.8159V25.7792V25.7426V25.7059V25.6692V25.6325V25.5959V25.5592V25.5225V25.4858V25.4491V25.4124V25.3757V25.339V25.3023V25.2656V25.2289V25.1921V25.1554V25.1186V25.0819V25.0451V25.0083V24.9715V24.9346V24.8978V24.8609V24.8241V24.7872V24.7502V24.7133V24.6764V24.6394V24.6024V24.5654V24.5283V24.4913V24.4542V24.417V24.3799V24.3427V24.3055V24.2683V24.231V24.1938V24.1564V24.1191V24.0817V24.0443V24.0068V23.9693V23.9318V23.8943V23.8567V23.819V23.7813V23.7436V23.7059V23.6681V23.6302V23.5924V23.5544V23.5165V23.4784V23.4404V23.4023V23.3641V23.3259V23.2877V23.2494V23.211V23.1726V23.1342V23.0956V23.0571V23.0185V22.9798V22.9411V22.9023V22.8634V22.8245V22.7856V22.7466V22.7075V22.6683V22.6291V22.5899V22.5505V22.5112V22.4717V22.4322V22.3926V22.3529V22.3132V22.2734V22.2335V22.1936V22.1536V22.1135V22.0733V22.0331V21.9928V21.9524V21.912V21.8715V21.8309V21.7902V21.7494V21.7086V21.6676V21.6266V21.5855V21.5444V21.5031V21.4618V21.4203V21.3788V21.3372V21.2955V21.2538V21.2119V21.17V21.1279V21.0858V21.0436V21.0012V20.9588V20.9163V20.8737V20.831V20.7882V20.7453V20.7023V20.6592V20.616V20.5727V20.5293V20.4858V20.4422V20.3985V20.3547V20.3108V20.2668V20.2227V20.1784V20.1341V20.0896V20.0451V20.0004V19.9556V19.9107V19.8657V19.8206V19.7754V19.73V19.6845V19.6389V19.5932V19.5474V19.5015V19.4554V19.4092V19.3629V19.3165V19.2699V19.2233V19.1765V19.1295V19.0825V19.0353V18.988V18.9406V18.893V18.8453V18.7975V18.7495V18.7015V18.6532V18.6049V18.5564V18.5078V18.459V18.4101V18.3611V18.3119V18.2626V18.2131V18.1635V18.1138V18.0639V18.0139V17.9637V17.9134V17.863V17.8124V17.7616V17.7107V17.6597V17.6085V17.5571V17.5056V17.454V17.4022V17.3502V17.2981V17.2786C450.941 16.7419 466.448 14.7121 481.215 12.7272C481.841 12.643 482.466 12.559 483.089 12.4751C498.787 10.3627 513.506 8.3822 525.989 8.19371C561.622 7.65566 592.908 9.20778 624.577 10.7789L625.24 10.8118C657.117 12.3932 689.406 13.9785 726.704 13.4153C736.829 13.2624 755.037 14.9311 774.266 16.6934L775.999 16.8522C787.962 17.948 800.219 19.0575 810.816 19.7128L771.357 39.7054L768.891 40.9549V43.7196V95.2708L743.446 165.582L662.159 126.864L661.407 126.506L660.577 126.44L526.274 115.866L525.567 115.81L524.876 115.975Z" fill="#FF4444" stroke="black" stroke-width="9"/>
<path d="M300.791 49.8047C300.791 52.7995 300.27 55.6803 299.229 58.4473C298.187 61.2142 296.494 63.6556 294.15 65.7715C291.807 67.8874 288.763 69.5801 285.02 70.8496C281.276 72.0866 276.702 72.7051 271.299 72.7051H267.881V88.7207C267.881 91.097 268.337 92.6921 269.248 93.5059C270.192 94.2871 271.51 94.6777 273.203 94.6777H279.307V100H242.783V94.6777H246.982C248.708 94.6777 249.993 94.2383 250.84 93.3594C251.686 92.4479 252.109 90.7227 252.109 88.1836V39.9902C252.109 37.6139 251.67 36.0026 250.791 35.1562C249.945 34.3099 248.675 33.8867 246.982 33.8867H242.783V28.6133H273.496C278.118 28.6133 282.139 29.1016 285.557 30.0781C288.975 31.0547 291.823 32.4544 294.102 34.2773C298.561 37.9557 300.791 43.1315 300.791 49.8047ZM271.787 34.5215H267.881V66.8945H270.322C275.238 66.8945 278.753 65.6087 280.869 63.0371C282.952 60.4329 283.994 56.1523 283.994 50.1953C283.994 44.7591 283.083 40.804 281.26 38.3301C279.307 35.791 276.149 34.5215 271.787 34.5215Z" fill="#FF4444"/>
<path d="M908.305 104.678V110H873.783V104.678H877.982C879.708 104.678 880.993 104.238 881.84 103.359C882.686 102.448 883.109 100.723 883.109 98.1836V50.4297C883.109 47.8906 882.686 46.1816 881.84 45.3027C880.993 44.3913 879.708 43.9355 877.982 43.9355H873.783V38.6133H908.305V43.9355H904.105C902.413 43.9355 901.127 44.375 900.248 45.2539C899.402 46.1328 898.979 47.8581 898.979 50.4297V98.1836C898.979 100.755 899.402 102.48 900.248 103.359C901.127 104.238 902.413 104.678 904.105 104.678H908.305Z" fill="#FF4444"/>
<path d="M622.609 86.5234L619.094 76.5137H594.777L591.896 85.1074C591.636 85.9212 591.359 86.8815 591.066 87.9883C590.806 89.0625 590.676 90.0065 590.676 90.8203C590.676 92.0573 591.132 93.0176 592.043 93.7012C592.954 94.3522 594.012 94.6777 595.217 94.6777H599.416V100H573.391V94.6777H574.611C576.63 94.6777 578.208 94.1406 579.348 93.0664C580.487 91.9922 581.577 90.1042 582.619 87.4023L604.299 28.6133H618.02L638.918 87.5C639.797 90.0065 640.822 91.8294 641.994 92.9688C643.166 94.1081 644.663 94.6777 646.486 94.6777H648.293V100H615.285V94.6777H619.191C620.298 94.6777 621.291 94.3685 622.17 93.75C623.049 93.099 623.488 92.1224 623.488 90.8203C623.488 90.0065 623.391 89.2253 623.195 88.4766C623 87.7279 622.805 87.0768 622.609 86.5234ZM596.877 70.4102H617.092L611.818 54.0039C611.428 52.7344 610.956 51.1882 610.402 49.3652C609.849 47.5098 609.312 45.6543 608.791 43.7988C608.303 41.9108 607.912 40.3158 607.619 39.0137C607.294 40.1855 606.822 41.6667 606.203 43.457C605.617 45.2474 604.999 47.054 604.348 48.877C603.729 50.6999 603.208 52.2461 602.785 53.5156L596.877 70.4102Z" fill="white"/>
<path d="M1530.58 54.7168H1522.58V108.184C1522.58 110.723 1523 112.448 1523.85 113.359C1524.72 114.238 1526.01 114.678 1527.7 114.678H1531.9V120H1497.38V114.678H1501.58C1503.31 114.678 1504.59 114.238 1505.44 113.359C1506.28 112.448 1506.71 110.723 1506.71 108.184V54.7168H1498.7C1495.83 54.7168 1493.8 55.3027 1492.6 56.4746C1491.39 57.6465 1490.66 59.4206 1490.4 61.7969L1489.71 67.998H1482.98L1483.51 48.6133H1545.82L1546.31 67.998H1539.62L1538.88 61.7969C1538.62 59.4206 1537.89 57.6465 1536.69 56.4746C1535.52 55.3027 1533.48 54.7168 1530.58 54.7168Z" fill="#FF4444"/>
<path d="M1231.82 44.3809V104H1222.59L1183.58 48.9219V92.1836C1183.58 94.7227 1184.02 96.4479 1184.9 97.3594C1185.78 98.2383 1187.05 98.6777 1188.71 98.6777H1192.91V104H1166.78V98.6777H1170.98C1172.71 98.6777 1173.99 98.2383 1174.84 97.3594C1175.69 96.4479 1176.11 94.7227 1176.11 92.1836V43.9902C1176.11 41.6139 1175.65 40.0026 1174.74 39.1562C1173.86 38.3099 1172.61 37.8867 1170.98 37.8867H1166.78V32.6133H1189L1224.3 82.5156V43.9902C1224.3 41.6139 1223.85 40.0026 1222.94 39.1562C1222.06 38.3099 1220.8 37.8867 1219.18 37.8867H1214.98V32.6133H1241.1V37.8867H1236.9C1235.21 37.8867 1233.94 38.3424 1233.09 39.2539C1232.25 40.1328 1231.82 41.8418 1231.82 44.3809Z" fill="white"/>
</svg>
