<svg width="557" height="532" viewBox="0 0 557 532" fill="none" xmlns="http://www.w3.org/2000/svg">
<circle cx="404.618" cy="150.822" r="147.322" fill="#FF4444" stroke="black" stroke-width="7"/>
<circle cx="404.271" cy="151.168" r="131.719" fill="white" stroke="black" stroke-width="7"/>
<path d="M440.622 162.936C441.076 153.316 441.424 145.955 441.48 142.627C442.158 141.119 443.008 138.706 443.947 135.866C445.147 132.234 446.618 127.499 448.256 122.068C451.202 112.297 454.711 100.202 458.197 88.0767C453.004 116.294 447.49 144.914 446.053 150.28C445.607 151.284 445.34 152.537 445.145 153.641C444.891 155.082 444.664 156.884 444.457 158.954C444.041 163.102 443.683 168.543 443.353 174.774C442.919 182.977 442.529 192.66 442.124 202.71C441.914 207.919 441.7 213.226 441.473 218.476C440.809 233.913 440.039 248.869 438.957 259.682C438.832 260.931 438.704 262.115 438.572 263.231C438.413 260.917 438.291 258.322 438.204 255.487C437.843 243.756 438.083 228.322 438.569 212.549C439.114 194.846 439.976 176.609 440.622 162.936Z" fill="#FF4444" stroke="black" stroke-width="7"/>
<path d="M393.933 159.488C394.388 149.868 394.736 142.506 394.792 139.179C395.47 137.67 396.32 135.258 397.258 132.418C398.459 128.786 399.929 124.051 401.567 118.62C404.514 108.849 408.023 96.7534 411.508 84.6285C406.316 112.846 400.802 141.466 399.364 146.831C398.918 147.836 398.652 149.089 398.457 150.192C398.202 151.634 397.975 153.436 397.768 155.506C397.353 159.654 396.995 165.095 396.665 171.325C396.231 179.529 395.84 189.212 395.435 199.262C395.225 204.47 395.011 209.777 394.785 215.028C394.12 230.464 393.351 245.421 392.269 256.234C392.144 257.483 392.015 258.667 391.884 259.783C391.725 257.469 391.603 254.874 391.515 252.039C391.154 240.307 391.394 224.873 391.88 209.1C392.425 191.397 393.287 173.161 393.933 159.488Z" fill="#FF4444" stroke="black" stroke-width="7"/>
<path d="M344.7 156.714C345.155 147.094 345.502 139.733 345.558 136.405C346.236 134.897 347.086 132.485 348.025 129.644C349.225 126.012 350.696 121.277 352.334 115.846C355.28 106.075 358.789 93.9797 362.275 81.8547C357.083 110.072 351.568 138.692 350.131 144.058C349.685 145.062 349.419 146.315 349.224 147.419C348.969 148.86 348.742 150.662 348.535 152.732C348.119 156.88 347.761 162.321 347.431 168.552C346.997 176.755 346.607 186.438 346.202 196.488C345.992 201.697 345.778 207.004 345.552 212.254C344.887 227.691 344.117 242.647 343.035 253.46C342.91 254.709 342.782 255.893 342.65 257.009C342.491 254.695 342.369 252.1 342.282 249.265C341.921 237.534 342.161 222.1 342.647 206.327C343.192 188.624 344.054 170.387 344.7 156.714Z" fill="#FF4444" stroke="black" stroke-width="7"/>
<circle cx="150.822" cy="380.347" r="147.322" fill="#FF4444" stroke="black" stroke-width="7"/>
<path d="M207.996 283.475C207.996 294.624 202.316 308.974 192.622 320.585C182.953 332.166 169.791 340.442 155.253 340.442C140.637 340.442 126.083 332.087 115.04 320.422C103.955 308.711 97.1123 294.413 97.1123 283.475C97.1123 278.18 98.7079 274.258 101.392 271.22C104.141 268.108 108.246 265.686 113.618 263.872C124.447 260.216 139.33 259.376 155.253 259.376C171.21 259.376 184.656 260.225 194.057 263.825C198.68 265.595 202.101 267.95 204.38 270.999C206.636 274.017 207.996 278.009 207.996 283.475Z" fill="white" stroke="black" stroke-width="7"/>
<path d="M251.855 435.442C240.7 435.442 226.347 429.793 214.737 420.157C203.155 410.545 194.888 397.466 194.888 383.03C194.888 368.515 203.235 354.054 214.901 343.076C226.609 332.058 240.91 325.252 251.855 325.252C257.156 325.252 261.08 326.841 264.117 329.508C267.228 332.239 269.648 336.317 271.46 341.653C275.114 352.411 275.954 367.201 275.954 383.03C275.954 398.893 275.104 412.253 271.508 421.593C269.74 426.183 267.387 429.581 264.339 431.846C261.321 434.089 257.326 435.442 251.855 435.442Z" fill="white" stroke="black" stroke-width="7"/>
<path d="M49.0951 325.252C60.2506 325.252 74.6029 330.902 86.2128 340.537C97.7949 350.15 106.062 363.228 106.062 377.664C106.062 392.179 97.7154 406.64 86.0495 417.618C74.341 428.637 60.0404 435.442 49.0951 435.442C43.7944 435.442 39.8701 433.854 36.8328 431.187C33.7222 428.455 31.3025 424.378 29.4901 419.042C25.8362 408.283 24.9961 393.493 24.9961 377.664C24.9961 361.801 25.8457 348.441 29.4423 339.102C31.2102 334.511 33.5629 331.114 36.611 328.849C39.6292 326.606 43.6243 325.252 49.0951 325.252Z" fill="white" stroke="black" stroke-width="7"/>
<path d="M97.3185 476.28C97.3742 465.155 103.107 450.864 112.827 439.327C122.521 427.819 135.679 419.629 150.163 419.701C164.727 419.774 179.188 428.181 190.136 439.877C201.126 451.617 207.874 465.919 207.82 476.834C207.793 482.117 206.183 486.022 203.495 489.038C200.74 492.129 196.638 494.525 191.276 496.307C180.467 499.901 165.63 500.665 149.758 500.586C133.854 500.506 120.458 499.591 111.108 495.953C106.51 494.165 103.115 491.799 100.859 488.746C98.6267 485.725 97.2912 481.735 97.3185 476.28Z" fill="white" stroke="black" stroke-width="7"/>
<path d="M123.304 282.286C125.101 285.283 125.978 290.589 126.164 295.72C126.232 297.611 126.203 299.364 126.12 300.802C124.827 300.193 123.289 299.389 121.675 298.435C117.275 295.835 113.027 292.539 111.223 289.529C110.101 287.657 109.476 286.415 109.177 285.526C109.036 285.106 108.998 284.852 108.991 284.716C108.985 284.606 108.998 284.571 109.001 284.564C109.001 284.563 109.001 284.563 109.001 284.563C109.011 284.534 109.132 284.206 110.012 283.496C110.894 282.783 112.189 281.958 114.111 280.805C116.032 279.654 117.382 278.894 118.442 278.443C119.501 277.992 119.881 278.025 119.947 278.035C119.968 278.038 120.013 278.045 120.115 278.104C120.233 278.173 120.44 278.322 120.743 278.636C121.385 279.303 122.188 280.424 123.304 282.286Z" fill="#FF4444" stroke="black" stroke-width="7"/>
<path d="M160.15 278.461C160.15 281.888 158.149 286.824 155.621 291.282C154.659 292.978 153.684 294.496 152.837 295.694C152.008 294.5 151.053 292.99 150.112 291.303C147.626 286.848 145.653 281.904 145.653 278.461C145.653 276.301 145.758 274.939 145.96 274.045C146.055 273.624 146.152 273.398 146.213 273.286C146.262 273.196 146.29 273.174 146.299 273.166C146.3 273.166 146.3 273.165 146.301 273.165C146.34 273.133 146.642 272.909 147.802 272.751C148.96 272.593 150.535 272.551 152.819 272.551C155.102 272.551 156.691 272.593 157.868 272.752C159.047 272.911 159.387 273.139 159.456 273.193C159.477 273.21 159.511 273.239 159.565 273.335C159.628 273.446 159.728 273.67 159.827 274.083C160.035 274.962 160.15 276.313 160.15 278.461Z" fill="#FF4444" stroke="black" stroke-width="7"/>
<path d="M194.322 289.072C192.657 292.143 188.535 295.599 184.214 298.37C182.621 299.391 181.098 300.259 179.817 300.919C179.683 299.497 179.592 297.763 179.592 295.888C179.591 290.777 180.267 285.443 181.939 282.358C182.979 280.439 183.731 279.27 184.344 278.56C184.633 278.224 184.833 278.063 184.946 277.988C185.038 277.927 185.075 277.92 185.082 277.919C185.083 277.919 185.083 277.918 185.083 277.918C185.113 277.912 185.456 277.849 186.516 278.245C187.578 278.642 188.948 279.336 190.918 280.405C192.887 281.472 194.228 282.247 195.156 282.931C196.083 283.613 196.248 283.957 196.273 284.018C196.281 284.038 196.298 284.08 196.299 284.198C196.3 284.334 196.277 284.588 196.161 285.009C195.914 285.901 195.357 287.163 194.322 289.072Z" fill="#FF4444" stroke="black" stroke-width="7"/>
<path d="M45.3861 410.186C48.4096 408.435 53.7287 407.638 58.8611 407.529C60.7531 407.489 62.5053 407.545 63.9424 407.65C63.3141 408.933 62.4866 410.459 61.5084 412.059C58.8419 416.419 55.4822 420.617 52.4455 422.375C50.5569 423.469 49.3056 424.075 48.4121 424.36C47.99 424.495 47.7354 424.529 47.6 424.534C47.4899 424.538 47.4545 424.525 47.4474 424.522C47.447 424.522 47.4468 424.522 47.4466 424.521C47.4181 424.511 47.0922 424.386 46.3952 423.495C45.696 422.602 44.8901 421.295 43.7668 419.356C42.6443 417.417 41.9051 416.057 41.4698 414.989C41.0354 413.924 41.074 413.544 41.0846 413.479C41.0879 413.458 41.0955 413.413 41.1563 413.312C41.2269 413.195 41.3788 412.99 41.6978 412.692C42.374 412.06 43.5075 411.274 45.3861 410.186Z" fill="#FF4444" stroke="black" stroke-width="7"/>
<path d="M41.6321 373.231C45.1257 373.283 50.0974 375.335 54.5553 377.881C56.1987 378.819 57.6732 379.767 58.8517 380.596C57.653 381.374 56.1585 382.258 54.497 383.127C49.9683 385.495 44.9284 387.368 41.4196 387.315C39.2374 387.282 37.8527 387.158 36.9395 386.944C36.5082 386.843 36.2725 386.74 36.1537 386.675C36.0571 386.622 36.0338 386.592 36.0291 386.586C36.0289 386.586 36.0287 386.586 36.0286 386.586C36.0095 386.562 35.7945 386.287 35.6545 385.165C35.5141 384.039 35.4947 382.504 35.5285 380.263C35.5623 378.023 35.628 376.476 35.8035 375.337C35.9786 374.2 36.207 373.894 36.2498 373.843C36.2633 373.827 36.293 373.792 36.3969 373.737C36.5176 373.673 36.7532 373.575 37.1801 373.484C38.085 373.289 39.4614 373.198 41.6321 373.231Z" fill="#FF4444" stroke="black" stroke-width="7"/>
<path d="M53.2423 339.28C56.2884 340.991 59.6813 345.164 62.3869 349.527C63.3843 351.135 64.2286 352.672 64.8694 353.962C63.4451 354.074 61.7102 354.139 59.8353 354.111C54.7251 354.035 49.4019 353.279 46.3425 351.56C44.4398 350.491 43.2815 349.722 42.5809 349.098C42.2501 348.804 42.0916 348.602 42.0182 348.488C41.9585 348.395 41.9523 348.358 41.951 348.35C41.951 348.35 41.9509 348.35 41.9509 348.349C41.9453 348.32 41.8875 347.975 42.2992 346.922C42.7123 345.865 43.427 344.507 44.5249 342.553C45.622 340.6 46.4172 339.271 47.1145 338.353C47.8104 337.437 48.157 337.277 48.2188 337.253C48.2383 337.245 48.2811 337.228 48.3986 337.23C48.5352 337.231 48.7889 337.257 49.2079 337.38C50.096 337.641 51.3497 338.216 53.2423 339.28Z" fill="#FF4444" stroke="black" stroke-width="7"/>
<path d="M182.599 483.47C180.827 480.459 179.994 475.146 179.849 470.014C179.796 468.122 179.839 466.37 179.934 464.932C181.222 465.551 182.754 466.368 184.36 467.335C188.739 469.971 192.96 473.302 194.739 476.326C195.846 478.207 196.461 479.454 196.752 480.346C196.89 480.767 196.926 481.021 196.932 481.156C196.937 481.267 196.923 481.302 196.921 481.309C196.92 481.31 196.92 481.31 196.92 481.31C196.91 481.339 196.787 481.665 195.901 482.369C195.013 483.074 193.712 483.889 191.78 485.026C189.85 486.162 188.494 486.91 187.43 487.353C186.367 487.795 185.987 487.759 185.922 487.749C185.901 487.745 185.856 487.738 185.755 487.678C185.637 487.608 185.431 487.458 185.131 487.141C184.494 486.469 183.7 485.341 182.599 483.47Z" fill="#FF4444" stroke="black" stroke-width="7"/>
<path d="M145.671 487.481C145.7 483.987 147.717 479.001 150.231 474.526C151.158 472.876 152.096 471.395 152.917 470.211C153.703 471.404 154.597 472.892 155.478 474.548C157.878 479.06 159.786 484.086 159.757 487.596C159.739 489.778 159.625 491.163 159.417 492.078C159.319 492.51 159.218 492.747 159.154 492.866C159.102 492.963 159.072 492.986 159.066 492.991C159.065 492.991 159.065 492.991 159.065 492.992C159.042 493.011 158.768 493.228 157.647 493.375C156.522 493.524 154.987 493.554 152.746 493.536C150.506 493.517 148.959 493.462 147.818 493.295C146.68 493.128 146.372 492.901 146.321 492.859C146.305 492.846 146.27 492.816 146.214 492.713C146.15 492.592 146.05 492.357 145.956 491.931C145.755 491.028 145.654 489.652 145.671 487.481Z" fill="#FF4444" stroke="black" stroke-width="7"/>
<path d="M111.638 476.107C113.329 473.049 117.478 469.627 121.822 466.891C123.423 465.883 124.953 465.028 126.24 464.378C126.362 465.802 126.438 467.536 126.423 469.411C126.383 474.522 125.664 479.85 123.966 482.921C122.911 484.831 122.15 485.995 121.531 486.7C121.239 487.033 121.038 487.193 120.924 487.267C120.832 487.327 120.795 487.334 120.787 487.335C120.787 487.335 120.787 487.335 120.786 487.335C120.757 487.341 120.413 487.401 119.357 486.997C118.297 486.591 116.934 485.886 114.972 484.801C113.012 483.718 111.677 482.932 110.754 482.241C109.833 481.552 109.671 481.206 109.646 481.144C109.639 481.125 109.622 481.082 109.622 480.965C109.622 480.828 109.647 480.574 109.767 480.154C110.021 479.265 110.588 478.007 111.638 476.107Z" fill="#FF4444" stroke="black" stroke-width="7"/>
<path d="M258.51 351.562C255.498 353.333 250.184 354.163 245.052 354.305C243.16 354.357 241.408 354.313 239.97 354.217C240.59 352.93 241.408 351.399 242.376 349.793C245.014 345.416 248.347 341.196 251.372 339.418C253.254 338.312 254.501 337.699 255.393 337.407C255.814 337.27 256.068 337.235 256.204 337.228C256.314 337.224 256.349 337.237 256.356 337.24C256.357 337.24 256.357 337.24 256.357 337.24C256.386 337.25 256.713 337.374 257.415 338.26C258.12 339.148 258.934 340.45 260.07 342.382C261.205 344.313 261.953 345.669 262.395 346.734C262.836 347.796 262.8 348.176 262.79 348.242C262.787 348.263 262.78 348.308 262.719 348.409C262.65 348.526 262.499 348.732 262.182 349.032C261.51 349.669 260.381 350.462 258.51 351.562Z" fill="#FF4444" stroke="black" stroke-width="7"/>
<path d="M262.502 388.493C259.008 388.463 254.023 386.444 249.549 383.927C247.899 382.999 246.419 382.06 245.235 381.238C246.429 380.453 247.917 379.56 249.573 378.68C254.087 376.283 259.115 374.377 262.624 374.408C264.806 374.427 266.191 374.541 267.106 374.75C267.538 374.849 267.774 374.949 267.894 375.014C267.991 375.066 268.014 375.096 268.019 375.102C268.019 375.102 268.019 375.102 268.019 375.103C268.038 375.126 268.255 375.4 268.402 376.521C268.55 377.646 268.579 379.181 268.56 381.422C268.54 383.662 268.485 385.209 268.317 386.35C268.149 387.488 267.922 387.795 267.88 387.846C267.867 387.862 267.837 387.898 267.733 387.953C267.613 388.018 267.378 388.117 266.952 388.212C266.048 388.412 264.672 388.512 262.502 388.493Z" fill="#FF4444" stroke="black" stroke-width="7"/>
<path d="M251.111 422.519C248.054 420.827 244.634 416.676 241.901 412.33C240.893 410.729 240.039 409.198 239.39 407.911C240.813 407.79 242.548 407.714 244.423 407.73C249.533 407.773 254.861 408.495 257.932 410.194C259.841 411.251 261.004 412.012 261.709 412.632C262.042 412.924 262.201 413.125 262.276 413.239C262.336 413.331 262.342 413.368 262.344 413.376C262.344 413.376 262.344 413.376 262.344 413.377C262.35 413.406 262.41 413.75 262.005 414.806C261.598 415.865 260.892 417.229 259.807 419.19C258.723 421.149 257.936 422.483 257.244 423.406C256.554 424.326 256.209 424.489 256.147 424.513C256.128 424.521 256.085 424.538 255.968 424.538C255.831 424.537 255.577 424.512 255.157 424.392C254.268 424.137 253.01 423.57 251.111 422.519Z" fill="#FF4444" stroke="black" stroke-width="7"/>
<path d="M298.143 150.822C298.143 232.185 232.185 298.143 150.822 298.143C78.7173 298.143 18.705 246.339 5.98616 177.919C5.90523 177.484 5.98805 176.792 7.56891 175.154C8.09951 174.604 8.64852 174.094 9.27417 173.513C9.55683 173.251 9.85513 172.974 10.1744 172.672C11.1191 171.779 12.1942 170.715 13.0851 169.505C13.9877 168.28 14.8144 166.758 15.0984 164.924C15.3907 163.038 15.0622 161.12 14.1267 159.22C12.5173 155.952 9.05756 152.631 3.51188 148.931C4.52416 68.4389 70.0893 3.5 150.822 3.5C214.834 3.5 269.32 44.3283 289.641 101.376C290.052 102.529 289.987 103.876 289.483 105.856C289.286 106.629 289.054 107.39 288.793 108.243C288.716 108.495 288.637 108.755 288.555 109.026C288.215 110.156 287.85 111.427 287.606 112.748C287.109 115.45 287.077 118.585 288.785 121.779C290.251 124.52 292.799 126.93 296.558 129.127C297.602 136.205 298.143 143.449 298.143 150.822Z" fill="white" stroke="black" stroke-width="7"/>
<path d="M278.034 150.821C278.034 221.079 221.079 278.034 150.821 278.034C88.5599 278.034 36.7388 233.301 25.7562 174.221C25.731 174.085 25.649 173.639 27.0049 172.234C27.4557 171.766 27.9176 171.337 28.4544 170.839C28.701 170.61 28.9634 170.366 29.2478 170.098C30.0699 169.321 31.0272 168.375 31.8255 167.291C32.6355 166.191 33.3945 164.802 33.6558 163.115C33.9254 161.375 33.6193 159.616 32.7711 157.894C31.343 154.993 28.3298 152.102 23.6231 148.936C24.6311 79.5481 81.1937 23.6094 150.821 23.6094C206.096 23.6094 253.145 58.8639 270.692 108.125C271.001 108.993 270.972 110.05 270.542 111.736C270.375 112.395 270.178 113.04 269.953 113.776C269.886 113.996 269.816 114.225 269.744 114.464C269.448 115.446 269.125 116.568 268.909 117.74C268.466 120.143 268.431 122.978 269.978 125.871C271.276 128.298 273.496 130.406 276.697 132.308C277.577 138.35 278.034 144.532 278.034 150.821Z" fill="#FF4444" stroke="black" stroke-width="7"/>
<mask id="path-25-inside-1_152_23" fill="white">
<ellipse cx="181.17" cy="57.9702" rx="6.00975" ry="7.2117"/>
</mask>
<ellipse cx="181.17" cy="57.9702" rx="6.00975" ry="7.2117" fill="white"/>
<path d="M180.18 57.9702C180.18 58.4095 180.028 58.6054 180.042 58.5884C180.055 58.5725 180.142 58.4743 180.341 58.3732C180.552 58.266 180.842 58.1819 181.17 58.1819V72.1819C189.496 72.1819 194.18 64.5699 194.18 57.9702H180.18ZM181.17 58.1819C181.498 58.1819 181.788 58.266 181.999 58.3732C182.198 58.4743 182.285 58.5725 182.298 58.5884C182.312 58.6054 182.16 58.4095 182.16 57.9702H168.16C168.16 64.5699 172.844 72.1819 181.17 72.1819V58.1819ZM182.16 57.9702C182.16 57.531 182.312 57.3351 182.298 57.3521C182.285 57.368 182.198 57.4662 181.999 57.5673C181.788 57.6745 181.498 57.7585 181.17 57.7585V43.7585C172.844 43.7585 168.16 51.3706 168.16 57.9702H182.16ZM181.17 57.7585C180.842 57.7585 180.552 57.6745 180.341 57.5673C180.142 57.4662 180.055 57.368 180.042 57.3521C180.028 57.3351 180.18 57.531 180.18 57.9702H194.18C194.18 51.3706 189.496 43.7585 181.17 43.7585V57.7585Z" fill="black" mask="url(#path-25-inside-1_152_23)"/>
<path d="M115.77 224.14C115.77 230.427 110.192 235.965 102.744 235.965C95.2955 235.965 89.7168 230.427 89.7168 224.14C89.7168 217.854 95.2955 212.315 102.744 212.315C110.192 212.315 115.77 217.854 115.77 224.14Z" fill="white" stroke="black" stroke-width="7"/>
<path d="M224.127 208.794C216.536 217.819 205.073 219.213 198.601 213.77C192.129 208.326 191.538 196.794 199.129 187.769C206.72 178.743 218.183 177.349 224.655 182.793C231.127 188.236 231.718 199.769 224.127 208.794Z" fill="white" stroke="black" stroke-width="7"/>
<path d="M135.002 155.93C135.002 162.174 128.984 168.056 120.473 168.056C111.961 168.056 105.943 162.174 105.943 155.93C105.943 149.687 111.961 143.805 120.473 143.805C128.984 143.805 135.002 149.687 135.002 155.93Z" fill="white" stroke="black" stroke-width="7"/>
<path d="M159.342 67.5947C156.237 77.4281 146.703 82.5839 138.476 79.9863C130.25 77.3888 125.405 67.6928 128.51 57.8594C131.615 48.026 141.149 42.8703 149.376 45.4678C157.602 48.0653 162.447 57.7613 159.342 67.5947Z" fill="white" stroke="black" stroke-width="7"/>
<mask id="path-31-inside-2_152_23" fill="white">
<ellipse cx="181.471" cy="57.9704" rx="3.90634" ry="4.8078"/>
</mask>
<ellipse cx="181.471" cy="57.9704" rx="3.90634" ry="4.8078" fill="#FF4444"/>
<path d="M178.377 57.9704C178.377 57.7922 178.431 57.4105 178.8 56.9559C179.181 56.4873 180.086 55.7782 181.471 55.7782V69.7782C188.782 69.7782 192.377 63.0634 192.377 57.9704H178.377ZM181.471 55.7782C182.855 55.7782 183.761 56.4873 184.141 56.9559C184.511 57.4105 184.564 57.7922 184.564 57.9704H170.564C170.564 63.0634 174.159 69.7782 181.471 69.7782V55.7782ZM184.564 57.9704C184.564 58.1486 184.511 58.5303 184.141 58.9849C183.761 59.4535 182.855 60.1626 181.471 60.1626V46.1626C174.159 46.1626 170.564 52.8774 170.564 57.9704H184.564ZM181.471 60.1626C180.086 60.1626 179.181 59.4535 178.8 58.9849C178.431 58.5303 178.377 58.1486 178.377 57.9704H192.377C192.377 52.8774 188.782 46.1626 181.471 46.1626V60.1626Z" fill="black" mask="url(#path-31-inside-2_152_23)"/>
<mask id="path-33-inside-3_152_23" fill="white">
<ellipse cx="91.5074" cy="165.936" rx="6.85587" ry="8.22704" transform="rotate(47.7063 91.5074 165.936)"/>
</mask>
<ellipse cx="91.5074" cy="165.936" rx="6.85587" ry="8.22704" transform="rotate(47.7063 91.5074 165.936)" fill="white"/>
<path d="M91.4104 165.83C90.8782 166.314 90.3795 166.434 90.1626 166.444C90.0639 166.448 90.0785 166.429 90.1812 166.467C90.2964 166.511 90.4579 166.606 90.5998 166.762L80.2439 176.183C86.1611 182.687 95.5349 181.004 100.831 176.186L91.4104 165.83ZM90.5998 166.762C90.7416 166.918 90.8208 167.088 90.8535 167.207C90.8826 167.312 90.862 167.325 90.8756 167.227C90.9054 167.012 91.0721 166.527 91.6044 166.043L82.1834 155.687C76.8868 160.506 74.3267 169.679 80.2439 176.183L90.5998 166.762ZM91.6044 166.043C92.1367 165.559 92.6353 165.438 92.8522 165.429C92.951 165.425 92.9363 165.444 92.8337 165.405C92.7184 165.361 92.5569 165.267 92.4151 165.111L102.771 155.69C96.8537 149.185 87.48 150.869 82.1834 155.687L91.6044 166.043ZM92.4151 165.111C92.2732 164.955 92.1941 164.785 92.1614 164.666C92.1322 164.56 92.1529 164.547 92.1393 164.645C92.1095 164.86 91.9427 165.345 91.4104 165.83L100.831 176.186C106.128 171.367 108.688 162.194 102.771 155.69L92.4151 165.111Z" fill="black" mask="url(#path-33-inside-3_152_23)"/>
<mask id="path-35-inside-4_152_23" fill="white">
<ellipse cx="91.7367" cy="166.189" rx="4.45631" ry="5.48469" transform="rotate(47.7063 91.7367 166.189)"/>
</mask>
<ellipse cx="91.7367" cy="166.189" rx="4.45631" ry="5.48469" transform="rotate(47.7063 91.7367 166.189)" fill="#FF4444"/>
<path d="M90.0249 164.308C90.0321 164.301 90.0684 164.27 90.1486 164.236C90.2251 164.203 90.372 164.154 90.5976 164.141C91.0429 164.116 92.028 164.258 92.8575 165.17L82.5017 174.591C87.6262 180.224 95.4021 178.342 99.446 174.664L90.0249 164.308ZM92.8575 165.17C93.6871 166.082 93.7353 167.076 93.6685 167.517C93.6347 167.74 93.572 167.882 93.532 167.955C93.49 168.031 93.4556 168.064 93.4484 168.071L84.0273 157.715C79.9835 161.394 77.3771 168.958 82.5017 174.591L92.8575 165.17ZM93.4484 168.071C93.4412 168.078 93.4049 168.109 93.3247 168.143C93.2482 168.176 93.1013 168.225 92.8757 168.238C92.4304 168.263 91.4453 168.121 90.6158 167.209L100.972 157.788C95.8471 152.155 88.0712 154.036 84.0273 157.715L93.4484 168.071ZM90.6158 167.209C89.7863 166.297 89.738 165.303 89.8048 164.862C89.8387 164.639 89.9013 164.497 89.9413 164.424C89.9834 164.348 90.0177 164.314 90.0249 164.308L99.446 174.664C103.49 170.985 106.096 163.421 100.972 157.788L90.6158 167.209Z" fill="black" mask="url(#path-35-inside-4_152_23)"/>
<path d="M168.887 199.54C167.83 204.424 163.006 207.756 158.148 207.035C153.29 206.313 150.162 201.8 151.218 196.916C152.274 192.032 157.098 188.701 161.957 189.422C166.815 190.143 169.943 194.656 168.887 199.54Z" fill="white" stroke="black" stroke-width="7"/>
<path d="M165.197 198.993C164.61 201.709 162.043 203.407 159.643 203.051C157.244 202.695 155.549 200.363 156.136 197.648C156.723 194.932 159.29 193.233 161.689 193.59C164.089 193.946 165.784 196.278 165.197 198.993Z" fill="#FF4444" stroke="black" stroke-width="7"/>
<path d="M200.416 121.129C199.829 123.847 197.15 125.685 194.47 125.287C191.79 124.889 190.048 122.395 190.636 119.676C191.224 116.958 193.902 115.12 196.582 115.518C199.263 115.916 201.004 118.411 200.416 121.129Z" fill="white" stroke="black" stroke-width="7"/>
<mask id="path-40-inside-5_152_23" fill="white">
<ellipse cx="5.48857" cy="5.66502" rx="5.48857" ry="5.66502" transform="matrix(0.989154 0.146882 -0.211362 0.977408 191.711 114.121)"/>
</mask>
<ellipse cx="5.48857" cy="5.66502" rx="5.48857" ry="5.66502" transform="matrix(0.989154 0.146882 -0.211362 0.977408 191.711 114.121)" fill="#FF4444"/>
<path d="M194.448 120.242C194.559 119.727 195.194 119.006 196.225 119.159L193.266 132.843C200.293 133.887 206.862 128.93 208.296 122.299L194.448 120.242ZM196.225 119.159C197.255 119.313 197.549 120.171 197.438 120.686L183.589 118.63C182.156 125.261 186.238 131.8 193.266 132.843L196.225 119.159ZM197.438 120.686C197.326 121.201 196.691 121.922 195.66 121.769L198.62 108.085C191.592 107.042 185.023 111.999 183.589 118.63L197.438 120.686ZM195.66 121.769C194.63 121.616 194.336 120.757 194.448 120.242L208.296 122.299C209.73 115.668 205.647 109.129 198.62 108.085L195.66 121.769Z" fill="black" mask="url(#path-40-inside-5_152_23)"/>
<path d="M242.572 90.1767C241.626 94.5554 237.302 97.5389 232.952 96.8929C228.602 96.247 225.797 92.2051 226.744 87.8263C227.691 83.4476 232.015 80.4641 236.365 81.1101C240.715 81.7561 243.519 85.7979 242.572 90.1767Z" fill="white" stroke="black" stroke-width="7"/>
<path d="M239.158 89.6698C238.644 92.0484 236.404 93.5138 234.334 93.2065C232.265 92.8992 230.779 90.8806 231.293 88.5019C231.807 86.1233 234.047 84.658 236.117 84.9652C238.186 85.2725 239.672 87.2912 239.158 89.6698Z" fill="#FF4444" stroke="black" stroke-width="7"/>
<path d="M80.9911 94.7336C76.9379 99.0889 71.2557 99.2272 68.3079 96.5555C65.36 93.8839 65.017 88.285 69.0702 83.9296C73.1234 79.5742 78.8056 79.436 81.7534 82.1076C84.7013 84.7793 85.0443 90.3782 80.9911 94.7336Z" fill="white" stroke="black" stroke-width="7"/>
<path d="M78.4249 92.4079C75.9878 95.0267 73.0095 94.8034 71.7712 93.6812C70.5329 92.5589 70.0545 89.6494 72.4916 87.0306C74.9288 84.4118 77.907 84.6351 79.1453 85.7573C80.3836 86.8796 80.862 89.7891 78.4249 92.4079Z" fill="#FF4444" stroke="black" stroke-width="7"/>
<path d="M184.02 267.663C181.295 268.763 178.468 269.12 176.229 268.942C173.94 268.761 172.832 268.107 172.395 267.612C171.958 267.117 171.632 266.148 172.481 264.699C173.311 263.282 175.115 261.768 177.84 260.668C180.565 259.567 183.392 259.211 185.63 259.388C187.92 259.57 189.027 260.223 189.464 260.718C189.902 261.213 190.228 262.182 189.379 263.631C188.549 265.048 186.744 266.562 184.02 267.663Z" fill="white" stroke="black" stroke-width="7"/>
<mask id="path-47-inside-6_152_23" fill="white">
<ellipse cx="5.30846" cy="8.46961" rx="5.30846" ry="8.46961" transform="matrix(0.662064 0.749448 -0.927231 0.37449 185.539 257.322)"/>
</mask>
<ellipse cx="5.30846" cy="8.46961" rx="5.30846" ry="8.46961" transform="matrix(0.662064 0.749448 -0.927231 0.37449 185.539 257.322)" fill="#FF4444"/>
<path d="M180.08 263.204C178.937 263.666 177.993 263.715 177.652 263.691C177.501 263.68 177.695 263.672 178.12 263.836C178.59 264.017 179.282 264.393 179.838 265.022L166.856 270.265C169.995 273.818 174.967 275.107 178.612 275.365C182.386 275.633 186.155 274.986 189.349 273.697L180.08 263.204ZM179.838 265.022C180.394 265.652 180.555 266.242 180.569 266.608C180.581 266.938 180.478 267.05 180.536 266.955C180.666 266.741 181.177 266.201 182.32 265.74L173.051 255.247C169.857 256.537 167.229 258.475 165.788 260.849C164.397 263.141 163.718 266.712 166.856 270.265L179.838 265.022ZM182.32 265.74C183.464 265.278 184.408 265.229 184.748 265.253C184.9 265.264 184.705 265.272 184.281 265.108C183.81 264.927 183.119 264.551 182.563 263.922L195.544 258.679C192.406 255.126 187.433 253.837 183.788 253.579C180.014 253.311 176.245 253.957 173.051 255.247L182.32 265.74ZM182.563 263.922C182.007 263.292 181.845 262.702 181.832 262.336C181.82 262.006 181.922 261.894 181.865 261.989C181.735 262.203 181.224 262.742 180.08 263.204L189.349 273.697C192.543 272.407 195.172 270.469 196.612 268.095C198.004 265.803 198.683 262.232 195.544 258.679L182.563 263.922Z" fill="black" mask="url(#path-47-inside-6_152_23)"/>
<path d="M131.555 268.502C131.022 270.418 129.026 271.664 127.129 271.336C125.231 271.008 124.08 269.217 124.613 267.301C125.146 265.385 127.143 264.139 129.04 264.467C130.938 264.795 132.089 266.586 131.555 268.502Z" fill="white" stroke="black" stroke-width="7"/>
<mask id="path-50-inside-7_152_23" fill="white">
<ellipse cx="4.56469" cy="4.71002" rx="4.56469" ry="4.71002" transform="matrix(0.985383 0.170354 -0.268107 0.963389 125.195 262.645)"/>
</mask>
<ellipse cx="4.56469" cy="4.71002" rx="4.56469" ry="4.71002" transform="matrix(0.985383 0.170354 -0.268107 0.963389 125.195 262.645)" fill="#FF4444"/>
<path d="M126.031 267.546C126.314 266.528 127.517 265.49 129.044 265.754L125.291 279.242C131.787 280.365 138.148 275.96 139.826 269.931L126.031 267.546ZM129.044 265.754C130.572 266.019 131.113 267.358 130.83 268.376L117.035 265.991C115.357 272.02 118.795 278.119 125.291 279.242L129.044 265.754ZM130.83 268.376C130.547 269.393 129.344 270.431 127.817 270.167L131.57 256.679C125.074 255.556 118.713 259.961 117.035 265.991L130.83 268.376ZM127.817 270.167C126.289 269.903 125.748 268.563 126.031 267.546L139.826 269.931C141.504 263.901 138.066 257.802 131.57 256.679L127.817 270.167Z" fill="black" mask="url(#path-50-inside-7_152_23)"/>
<path d="M220.044 208.109C214.205 214.725 205.812 215.373 201.331 211.419C196.849 207.464 196.447 199.056 202.285 192.439C208.124 185.822 216.517 185.174 220.998 189.129C225.48 193.083 225.882 201.492 220.044 208.109Z" fill="#FF4444" stroke="black" stroke-width="7"/>
<path d="M129.593 155.629C129.593 159.929 125.758 163.848 120.472 163.848C115.186 163.848 111.352 159.929 111.352 155.629C111.352 151.33 115.186 147.41 120.472 147.41C125.758 147.41 129.593 151.33 129.593 155.629Z" fill="#FF4444" stroke="black" stroke-width="7"/>
<path d="M113.366 224.141C113.366 228.44 109.531 232.36 104.245 232.36C98.9596 232.36 95.125 228.44 95.125 224.141C95.125 219.841 98.9596 215.922 104.245 215.922C109.531 215.922 113.366 219.841 113.366 224.141Z" fill="#FF4444" stroke="black" stroke-width="7"/>
<path d="M154.833 65.1821C154.833 72.3364 149.281 77.9085 142.707 77.9085C136.134 77.9085 130.582 72.3364 130.582 65.1821C130.582 58.0279 136.134 52.4558 142.707 52.4558C149.281 52.4558 154.833 58.0279 154.833 65.1821Z" fill="#FF4444" stroke="black" stroke-width="7"/>
<path d="M494.915 282.437L495.653 283.08L496.617 283.248C509.932 285.561 519.159 290.77 525.805 297.668C532.499 304.615 536.787 313.494 539.825 323.466C542.861 333.432 544.581 344.242 546.298 355.038L546.315 355.143C547.972 365.561 549.639 376.025 552.56 385.178C548.096 417.738 533.339 440.775 507.364 480.877C475.93 481.372 445.011 494.139 401.975 526.867C366.528 503.335 338.167 493.573 292.661 481.559C289.342 462.429 279.663 449.163 270.115 436.294C269.947 436.067 269.778 435.84 269.61 435.614C260.125 422.833 250.828 410.306 246.534 392.176C253.493 384.669 256.97 375.205 259.085 365.199C260.56 358.221 261.427 350.62 262.29 343.062C262.725 339.258 263.157 335.465 263.666 331.768C266.729 309.503 272.66 288.623 297.339 276.053C327.584 275.851 344.279 264.697 358.297 253.804C359.563 252.821 360.8 251.846 362.018 250.887C374.378 241.154 384.702 233.026 402.11 233.026C420.248 233.026 436.751 239.491 452.127 248.961C467.157 258.218 480.891 270.201 493.915 281.565C494.249 281.856 494.582 282.147 494.915 282.437Z" fill="#FF4444" stroke="black" stroke-width="7"/>
<path d="M482.367 295.382L483.105 296.025L484.069 296.192C495.592 298.193 503.545 302.691 509.266 308.625C515.034 314.608 518.743 322.271 521.379 330.92C524.017 339.573 525.512 348.966 527.011 358.384L527.023 358.459C528.46 367.49 529.912 376.605 532.451 384.596C528.567 412.74 515.811 432.699 493.267 467.489C465.875 467.982 438.939 479.135 401.63 507.453C370.868 487.087 346.165 478.577 306.754 468.167C303.793 451.536 295.342 439.97 287.068 428.822L286.643 428.25C278.409 417.16 270.391 406.361 266.646 390.783C272.681 384.186 275.697 375.92 277.532 367.242C278.822 361.143 279.583 354.481 280.337 347.882C280.715 344.574 281.091 341.282 281.531 338.084C284.191 318.754 289.318 300.782 310.548 289.929C336.983 289.727 351.608 279.959 363.849 270.451C364.952 269.595 366.029 268.748 367.087 267.915C377.873 259.429 386.753 252.442 401.766 252.442C417.466 252.442 431.769 258.035 445.129 266.259C458.198 274.304 470.145 284.723 481.506 294.631L482.367 295.382Z" fill="white" stroke="black" stroke-width="7"/>
<path d="M475.324 325.553C480.838 330.228 488.334 336.764 498.318 345.586C498.068 346.463 497.609 347.713 496.921 349.339C495.345 353.063 492.837 358.147 489.889 363.889C487.892 367.777 485.696 371.961 483.484 376.177C479.233 384.277 474.921 392.494 471.844 398.952C469.455 403.967 468.14 407.98 467.823 411.182C467.501 414.437 468.184 417.4 470.465 419.39L472.766 416.753L470.465 419.39C472.624 421.274 475.433 421.564 477.585 421.495C478.531 421.464 479.492 421.358 480.428 421.212C479.096 422.547 477.577 424.02 475.913 425.597C470.457 430.764 463.543 436.944 456.709 442.882C449.877 448.818 443.152 454.489 438.082 458.635C436.534 459.901 435.149 461.019 433.966 461.954C433.894 460.841 433.85 459.6 433.85 458.291C433.849 453.18 434.524 447.846 436.197 444.761C438.758 440.036 468.556 390.443 487.261 362.898C489.531 359.555 489.363 355.357 488.492 351.606C487.593 347.74 485.757 343.522 483.616 339.423C481.148 334.696 478.121 329.849 475.324 325.553Z" fill="#FF4444" stroke="black" stroke-width="7"/>
<path d="M400.426 445.879C400.49 450.068 399.992 455.493 399.328 459.898C399.284 460.195 399.238 460.486 399.193 460.77C398.794 460.125 398.387 459.437 397.982 458.716C395.477 454.262 393.452 449.281 393.399 445.772C393.303 439.475 394.532 380.437 398.51 347.833C398.784 345.587 398.398 343.083 397.747 340.627C397.082 338.12 396.064 335.391 394.852 332.596C393.908 330.416 392.826 328.152 391.666 325.866C394.014 329.242 396.208 332.601 398.059 335.735C399.616 338.37 400.902 340.8 401.831 342.914C402.78 345.076 403.263 346.702 403.38 347.786C403.802 351.675 404.293 355.724 405.3 359.411C406.311 363.118 407.911 366.728 410.732 369.588C414.302 373.207 419.279 375.131 426.032 375.269C413.602 385.996 407.169 400.367 403.861 413.169C399.871 428.614 400.31 442.228 400.411 445.354C400.419 445.59 400.424 445.766 400.426 445.879Z" fill="#FF4444" stroke="black" stroke-width="7"/>
<path d="M317.241 350.351L315.582 352.314L316.958 354.484C332.678 379.287 357.691 430.973 363.482 442.938C363.913 443.829 364.237 444.499 364.444 444.922C365.975 448.063 366.391 453.425 366.133 458.552C366.039 460.442 365.859 462.186 365.651 463.612C364.416 462.894 362.953 461.96 361.427 460.87C357.303 457.925 353.386 454.311 351.821 451.174C351.819 451.158 351.763 450.985 351.661 450.544C351.534 449.996 351.386 449.27 351.202 448.337C351.168 448.169 351.134 447.996 351.098 447.817C350.749 446.048 350.298 443.768 349.698 441.196C348.38 435.542 346.31 428.32 342.837 421.429C339.369 414.545 334.396 407.784 327.165 403.327C323.171 400.865 318.587 399.168 313.353 398.496C316.683 395.582 319.012 392.301 320.493 388.754C323.354 381.9 322.791 374.653 321.169 368.311C319.546 361.968 316.758 356.138 314.768 351.988C313.869 350.113 313.193 348.703 312.777 347.66C312.808 347.632 312.84 347.604 312.872 347.575C313.597 346.929 314.579 346.035 315.745 344.964C316.659 344.126 317.685 343.179 318.803 342.149C320.566 340.525 322.555 338.692 324.686 336.742C329.131 332.672 334.085 328.191 338.59 324.292C338.498 324.412 338.404 324.532 338.31 324.652C333.464 330.873 326.601 339.273 317.241 350.351Z" fill="#FF4444" stroke="black" stroke-width="7"/>
</svg>
